<svg width="159" height="159" viewBox="0 0 159 159" fill="none" xmlns="http://www.w3.org/2000/svg">
<rect width="159" height="159" rx="6" fill="#F7FBFD"/>
<path d="M101.787 106.188L104.893 121.158H101.52L97.9648 106.188H101.787Z" fill="#263238"/>
<path d="M77.0117 106.188L73.9062 121.158H77.2793L80.8342 106.188H77.0117Z" fill="#263238"/>
<path d="M103.72 88.6963H73.7847C70.8143 88.6963 68.4062 91.1718 68.4062 94.2254V107.121C68.4062 110.175 70.8143 112.65 73.7847 112.65H103.72C106.69 112.65 109.098 110.175 109.098 107.121V94.2254C109.098 91.1718 106.69 88.6963 103.72 88.6963Z" fill="#455A64"/>
<path d="M108.436 90.7069H108.354H108.109L107.171 90.7375L103.715 90.8224L92.3208 91.0228L80.9263 91.1757L77.4706 91.2028H76.2879C76.2854 91.2134 76.2793 91.2226 76.2707 91.2288C76.2621 91.235 76.2515 91.2378 76.2411 91.2365C76.2306 91.2352 76.221 91.2301 76.214 91.222C76.207 91.2139 76.2031 91.2035 76.2031 91.1926C76.2031 91.1818 76.207 91.1714 76.214 91.1633C76.221 91.1552 76.2306 91.15 76.2411 91.1488C76.2515 91.1475 76.2621 91.1503 76.2707 91.1565C76.2793 91.1627 76.2854 91.1719 76.2879 91.1825H76.5323L77.4706 91.1485L80.923 91.067L92.3208 90.8632L103.715 90.7137L107.168 90.6865H108.354L108.436 90.7069Z" fill="#263238"/>
<path d="M103.537 112.647C103.529 112.574 103.529 112.5 103.537 112.427C103.537 112.26 103.537 112.05 103.557 111.788C103.584 111.214 103.617 110.43 103.656 109.448C103.739 107.475 103.831 104.744 103.841 101.728C103.851 98.7123 103.775 95.9817 103.683 94.0084C103.636 93.0371 103.597 92.2457 103.567 91.6718C103.567 91.4102 103.547 91.1997 103.537 91.0333C103.529 90.9599 103.529 90.8859 103.537 90.8125C103.556 90.8847 103.567 90.9587 103.57 91.0333C103.587 91.1963 103.607 91.4068 103.633 91.665C103.683 92.2152 103.742 93.0235 103.802 94.0016C103.924 95.9783 104.023 98.7089 104.013 101.732C104.003 104.754 103.887 107.482 103.775 109.455C103.719 110.443 103.666 111.241 103.623 111.791C103.6 112.053 103.58 112.264 103.567 112.427C103.566 112.501 103.556 112.575 103.537 112.647Z" fill="#263238"/>
<path d="M103.96 97.4654C103.96 97.5163 103.693 97.5401 103.379 97.6114C103.065 97.6828 102.814 97.7711 102.791 97.7269C102.768 97.6828 103.002 97.5129 103.342 97.4382C103.683 97.3635 103.967 97.4179 103.96 97.4654Z" fill="#263238"/>
<path d="M103.999 96.8475C103.999 96.895 103.738 96.878 103.44 96.8067C103.143 96.7354 102.908 96.6437 102.918 96.5961C102.928 96.5486 103.179 96.5656 103.477 96.6369C103.774 96.7082 104.009 96.7999 103.999 96.8475Z" fill="#263238"/>
<path d="M73.3477 107.451C73.3477 107.403 80.1203 107.362 88.4721 107.362C96.8239 107.362 103.6 107.403 103.6 107.451C103.6 107.498 96.8272 107.539 88.4721 107.539C80.117 107.539 73.3477 107.502 73.3477 107.451Z" fill="#263238"/>
<path d="M94.3641 31.1196C94.1532 31.0739 93.9585 30.9701 93.8005 30.8194C93.6426 30.6688 93.5275 30.4768 93.4674 30.264C93.4074 30.0513 93.4047 29.8258 93.4596 29.6116C93.5145 29.3974 93.625 29.2025 93.7793 29.0479C93.678 28.9986 93.5874 28.9287 93.5131 28.8425C93.4388 28.7562 93.3823 28.6553 93.3469 28.546C93.3116 28.4366 93.2982 28.321 93.3076 28.2062C93.3169 28.0913 93.3489 27.9796 93.4014 27.8778C93.4539 27.776 93.526 27.6862 93.6132 27.6139C93.7005 27.5415 93.8011 27.4881 93.909 27.4568C94.0169 27.4255 94.1298 27.4171 94.241 27.432C94.3521 27.4468 94.4592 27.4847 94.5557 27.5433C94.5347 27.3558 94.5663 27.166 94.6466 26.9963C94.7269 26.8265 94.8527 26.6839 95.0092 26.5851C95.1657 26.4863 95.3463 26.4354 95.5299 26.4385C95.7135 26.4416 95.8925 26.4986 96.0457 26.6026C96.1986 26.4687 96.383 26.3785 96.5805 26.3409C96.7779 26.3034 96.9816 26.3198 97.1709 26.3886C97.3603 26.4574 97.5287 26.5761 97.6594 26.7329C97.7901 26.8896 97.8784 27.0789 97.9156 27.2818C98.0125 27.0968 98.1646 26.9487 98.3495 26.8592C98.5344 26.7696 98.7424 26.7435 98.9428 26.7845C99.1433 26.8256 99.3256 26.9317 99.463 27.0873C99.6004 27.2428 99.6857 27.4396 99.7062 27.6486C100.086 27.5332 100.542 27.4347 100.849 27.6928C101.157 27.9509 101.157 28.372 101.147 28.7626C101.153 29.2188 101.111 29.6744 101.021 30.1211C100.856 30.8121 100.469 31.4252 99.9209 31.86C99.6554 32.144 99.3077 32.3321 98.9296 32.3964C98.5516 32.4607 98.1634 32.3976 97.8231 32.2166" fill="#263238"/>
<path d="M93.883 32.6963C93.7706 32.6072 93.6769 32.4957 93.6075 32.3685C93.538 32.2412 93.4943 32.1009 93.4789 31.9559C93.4635 31.8108 93.4767 31.6641 93.5179 31.5244C93.559 31.3848 93.6271 31.2551 93.7181 31.1432C93.8092 31.0313 93.9213 30.9394 94.0477 30.8732C94.1742 30.8069 94.3123 30.7675 94.4539 30.7575C94.5955 30.7474 94.7376 30.7668 94.8717 30.8146C95.0058 30.8624 95.1291 30.9375 95.2343 31.0355C95.3499 31.1476 95.4589 31.3004 95.6208 31.3106C95.7827 31.3208 95.8983 31.1985 96.0239 31.1102C96.1898 30.9956 96.3842 30.9324 96.5841 30.928C96.7839 30.9237 96.9808 30.9784 97.1513 31.0857C97.3218 31.193 97.4587 31.3484 97.5458 31.5333C97.6329 31.7183 97.6665 31.9251 97.6427 32.1291C98.1746 31.8982 98.908 31.9627 99.1756 32.4891C99.2723 32.7365 99.2769 33.0118 99.1886 33.2625C99.1002 33.5131 98.925 33.7215 98.6965 33.8476C98.2328 34.0823 97.7059 34.1505 97.2 34.0412C95.9819 33.8558 94.8491 33.2889 93.9557 32.4178" fill="#C4D0A1"/>
<path d="M97.185 32.7202C97.185 32.7508 97.3733 32.6795 97.5154 32.4927C97.6574 32.3059 97.6475 32.1158 97.6178 32.1124C97.588 32.109 97.5286 32.2618 97.4162 32.4248C97.3039 32.5878 97.1685 32.6897 97.185 32.7202Z" fill="white"/>
<path d="M95.2951 32.5841C95.3314 32.5841 95.2951 32.3124 95.3909 32.0033C95.4867 31.6943 95.6123 31.4769 95.5858 31.4531C95.4313 31.5805 95.3278 31.7618 95.2951 31.9626C95.255 32.061 95.2344 32.1666 95.2344 32.2733C95.2344 32.38 95.255 32.4857 95.2951 32.5841Z" fill="white"/>
<path d="M94.3066 32.3296C94.3396 32.3296 94.2735 32.0579 94.333 31.742C94.3924 31.4262 94.5411 31.202 94.5114 31.1816C94.4273 31.244 94.3573 31.3241 94.306 31.4167C94.2547 31.5093 94.2233 31.6121 94.214 31.7183C94.1863 31.8211 94.1802 31.9288 94.1962 32.0342C94.2121 32.1396 94.2498 32.2403 94.3066 32.3296Z" fill="white"/>
<path d="M97.9414 33.3851C97.9414 33.3851 98.024 33.3851 98.1429 33.3477C98.2939 33.2779 98.423 33.1662 98.5158 33.0253C98.6085 32.8843 98.6613 32.7196 98.6682 32.5496C98.6682 32.4171 98.6418 32.3424 98.6253 32.3458C98.5902 32.5603 98.5198 32.767 98.4171 32.9571C98.2189 33.256 97.9414 33.3511 97.9414 33.3851Z" fill="white"/>
<path d="M87.1348 44.9396C86.7449 44.8088 86.4155 44.535 86.2095 44.1703C86.0035 43.8057 85.9354 43.3759 86.0181 42.9629C85.7935 42.8021 85.6033 42.5957 85.4591 42.3565C85.315 42.1172 85.22 41.8502 85.1801 41.5717C85.1402 41.2933 85.1561 41.0095 85.227 40.7376C85.2978 40.4658 85.422 40.2118 85.592 39.9912C85.3777 39.8029 85.2232 39.5531 85.1483 39.2737C85.0735 38.9944 85.0817 38.6984 85.172 38.4239C85.2623 38.1495 85.4305 37.9091 85.6549 37.7338C85.8794 37.5586 86.1497 37.4564 86.4311 37.4405C86.3109 37.1178 86.2756 36.7682 86.329 36.427C86.3823 36.0858 86.5223 35.7651 86.7348 35.4973C86.9473 35.2296 87.2249 35.0243 87.5393 34.9021C87.8538 34.7799 88.194 34.7453 88.5257 34.8016C88.4719 34.4548 88.5181 34.0995 88.6586 33.7794C88.7991 33.4594 89.0278 33.1887 89.3164 33.0008C89.6049 32.8129 89.9407 32.716 90.2823 32.7222C90.6238 32.7284 90.9561 32.8373 91.238 33.0355C91.4648 32.7528 91.7474 32.5227 92.067 32.3605C92.3866 32.1983 92.7361 32.1076 93.0923 32.0944C93.4486 32.0813 93.8035 32.146 94.1336 32.2842C94.4638 32.4224 94.7616 32.631 95.0076 32.8963C95.2843 32.7391 95.589 32.6408 95.9034 32.6071C96.2178 32.5733 96.5357 32.6049 96.838 32.7C97.1403 32.795 97.421 32.9516 97.6633 33.1603C97.9056 33.3691 98.1046 33.6258 98.2485 33.9152C98.9621 33.2359 100.204 33.4771 100.852 34.2242C101.499 34.9714 101.651 36.0379 101.575 37.0568C101.834 37.179 102.056 37.3694 102.22 37.6086C102.383 37.8479 102.482 38.1275 102.506 38.4188C102.53 38.7101 102.479 39.0029 102.357 39.2671C102.235 39.5314 102.048 39.7578 101.813 39.9232C102.241 40.517 102.428 41.2587 102.334 41.9915C102.239 42.7242 101.871 43.3905 101.308 43.8493C101.39 44.4911 101.285 45.1435 101.006 45.7239C100.727 46.3043 100.287 46.7866 99.7418 47.1098" fill="#263238"/>
<path d="M98.6202 39.1658L99.0266 37.9737L91.8443 36.7952C89.6341 36.622 87.3182 38.962 87.2455 41.2376C87.1629 43.7678 87.1596 46.8584 87.5032 48.7332C88.1969 52.5031 91.0348 52.8971 91.0348 52.8971L91.2562 58.844L99.3735 58.5044L98.6202 39.1658Z" fill="#CBA180"/>
<path d="M88.207 44.2768C88.2105 44.4035 88.2616 44.524 88.3498 44.6127C88.4379 44.7014 88.5561 44.7514 88.6795 44.7522C88.7397 44.755 88.7999 44.7453 88.8565 44.7238C88.9131 44.7022 88.9649 44.6693 89.0089 44.6269C89.0529 44.5845 89.0882 44.5335 89.1128 44.4769C89.1373 44.4203 89.1507 44.3592 89.1519 44.2972C89.1493 44.1707 89.0989 44.0503 89.0113 43.9615C88.9237 43.8728 88.8058 43.8226 88.6828 43.8217C88.6223 43.819 88.562 43.8287 88.5053 43.8502C88.4485 43.8716 88.3965 43.9045 88.3522 43.9469C88.3079 43.9892 88.2723 44.0402 88.2474 44.0968C88.2224 44.1535 88.2087 44.2147 88.207 44.2768Z" fill="#263238"/>
<path d="M88.0718 42.8301C88.1313 42.8912 88.4815 42.6093 88.9903 42.5957C89.499 42.5821 89.879 42.8301 89.9318 42.7655C89.9847 42.701 89.8955 42.6229 89.727 42.5074C89.5043 42.3556 89.2408 42.2795 88.9737 42.29C88.7088 42.2975 88.4531 42.3915 88.2436 42.5583C88.0916 42.6806 88.0289 42.7961 88.0718 42.8301Z" fill="#263238"/>
<path d="M93.1758 44.1352C93.1784 44.2617 93.2288 44.3821 93.3164 44.4709C93.404 44.5596 93.5219 44.6098 93.6449 44.6107C93.705 44.6139 93.7651 44.6046 93.8216 44.5835C93.8782 44.5623 93.93 44.5297 93.9741 44.4876C94.0182 44.4455 94.0536 44.3947 94.0782 44.3382C94.1028 44.2818 94.1161 44.2208 94.1173 44.159C94.1156 44.0314 94.065 43.9096 93.9766 43.82C93.8882 43.7304 93.769 43.6801 93.6449 43.6801C93.5848 43.6774 93.5248 43.6871 93.4684 43.7087C93.412 43.7302 93.3604 43.7632 93.3167 43.8056C93.2729 43.8481 93.2379 43.8991 93.2137 43.9557C93.1895 44.0123 93.1766 44.0734 93.1758 44.1352Z" fill="#263238"/>
<path d="M93.184 42.7596C93.2435 42.8208 93.5937 42.5389 94.1024 42.5219C94.6112 42.5049 94.9911 42.7596 95.044 42.6951C95.0969 42.6306 95.0077 42.5525 94.8425 42.437C94.6184 42.2854 94.354 42.2094 94.0859 42.2197C93.8211 42.2277 93.5655 42.3216 93.3558 42.488C93.2038 42.617 93.1543 42.7325 93.184 42.7596Z" fill="#263238"/>
<path d="M91.3334 46.7024C91.0636 46.6226 90.7848 46.5792 90.5041 46.5733C90.372 46.5733 90.2498 46.5394 90.2266 46.4511C90.2111 46.3141 90.2364 46.1755 90.2993 46.0537C90.4149 45.7141 90.5306 45.3745 90.6561 45.0348C91.1484 43.571 91.4986 42.3687 91.4424 42.3517C91.3862 42.3348 90.9402 43.4997 90.4513 44.9635L90.1209 45.9824C90.0458 46.1467 90.0272 46.3323 90.068 46.5088C90.0885 46.5557 90.1191 46.5971 90.1575 46.6301C90.1958 46.663 90.2409 46.6866 90.2894 46.699C90.3622 46.7145 90.4364 46.7224 90.5107 46.7228C90.7848 46.75 91.061 46.7432 91.3334 46.7024Z" fill="#263238"/>
<path d="M91.0391 52.9074C92.8148 52.8819 94.5501 52.3581 96.0574 51.3926C96.0574 51.3926 94.8879 54.0825 91.0655 53.8515L91.0391 52.9074Z" fill="#765A5A"/>
<path d="M93.3603 40.015C93.3867 40.1644 93.8988 40.1814 94.477 40.3546C95.0551 40.5278 95.5044 40.769 95.6002 40.6569C95.6465 40.6026 95.6002 40.4565 95.4119 40.2901C95.3141 40.1647 95.1931 40.0606 95.0558 39.9836C94.9186 39.9067 94.7679 39.8585 94.6124 39.8418C94.3171 39.7539 94.0056 39.74 93.7039 39.801C93.4759 39.8519 93.3471 39.9436 93.3603 40.015Z" fill="#263238"/>
<path d="M88.0852 41.1771C88.181 41.2891 88.5213 41.1397 88.9409 41.0989C89.3604 41.0582 89.7238 41.0989 89.7965 40.9869C89.8263 40.9223 89.7635 40.8103 89.5983 40.7084C89.3787 40.5918 89.1306 40.5444 88.8849 40.5722C88.6392 40.6 88.407 40.7017 88.2174 40.8646C88.0786 40.9971 88.029 41.1329 88.0852 41.1771Z" fill="#263238"/>
<path d="M94.9481 36.7343C94.8731 37.0393 94.7242 37.3197 94.5153 37.5494C94.4077 37.6608 94.2641 37.7275 94.1118 37.7369C93.9594 37.7463 93.8091 37.6977 93.6893 37.6004C93.6063 37.692 93.5045 37.7634 93.3912 37.8094C93.2779 37.8555 93.1561 37.875 93.0346 37.8665C92.9131 37.8581 92.7949 37.8219 92.6887 37.7605C92.5825 37.6992 92.491 37.6144 92.4207 37.5121C92.2415 37.6834 92.0126 37.7895 91.7691 37.8141C91.5255 37.8386 91.2809 37.7802 91.0728 37.6479L89.9726 37.8959C89.5762 37.9842 89.0806 38.0385 88.8362 37.7023C88.78 37.6276 88.737 37.5291 88.6511 37.4883C88.5594 37.4612 88.4621 37.4612 88.3703 37.4883C88.2116 37.4975 88.0531 37.4656 87.9094 37.3956C87.7657 37.3256 87.6413 37.2197 87.5477 37.0875C87.3635 36.8216 87.225 36.5253 87.138 36.2113C86.9762 35.7358 86.8506 35.1245 87.2272 34.8019C87.3846 34.6887 87.5657 34.6154 87.7558 34.5879C88.1308 34.4744 88.525 34.4443 88.9121 34.4996C89.3818 34.6323 89.789 34.935 90.0585 35.3521C90.0199 35.2201 90.0327 35.0778 90.0944 34.9554C90.1561 34.833 90.2617 34.7402 90.3889 34.6966C90.5148 34.6553 90.6475 34.6404 90.7792 34.6526C90.9108 34.6649 91.0387 34.7041 91.1554 34.7679C91.5055 34.9287 91.8036 35.1891 92.0143 35.5185C92.3225 35.5166 92.6251 35.6034 92.8878 35.769C93.1505 35.9347 93.363 36.1726 93.501 36.4558C93.6383 36.3615 93.7932 36.2973 93.9558 36.2675C94.1184 36.2377 94.2853 36.2429 94.4459 36.2826C94.503 36.2913 94.5578 36.312 94.6067 36.3436C94.6556 36.3752 94.6976 36.4169 94.73 36.466C94.745 36.4908 94.7545 36.5187 94.7577 36.5477C94.7609 36.5767 94.7578 36.6061 94.7487 36.6337C94.7395 36.6614 94.7245 36.6865 94.7047 36.7075C94.6849 36.7284 94.6608 36.7445 94.6342 36.7547" fill="#263238"/>
<path d="M91.3939 36.958C91.4899 37.2114 91.503 37.4901 91.4314 37.7518C91.3598 38.0136 91.2073 38.2444 90.997 38.4092C90.7866 38.5741 90.5298 38.6642 90.2653 38.6658C90.0008 38.6675 89.7429 38.5806 89.5306 38.4184C89.4403 38.6755 89.2643 38.8913 89.0339 39.0275C88.8034 39.1637 88.5334 39.2114 88.2719 39.1622C88.2735 39.4858 88.1907 39.804 88.0321 40.0835C87.8734 40.3631 87.6448 40.5938 87.37 40.7517C87.5058 41.0811 87.5152 41.4512 87.3964 41.7875C87.3271 42.0055 87.1778 42.1871 86.9801 42.2936C86.8564 42.3379 86.7251 42.3556 86.5944 42.3457C86.4637 42.3358 86.3364 42.2984 86.2203 42.2358C86.0466 42.1692 85.8882 42.0663 85.7552 41.9336C85.6221 41.8009 85.5173 41.6413 85.4472 41.4649C85.383 41.286 85.3826 41.0895 85.4461 40.9104C85.5097 40.7313 85.633 40.5811 85.7941 40.4868C85.4746 40.1852 85.2231 39.8154 85.0574 39.4033C84.9433 39.1743 84.9219 38.9081 84.9979 38.663C85.0198 38.6045 85.054 38.5518 85.0981 38.5086C85.1421 38.4653 85.1949 38.4326 85.2527 38.4128C85.3105 38.393 85.3718 38.3866 85.4323 38.394C85.4927 38.4015 85.5509 38.4225 85.6025 38.4558C85.5058 38.271 85.4618 38.0619 85.4757 37.8525C85.4895 37.6431 85.5606 37.4421 85.6808 37.2724C85.8009 37.1028 85.9652 36.9715 86.1548 36.8936C86.3443 36.8158 86.5514 36.7945 86.7522 36.8324C86.756 36.6563 86.8085 36.485 86.9035 36.3385C86.9986 36.192 87.1323 36.0763 87.2889 36.0051C87.4456 35.9338 87.6187 35.9099 87.7881 35.9361C87.9575 35.9623 88.1162 36.0376 88.2455 36.1531" fill="#263238"/>
<path d="M95.7976 36.5332C95.8055 36.303 95.8947 36.0836 96.0485 35.916C96.2023 35.7485 96.4103 35.6443 96.6334 35.623C97.0832 35.5949 97.5309 35.7061 97.9186 35.9423C98.1294 35.6914 98.4098 35.5127 98.7221 35.4301C99.0344 35.3476 99.3638 35.3651 99.6662 35.4804C100.261 35.7249 100.641 36.3125 101.13 36.7336C101.412 36.9284 101.663 37.168 101.873 37.4434C101.974 37.5845 102.017 37.7599 101.995 37.9333C101.973 38.1066 101.887 38.2645 101.754 38.374C101.949 38.443 102.122 38.5646 102.255 38.7262C102.387 38.8877 102.475 39.0832 102.509 39.2919C102.543 39.5006 102.522 39.7148 102.447 39.9119C102.372 40.109 102.247 40.2817 102.085 40.4118C101.982 40.4933 101.857 40.5681 101.814 40.6971C101.786 40.8109 101.798 40.9308 101.847 41.0367C102.064 41.5252 102.248 42.0292 102.395 42.5447C102.501 43.0745 102.395 43.6995 101.956 43.9949C101.84 44.0731 101.695 44.1342 101.645 44.2666C101.615 44.3558 101.615 44.4526 101.645 44.5417C101.742 44.8319 101.866 45.1117 102.015 45.3772C102.165 45.6469 102.213 45.9634 102.151 46.2671C102.115 46.4166 102.022 46.5453 101.894 46.6249C101.766 46.7046 101.612 46.7285 101.467 46.6916C101.578 46.9774 101.62 47.2867 101.588 47.5927C101.556 47.8988 101.452 48.1922 101.285 48.4475C100.918 48.9298 99.7092 49.1505 98.9923 48.7022L98.9262 46.9667C99.0187 46.661 98.5595 45.0342 98.7511 44.7048C98.7511 44.7048 99.2566 45.8323 98.1168 45.6455C97.7468 45.7474 97.0332 44.6267 96.9836 44.2395C96.9715 44.0414 97.0141 43.8439 97.1064 43.6696C97.1988 43.4953 97.3371 43.3515 97.5056 43.2545C97.1887 42.9953 96.9704 42.6299 96.8888 42.222C96.8073 41.8142 96.8678 41.3899 97.0596 41.0232C96.8547 40.9935 96.6654 40.8941 96.522 40.7408C96.3785 40.5876 96.2892 40.3893 96.2683 40.1777C96.2474 39.9661 96.296 39.7534 96.4066 39.5735C96.5171 39.3937 96.683 39.2572 96.8779 39.1858C96.6221 39.1086 96.385 38.9768 96.182 38.799C95.9791 38.6212 95.8149 38.4015 95.7002 38.154C95.5854 37.9066 95.5228 37.6371 95.5162 37.3631C95.5096 37.0891 95.5594 36.8167 95.6621 36.5638" fill="#263238"/>
<path d="M101.306 36.8768C101.306 36.8768 101.362 36.9073 101.435 37.0058C101.533 37.1528 101.593 37.3238 101.607 37.5017C101.619 37.643 101.602 37.7854 101.556 37.9191C101.51 38.0528 101.436 38.1746 101.339 38.276C101.212 38.4072 101.053 38.5022 100.88 38.5516C100.706 38.601 100.523 38.6032 100.348 38.5579L100.44 38.4662C100.466 38.5663 100.471 38.6705 100.455 38.7727C100.44 38.8748 100.405 38.9727 100.352 39.0605C100.299 39.1483 100.229 39.2241 100.147 39.2833C100.064 39.3425 99.9712 39.384 99.8728 39.4051C99.7744 39.4263 99.6728 39.4267 99.5743 39.4063C99.4757 39.386 99.3822 39.3453 99.2994 39.2868C99.2166 39.2282 99.1462 39.153 99.0924 39.0656C99.0387 38.9783 99.0027 38.8807 98.9867 38.7787H99.1586C99.1333 38.9036 99.0777 39.02 98.9968 39.1168C98.9159 39.2136 98.8124 39.2878 98.696 39.3322C98.546 39.3955 98.3796 39.405 98.2236 39.3594C98.071 39.3108 97.9408 39.2071 97.8569 39.0673C97.7752 38.9398 97.7316 38.7904 97.7316 38.6377C97.7316 38.485 97.7752 38.3356 97.8569 38.2081L97.9659 38.3337C97.7406 38.4573 97.4932 38.5325 97.2388 38.5546C96.9843 38.5768 96.7281 38.5456 96.4858 38.4628C96.1743 38.3512 95.899 38.1532 95.6902 37.8906C95.4815 37.6281 95.3475 37.3112 95.3031 36.9752C95.2844 36.8823 95.2844 36.7863 95.3031 36.6934C95.343 37.0349 95.4558 37.3631 95.6335 37.6545C95.844 37.9744 96.1519 38.2134 96.5089 38.3337C96.7323 38.4051 96.9673 38.4295 97.2 38.4056C97.4327 38.3816 97.6583 38.3099 97.8635 38.1945L98.1939 38.0009L97.9692 38.3202C97.9069 38.4187 97.8738 38.5338 97.8738 38.6513C97.8738 38.7688 97.9069 38.8839 97.9692 38.9824C98.034 39.0866 98.1329 39.1635 98.2481 39.199C98.3633 39.2345 98.4871 39.2264 98.5969 39.176C98.6855 39.1423 98.7644 39.0865 98.8267 39.0136C98.889 38.9406 98.9327 38.8529 98.9537 38.7583L99.0495 38.2217L99.1288 38.7617C99.1443 38.8438 99.1759 38.9217 99.2217 38.9908C99.2676 39.0599 99.3266 39.1186 99.3952 39.1634C99.4639 39.2083 99.5407 39.2382 99.621 39.2515C99.7013 39.2647 99.7834 39.261 99.8622 39.2405C100.003 39.1901 100.122 39.0885 100.196 38.9547C100.269 38.8209 100.293 38.6642 100.262 38.5137L100.229 38.3813L100.358 38.4221C100.51 38.4656 100.671 38.4679 100.824 38.4286C100.978 38.3893 101.119 38.3098 101.233 38.1979C101.321 38.1103 101.391 38.0044 101.436 37.8874C101.482 37.7703 101.503 37.6446 101.498 37.5187C101.493 37.2906 101.426 37.0685 101.306 36.8768Z" fill="#455A64"/>
<path d="M87.5739 34.7916C87.5458 34.8603 87.5323 34.9344 87.5342 35.0089C87.5378 35.0499 87.5503 35.0896 87.5709 35.1249C87.5915 35.1602 87.6196 35.1902 87.6532 35.2127C87.6973 35.241 87.7482 35.256 87.8002 35.256C87.8522 35.256 87.9031 35.241 87.9472 35.2127L88.0992 35.1074L88.0265 35.2772C87.9753 35.415 87.9649 35.5653 87.9967 35.7091C88.0284 35.853 88.1009 35.984 88.2049 36.0855C88.3395 36.2043 88.5134 36.2653 88.6905 36.2558C88.8677 36.2463 89.0345 36.1671 89.1564 36.0346L89.2423 35.9361L89.2951 36.0584C89.38 36.2612 89.5133 36.4388 89.6826 36.5748C89.8519 36.7107 90.0518 36.8006 90.2638 36.8362C90.4759 36.8717 90.6932 36.8517 90.8957 36.7781C91.0983 36.7045 91.2795 36.5796 91.4227 36.415L91.4756 36.3504L91.5383 36.4048C91.8418 36.6661 92.2081 36.8386 92.5988 36.904C92.9068 36.9589 93.2223 36.9508 93.5272 36.8803C93.8003 36.8067 94.0642 36.7007 94.3135 36.5644C94.3135 36.5644 94.2606 36.6289 94.1384 36.7172C93.9579 36.8368 93.7607 36.9273 93.5536 36.9855C93.2311 37.0776 92.8934 37.0984 92.5625 37.0467C92.1421 36.9882 91.7456 36.8119 91.4161 36.5372H91.535C91.3741 36.7255 91.1693 36.8686 90.9398 36.9533C90.7103 37.0379 90.4637 37.0613 90.2231 37.0213C89.9824 36.9813 89.7556 36.8791 89.5638 36.7243C89.372 36.5696 89.2216 36.3673 89.1266 36.1365L89.2654 36.1603C89.1139 36.3233 88.9063 36.4188 88.6871 36.4264C88.4678 36.434 88.2545 36.3531 88.0926 36.201C87.9717 36.0789 87.8901 35.9216 87.8588 35.7504C87.8275 35.5792 87.8479 35.4022 87.9175 35.2433L87.9935 35.3112C87.9324 35.3485 87.8621 35.3667 87.7911 35.3637C87.7202 35.3607 87.6516 35.3365 87.5937 35.2942C87.5533 35.2622 87.5206 35.2211 87.4983 35.1739C87.4759 35.1268 87.4645 35.075 87.4649 35.0225C87.4847 34.8391 87.5739 34.7848 87.5739 34.7916Z" fill="#455A64"/>
<path d="M94.0579 32.5195C94.0579 32.5365 93.9786 32.4889 93.8431 32.4821C93.7491 32.4782 93.6555 32.495 93.5683 32.5313C93.4811 32.5676 93.4025 32.6226 93.3377 32.6927C93.2488 32.8018 93.1868 32.9313 93.1569 33.0702C93.127 33.2091 93.1301 33.3534 93.1659 33.4908C93.2654 33.8403 93.4496 34.1582 93.7011 34.4146L93.5722 34.5403C93.4863 34.4486 93.2848 34.5403 93.2419 34.6524C93.2116 34.726 93.196 34.8051 93.196 34.885C93.196 34.9649 93.2116 35.044 93.2419 35.1176C93.3454 35.3962 93.5028 35.6504 93.7044 35.8648C93.9092 36.0528 94.1303 36.2211 94.3651 36.3675C94.3651 36.3675 94.2792 36.3675 94.1438 36.3029C93.9547 36.2182 93.7797 36.1036 93.6251 35.9633C93.3941 35.747 93.2134 35.48 93.0965 35.1822C93.057 35.0872 93.0366 34.9849 93.0366 34.8816C93.0366 34.7783 93.057 34.676 93.0965 34.581C93.1387 34.4764 93.2161 34.3908 93.3145 34.3399C93.374 34.315 93.439 34.3072 93.5024 34.3174C93.5658 34.3276 93.6254 34.3553 93.6747 34.3976L93.5491 34.5233C93.2754 34.2424 93.0813 33.8901 92.9875 33.5044C92.9497 33.3417 92.9523 33.1719 92.995 33.0104C93.0377 32.849 93.1192 32.7012 93.232 32.5806C93.3111 32.5034 93.4066 32.446 93.5109 32.413C93.6152 32.38 93.7255 32.3723 93.8332 32.3904C94.005 32.4448 94.0612 32.5161 94.0579 32.5195Z" fill="#455A64"/>
<path d="M100.07 33.8918C99.8583 33.8055 99.6356 33.7517 99.409 33.7322C99.1633 33.7215 98.9196 33.7814 98.7053 33.9054C98.4366 34.0627 98.228 34.3095 98.1139 34.605L98.0577 34.7578L97.9685 34.622C97.8769 34.4851 97.7454 34.3815 97.593 34.326C97.4406 34.2706 97.2751 34.2661 97.12 34.3132C96.965 34.3603 96.8284 34.4566 96.7298 34.5883C96.6312 34.72 96.5756 34.8804 96.5711 35.0465V35.1518L96.472 35.1314C96.3235 35.1002 96.1702 35.1022 96.0225 35.1373C95.8748 35.1725 95.7363 35.24 95.6163 35.3352C95.4238 35.491 95.2924 35.7128 95.2463 35.9602C95.2148 36.1872 95.2294 36.4185 95.2892 36.6394C95.2892 36.6394 95.2397 36.5885 95.1967 36.473C95.1368 36.3036 95.1186 36.1216 95.1439 35.9432C95.1785 35.662 95.3154 35.4047 95.5271 35.2231C95.6626 35.1058 95.8221 35.0214 95.9936 34.9761C96.1652 34.9309 96.3445 34.9259 96.5182 34.9616L96.4158 35.0431C96.4188 34.8392 96.4852 34.6415 96.6051 34.479C96.725 34.3165 96.8922 34.1976 97.0825 34.1396C97.2727 34.0816 97.476 34.0876 97.6627 34.1566C97.8494 34.2257 98.0098 34.3542 98.1205 34.5235L97.9718 34.5405C98.1035 34.211 98.3447 33.9402 98.6524 33.7763C98.8916 33.65 99.1614 33.5981 99.4288 33.6269C99.6009 33.6446 99.7681 33.6965 99.921 33.7797C100.03 33.8408 100.076 33.885 100.07 33.8918Z" fill="#455A64"/>
<path d="M100.04 27.887C99.9528 27.7675 99.8396 27.6709 99.7094 27.6051C99.5558 27.5411 99.384 27.5411 99.2303 27.6051C99.1315 27.6443 99.0434 27.7073 98.9732 27.7889C98.9031 27.8704 98.853 27.9682 98.8273 28.0738L98.7513 28.4134L98.6951 28.0738C98.6616 27.8949 98.5791 27.7297 98.4574 27.5973C98.3357 27.465 98.1798 27.3711 98.008 27.3266C97.8072 27.2843 97.5984 27.3126 97.4151 27.4068C97.2318 27.501 97.0846 27.6557 96.997 27.8462L96.964 27.9277L96.8847 27.8904C96.7802 27.8452 96.6676 27.8232 96.5543 27.8258C96.3561 27.8228 96.1625 27.888 96.0045 28.0111C95.8465 28.1342 95.733 28.3081 95.6821 28.5051C95.6435 28.682 95.6539 28.8666 95.7124 29.0378C95.7708 29.2089 95.8748 29.3597 96.0125 29.473L96.2207 29.636L95.9597 29.6089C95.8301 29.5996 95.7004 29.6262 95.5842 29.686C95.468 29.7457 95.3695 29.8364 95.2989 29.9485C95.2451 30.0395 95.2129 30.1423 95.2049 30.2485C95.1968 30.3547 95.2132 30.4613 95.2527 30.5598C95.3258 30.7376 95.4474 30.8898 95.6029 30.998C95.5513 30.9921 95.5023 30.9721 95.4608 30.9402C95.336 30.8569 95.2364 30.7392 95.1734 30.6006C95.1229 30.4888 95.0984 30.3665 95.1019 30.2433C95.1053 30.1201 95.1366 29.9994 95.1932 29.8908C95.2716 29.749 95.3872 29.6327 95.5268 29.5552C95.6664 29.4777 95.8245 29.4422 95.9828 29.4527L95.9299 29.5885C95.7674 29.4573 95.6444 29.2814 95.5754 29.0812C95.5064 28.8809 95.4941 28.6647 95.5401 28.4575C95.6009 28.2231 95.7359 28.0161 95.9237 27.8692C96.1115 27.7222 96.3415 27.6437 96.5775 27.6458C96.7171 27.6457 96.8553 27.6746 96.9838 27.7307L96.8682 27.7749C96.9627 27.5666 97.1196 27.3948 97.3159 27.2848C97.5122 27.1747 97.7376 27.1321 97.9591 27.1632C98.1807 27.1944 98.3867 27.2976 98.5471 27.4577C98.7074 27.6179 98.8137 27.8266 98.8504 28.0534H98.715C98.7479 27.9274 98.8107 27.8119 98.8978 27.717C98.9848 27.6222 99.0934 27.551 99.2138 27.51C99.3601 27.4609 99.5179 27.4622 99.6634 27.5137C99.8089 27.5651 99.9341 27.664 100.02 27.7953C100.036 27.8394 100.046 27.887 100.04 27.887Z" fill="#455A64"/>
<path d="M105.18 29.1842C105.025 29.0747 104.84 29.0177 104.652 29.0212C104.546 29.0242 104.443 29.0525 104.35 29.1038C104.257 29.1551 104.177 29.228 104.117 29.3167C104.041 29.4329 103.998 29.5686 103.994 29.7085C103.989 29.8483 104.022 29.9867 104.09 30.108L104.388 30.6005L103.984 30.1963C103.869 30.0919 103.723 30.0302 103.57 30.0209C103.417 30.0117 103.265 30.0555 103.139 30.1454C103.003 30.2558 102.915 30.4166 102.893 30.5932C102.872 30.7697 102.918 30.948 103.023 31.0896L102.878 31.1813C102.787 31.0172 102.64 30.8946 102.465 30.8381C102.29 30.7817 102.101 30.7957 101.935 30.8772C101.77 30.9587 101.641 31.1017 101.574 31.2774C101.508 31.453 101.508 31.648 101.576 31.8232L101.444 31.796C101.489 31.742 101.513 31.6733 101.513 31.6024C101.513 31.5315 101.489 31.4629 101.444 31.4088C101.397 31.356 101.336 31.3179 101.269 31.2987C101.202 31.2795 101.131 31.28 101.064 31.3001C100.93 31.3487 100.811 31.4338 100.721 31.5462C100.63 31.6587 100.57 31.7943 100.549 31.9386L100.416 31.8911C100.44 31.8255 100.444 31.7542 100.429 31.6861C100.414 31.6179 100.38 31.5558 100.331 31.5073C100.289 31.4599 100.238 31.4226 100.181 31.3979C100.124 31.3732 100.062 31.3619 100 31.3647C99.8903 31.3749 99.7834 31.4075 99.6859 31.4605C99.5883 31.5136 99.502 31.5861 99.4319 31.6737C99.1941 31.9726 99.1016 32.19 99.1016 32.1764C99.1016 32.1628 99.1016 32.122 99.1544 32.0235C99.2144 31.8799 99.2909 31.7442 99.3824 31.6194C99.4565 31.517 99.55 31.431 99.6573 31.3668C99.7647 31.3026 99.8835 31.2614 100.007 31.2458C100.088 31.2391 100.17 31.2508 100.246 31.2802C100.323 31.3095 100.392 31.3557 100.449 31.4156C100.519 31.4823 100.567 31.5685 100.589 31.6633C100.61 31.7581 100.605 31.8574 100.572 31.9488L100.44 31.9013C100.474 31.7409 100.538 31.5888 100.628 31.453C100.728 31.2993 100.88 31.1892 101.054 31.1439C101.151 31.1147 101.254 31.1142 101.351 31.1424C101.448 31.1707 101.535 31.2265 101.602 31.3035C101.674 31.3917 101.711 31.5036 101.707 31.6182C101.704 31.7327 101.659 31.8419 101.583 31.9251L101.5 32.01L101.451 31.8979C101.402 31.7838 101.376 31.661 101.374 31.5365C101.372 31.412 101.394 31.2884 101.439 31.1728C101.484 31.0572 101.551 30.9519 101.635 30.8629C101.72 30.774 101.821 30.7033 101.933 30.6548C102.142 30.5776 102.371 30.5805 102.578 30.6628C102.784 30.7452 102.956 30.9015 103.059 31.1031L102.914 31.1982C102.78 31.0344 102.713 30.8234 102.727 30.6096C102.741 30.3959 102.836 30.1963 102.991 30.0529C103.146 29.9096 103.349 29.8338 103.557 29.8415C103.765 29.8493 103.962 29.94 104.107 30.0944L103.998 30.1827C103.919 30.0385 103.882 29.874 103.892 29.7089C103.902 29.5439 103.958 29.3853 104.054 29.2522C104.175 29.0939 104.349 28.9878 104.542 28.9545C104.735 28.9212 104.933 28.9632 105.098 29.0722C105.154 29.1333 105.184 29.1808 105.18 29.1842Z" fill="#263238"/>
<path d="M84.5984 47.4489C84.5984 47.4489 84.6546 47.4489 84.7405 47.4116C84.8012 47.3831 84.8557 47.3422 84.9005 47.2914C84.9454 47.2406 84.9798 47.181 85.0015 47.1161C85.0406 47.0181 85.0557 46.9116 85.0453 46.8062C85.0349 46.7007 84.9995 46.5996 84.942 46.5116C84.7761 46.28 84.5659 46.0858 84.3242 45.941L84.4068 45.8221C84.5716 45.9309 84.7624 45.991 84.9582 45.9958C85.154 46.0006 85.3473 45.9499 85.5169 45.8493C85.7069 45.7316 85.8512 45.5498 85.9253 45.3348C85.9994 45.1199 85.9987 44.8852 85.9233 44.6708C85.8763 44.5236 85.7998 44.3882 85.6986 44.2735C85.6151 44.1672 85.4983 44.094 85.3682 44.0663C85.2724 44.0663 85.1997 44.1987 85.2063 44.3176C85.2102 44.3774 85.2315 44.4347 85.2674 44.482C85.3034 44.5292 85.3523 44.5642 85.4079 44.5825C85.528 44.6181 85.6541 44.6278 85.778 44.6108C85.902 44.5939 86.0212 44.5507 86.1281 44.484C86.3283 44.3762 86.497 44.2156 86.617 44.0187C86.789 43.7253 86.8469 43.376 86.7789 43.0406C86.7294 42.8029 86.6534 42.684 86.6699 42.6738C86.7555 42.7698 86.8157 42.8868 86.845 43.0135C86.8957 43.1899 86.911 43.3751 86.89 43.5579C86.869 43.7406 86.8121 43.917 86.7228 44.0765C86.5965 44.2978 86.4152 44.4807 86.1975 44.6063C86.0721 44.6865 85.9316 44.7386 85.7853 44.7591C85.639 44.7796 85.4901 44.768 85.3484 44.7252C85.2675 44.6948 85.1949 44.6447 85.137 44.5791C85.0758 44.5062 85.0408 44.4139 85.0378 44.3176C85.0334 44.2213 85.0563 44.1257 85.1039 44.0425C85.1311 43.9962 85.1687 43.9572 85.2135 43.9289C85.2584 43.9005 85.3091 43.8836 85.3616 43.8795C85.4588 43.878 85.5539 43.909 85.6325 43.9678C85.7062 44.0158 85.7738 44.0728 85.834 44.1376C85.9563 44.2707 86.0467 44.4311 86.0983 44.6063C86.1842 44.865 86.1842 45.1457 86.0983 45.4044C86.0108 45.6533 85.8382 45.8609 85.6127 45.9885C85.416 46.104 85.1916 46.1599 84.9653 46.1497C84.739 46.1394 84.5202 46.0636 84.3341 45.9308L84.42 45.8085C84.6742 45.9684 84.8909 46.1841 85.0544 46.4402C85.1179 46.544 85.1545 46.6628 85.1609 46.7852C85.1673 46.9076 85.1431 47.0297 85.0907 47.1399C85.0607 47.2122 85.0155 47.2768 84.9584 47.329C84.9013 47.3813 84.8337 47.4199 84.7603 47.4421C84.7091 47.4653 84.6513 47.4678 84.5984 47.4489Z" fill="#263238"/>
<path d="M94.5218 30.2812C94.5218 30.2812 94.4887 30.3152 94.4193 30.3627C94.3137 30.4301 94.2033 30.4891 94.089 30.5393C93.8989 30.6258 93.6862 30.6449 93.4844 30.5937C93.357 30.5537 93.2427 30.4785 93.154 30.3763C93.0996 30.3188 93.0595 30.2486 93.0371 30.1717C93.0146 30.0949 93.0106 30.0136 93.0252 29.9348L93.1144 30.0095C93.0373 30.0439 92.9543 30.0619 92.8703 30.0626C92.7863 30.0632 92.703 30.0464 92.6254 30.0132C92.5479 29.9799 92.4777 29.9309 92.419 29.8691C92.3603 29.8073 92.3143 29.734 92.2838 29.6535C92.2534 29.573 92.239 29.487 92.2416 29.4007C92.2442 29.3144 92.2638 29.2295 92.2991 29.1511C92.3343 29.0727 92.3847 29.0025 92.447 28.9445C92.5093 28.8866 92.5824 28.8422 92.6618 28.814L92.6981 28.977C92.5289 28.9814 92.3639 28.922 92.2343 28.81C92.1047 28.6981 92.0194 28.5412 91.9944 28.3691C91.9719 28.1877 92.0117 28.0039 92.1071 27.8495C92.2024 27.6951 92.3472 27.5797 92.5164 27.5234C92.654 27.4684 92.8028 27.4497 92.9492 27.4691L92.8996 27.6389C92.7815 27.5881 92.6765 27.5099 92.5927 27.4104C92.509 27.3109 92.4487 27.1928 92.4167 27.0654C92.3848 26.938 92.3819 26.8047 92.4084 26.676C92.4349 26.5472 92.49 26.4266 92.5695 26.3234C92.6489 26.2202 92.7505 26.1373 92.8663 26.0813C92.9821 26.0252 93.109 25.9974 93.237 26.0002C93.3649 26.0029 93.4905 26.0361 93.604 26.0971C93.7174 26.1581 93.8155 26.2452 93.8907 26.3517H93.7751C93.8892 26.2162 94.0375 26.1156 94.2036 26.0611C94.3697 26.0065 94.5473 26.0002 94.7167 26.0426C94.8446 26.0765 94.9631 26.1404 95.0629 26.2294C95.1626 26.3184 95.2409 26.43 95.2915 26.5555C95.3584 26.7099 95.3813 26.8807 95.3576 27.0479C95.3534 27.1075 95.3341 27.1649 95.3014 27.2144C95.334 27.0019 95.3041 26.7843 95.2155 26.5894C95.165 26.482 95.0915 26.3877 95.0006 26.3136C94.9096 26.2395 94.8035 26.1875 94.6902 26.1615C94.5438 26.1287 94.3915 26.138 94.2499 26.1883C94.1083 26.2386 93.9829 26.3281 93.8874 26.4468L93.8313 26.5215L93.7751 26.4434C93.6493 26.2972 93.4722 26.2083 93.2826 26.1962C93.0931 26.1841 92.9066 26.2498 92.7642 26.3789C92.6951 26.4597 92.6447 26.5555 92.6167 26.6592C92.5887 26.7629 92.5839 26.8717 92.6027 26.9775C92.6214 27.0834 92.6632 27.1835 92.725 27.2704C92.7867 27.3573 92.8667 27.4287 92.9591 27.4793L93.4613 27.7204L92.9096 27.6525C92.7921 27.6367 92.6728 27.6519 92.5626 27.6966C92.4311 27.7377 92.3176 27.8246 92.2417 27.9423C92.1657 28.0601 92.132 28.2014 92.1464 28.3419C92.1651 28.4704 92.2274 28.588 92.3224 28.6738C92.4173 28.7596 92.5387 28.808 92.6651 28.8106L93.3754 28.7393L92.7146 28.977C92.6526 29.0023 92.5962 29.0401 92.5488 29.0883C92.5014 29.1365 92.4639 29.194 92.4386 29.2574C92.4133 29.3208 92.4007 29.3888 92.4016 29.4574C92.4025 29.5259 92.4168 29.5936 92.4437 29.6563C92.5033 29.763 92.5975 29.8449 92.7097 29.8878C92.822 29.9306 92.9453 29.9316 93.0582 29.8906L93.1772 29.8363L93.1507 29.9653C93.1412 30.083 93.172 30.2003 93.2378 30.2971C93.3035 30.3938 93.4001 30.4639 93.5108 30.4952C93.6906 30.5448 93.8809 30.5365 94.0559 30.4714C94.3566 30.3627 94.5152 30.2642 94.5218 30.2812Z" fill="#263238"/>
<path d="M98.3516 43.8667C98.4044 43.8362 100.433 42.9905 100.582 45.1879C100.73 47.3853 98.5531 47.0898 98.5432 47.0287C98.5333 46.9675 98.3516 43.8667 98.3516 43.8667Z" fill="#CBA180"/>
<path d="M99.142 46.1452C99.142 46.1452 99.1817 46.169 99.2445 46.1961C99.3346 46.233 99.4351 46.233 99.5253 46.1961C99.6577 46.096 99.7618 45.9614 99.8269 45.8062C99.8919 45.651 99.9155 45.4808 99.8953 45.3131C99.8867 45.1246 99.8382 44.9403 99.7533 44.773C99.7283 44.7057 99.688 44.6456 99.6356 44.5977C99.5833 44.5498 99.5205 44.5156 99.4526 44.4979C99.4086 44.4899 99.3633 44.4977 99.3242 44.5199C99.2851 44.5422 99.2546 44.5776 99.2379 44.6202C99.2147 44.6813 99.2379 44.7255 99.2379 44.7289C99.2379 44.7323 99.1883 44.6983 99.1982 44.6032C99.2081 44.5486 99.2348 44.4986 99.2742 44.4606C99.3016 44.4356 99.3335 44.4165 99.368 44.4042C99.4026 44.392 99.4392 44.3869 99.4757 44.3892C99.5648 44.4007 99.6495 44.4354 99.7218 44.4901C99.7941 44.5448 99.8516 44.6177 99.8887 44.7017C99.992 44.8863 100.051 45.0936 100.061 45.3063C100.085 45.5013 100.052 45.6993 99.9672 45.8753C99.8819 46.0513 99.7476 46.1973 99.5815 46.2946C99.5274 46.3137 99.47 46.3208 99.4131 46.3156C99.3562 46.3103 99.301 46.2928 99.2511 46.2641C99.1487 46.1995 99.1354 46.152 99.142 46.1452Z" fill="#765A5A"/>
<path d="M92.8081 47.4256C92.7205 47.3423 92.615 47.2813 92.5002 47.2477C92.3854 47.2141 92.2645 47.2087 92.1473 47.2321C92.0313 47.2567 91.9226 47.3092 91.8302 47.3854C91.7377 47.4616 91.6641 47.5591 91.6154 47.6702C91.5754 47.7615 91.5547 47.8604 91.5547 47.9606C91.5547 48.0607 91.5754 48.1597 91.6154 48.251C91.6723 48.3789 91.7673 48.4849 91.8867 48.5536C92.006 48.6223 92.1436 48.6501 92.2794 48.6331C92.4152 48.6161 92.5422 48.5551 92.642 48.4589C92.7418 48.3627 92.8092 48.2363 92.8345 48.0981C92.8874 47.823 92.97 47.497 92.7321 47.3645" fill="#765A5A"/>
<path d="M91.9602 43.6386C91.9859 43.4397 92.0223 43.2424 92.0692 43.0476C92.2155 42.5241 92.5285 42.0661 92.9579 41.7469C93.251 41.5262 93.5905 41.3796 93.949 41.3189C94.3596 41.2509 94.7804 41.2966 95.1681 41.4514C95.5979 41.6193 95.9686 41.9163 96.2319 42.3039C96.5177 42.7173 96.6674 43.2139 96.6591 43.7211C96.6508 44.2283 96.4849 44.7195 96.1856 45.1228C96.0466 45.3157 95.8781 45.4843 95.6868 45.622C95.506 45.757 95.3067 45.8635 95.0954 45.9379C94.7873 46.0467 94.4606 46.0886 94.136 46.0609C93.8114 46.0331 93.4959 45.9364 93.2095 45.7767C92.9231 45.6171 92.6722 45.398 92.4725 45.1335C92.2727 44.8689 92.1287 44.5646 92.0494 44.2397C92.0094 44.0445 91.9796 43.8473 91.9602 43.6488C91.9429 43.8514 91.9574 44.0555 92.0031 44.2533C92.1031 44.7165 92.3307 45.1403 92.6588 45.474C92.9869 45.8077 93.4016 46.0371 93.8532 46.1349C94.2787 46.2272 94.7206 46.199 95.1317 46.0534C95.3548 45.9742 95.5644 45.8596 95.7528 45.7137C95.9574 45.5769 96.1383 45.4059 96.2881 45.2077C96.6047 44.7856 96.7807 44.27 96.7902 43.7371C96.7965 43.2034 96.6381 42.6814 96.3376 42.2461C96.198 42.0398 96.0273 41.8575 95.8321 41.7061C95.5659 41.4976 95.2606 41.348 94.9353 41.2668C94.6101 41.1855 94.272 41.1744 93.9424 41.234C93.4878 41.3159 93.0658 41.5309 92.7271 41.8532C92.3884 42.1755 92.1473 42.5914 92.0328 43.051C91.9783 43.2417 91.9538 43.44 91.9602 43.6386Z" fill="#455A64"/>
<path d="M85.9923 43.5337C86.0179 43.3361 86.0532 43.14 86.098 42.9461C86.2448 42.4209 86.559 41.9617 86.99 41.642C87.3053 41.4073 87.6727 41.2573 88.0587 41.2057C88.4446 41.1541 88.8371 41.2025 89.2002 41.3465C89.4097 41.4286 89.6058 41.5431 89.7817 41.6861C89.9683 41.8305 90.1312 42.0048 90.264 42.2023C90.5499 42.6158 90.6996 43.1124 90.6912 43.6196C90.6829 44.1268 90.517 44.618 90.2178 45.0213C90.0787 45.2142 89.9103 45.3828 89.7189 45.5205C89.5386 45.6561 89.3392 45.7626 89.1276 45.8364C88.7336 45.9758 88.3109 46.0063 87.9019 45.9247C87.5405 45.854 87.2007 45.6956 86.9108 45.4628C86.4921 45.1279 86.1935 44.6596 86.0617 44.1315C85.9758 43.7545 85.9923 43.5371 85.9758 43.5371C85.9585 43.7397 85.973 43.9438 86.0188 44.1416C86.1188 44.6042 86.3461 45.0275 86.6735 45.3611C87.0009 45.6947 87.4147 45.9245 87.8655 46.0232C88.2909 46.1151 88.7323 46.0881 89.1441 45.9451C89.3675 45.8644 89.5779 45.7499 89.7685 45.6055C89.97 45.4629 90.1474 45.2874 90.2938 45.0858C90.6088 44.6617 90.7835 44.1452 90.7924 43.6117C90.8013 43.0782 90.644 42.5558 90.3433 42.1208C90.2025 41.9144 90.0307 41.7322 89.8345 41.5808C89.6494 41.4354 89.4431 41.3208 89.2234 41.2412C88.8416 41.0911 88.4289 41.0436 88.0243 41.103C87.6196 41.1624 87.2364 41.3269 86.9108 41.5808C86.4711 41.9142 86.1581 42.3945 86.0254 42.9393C85.9836 43.1344 85.9724 43.335 85.9923 43.5337Z" fill="#455A64"/>
<path d="M96.6875 43.2383C97.2388 43.5529 97.845 43.7525 98.4715 43.8258C98.1862 43.6924 97.8899 43.5856 97.5861 43.5066C97.2957 43.3874 96.9948 43.2976 96.6875 43.2383Z" fill="#455A64"/>
<path d="M90.5078 42.9396C90.7683 42.9034 91.0315 42.8909 91.2941 42.9022C91.5521 42.9558 91.8052 43.0319 92.0507 43.1298C91.856 42.9224 91.5907 42.8006 91.3106 42.7901C91.0343 42.7326 90.747 42.7861 90.5078 42.9396Z" fill="#455A64"/>
<path d="M95.1328 45.5202C95.2694 45.5052 95.4001 45.455 95.5128 45.3742C95.8022 45.2039 96.0411 44.9559 96.204 44.6568C96.3669 44.3577 96.4478 44.0187 96.4378 43.6761C96.4467 43.5362 96.4217 43.3961 96.3651 43.2686C96.3573 43.4043 96.3573 43.5404 96.3651 43.6761C96.3466 43.9966 96.2585 44.3087 96.1074 44.5897C95.9499 44.8679 95.7344 45.1068 95.4764 45.2893C95.3576 45.3593 95.2428 45.4364 95.1328 45.5202Z" fill="white"/>
<path d="M89.2268 45.3439C89.3548 45.3292 89.4768 45.28 89.5803 45.2012C89.8495 45.0371 90.0717 44.8028 90.2245 44.522C90.3754 44.2435 90.4561 43.9306 90.4591 43.6118C90.4695 43.479 90.4468 43.3458 90.393 43.2246C90.393 43.2246 90.393 43.374 90.3732 43.605C90.3473 43.9065 90.2607 44.1991 90.1188 44.4643C89.9741 44.7316 89.7746 44.9634 89.534 45.1435C89.349 45.2658 89.2202 45.3269 89.2268 45.3439Z" fill="white"/>
<path d="M93.3486 47.4361C93.3816 47.5278 92.9224 47.7757 92.3245 48.0236C91.7265 48.2716 91.2144 48.3632 91.1814 48.2783C91.1483 48.1934 91.6043 47.9387 92.2022 47.6908C92.8002 47.4429 93.3156 47.3444 93.3486 47.4361Z" fill="#263238"/>
<path d="M99.2213 54.5879C99.2213 54.5879 104.547 56.4151 105.287 57.3898C107.418 60.151 108.842 65.9247 108.931 69.6607C109.02 73.3966 108.326 87.2739 107.216 87.8954C106.106 88.5169 88.1373 86.0037 88.1373 86.0037C88.0477 85.1598 88.0588 84.3078 88.1703 83.4666C88.656 80.4609 88.5304 76.2121 87.9259 74.7619C87.3213 73.3117 85.8049 71.8581 85.9073 70.0071C86.0097 68.1561 86.7927 60.922 87.1627 59.9371C87.5509 59.0353 88.0304 58.1781 88.5932 57.3796L91.2164 56.0211C91.2164 56.0211 91.2164 59.0778 93.8197 58.6533C96.423 58.2287 99.2213 54.5879 99.2213 54.5879Z" fill="#E0E0E0"/>
<path d="M106.765 87.886C106.765 87.886 108.275 92.3996 107.032 95.154C105.79 97.9084 104.092 98.9851 99.5196 99.4538C94.9473 99.9224 89.6514 99.9938 83.8336 97.5077C78.0157 95.0216 71.8774 92.3351 71.8774 92.3351L59.0986 116.289C56.3796 117.756 54.8335 116.853 54.1133 114.275C54.1133 114.275 62.9904 88.5041 64.2293 86.2897C65.4682 84.0753 66.1686 83.0123 68.0021 82.856C70.2949 82.6557 106.728 88.049 106.765 87.886Z" fill="#CBA180"/>
<path d="M73.4258 83.3076L76.3165 101.067C76.3165 101.067 100.837 101.267 102.677 100.53C104.2 99.9222 107.226 97.3716 107.524 94.5493C107.821 91.727 107.134 87.9367 107.134 87.9367L73.4258 83.3076Z" fill="#263238"/>
<path d="M72.2362 92.6035C72.2362 92.6035 68.2948 93.8907 67.5515 95.9319C66.8082 97.9731 67.1385 101.288 67.5515 103.404C67.9645 105.52 75.6489 125.565 75.6489 125.565L81.8798 124.41C81.8798 124.41 81.6452 123.999 81.3611 122.396C80.6508 118.351 79.3954 110.264 79.0485 108.074C78.5529 105.017 76.3295 101.169 76.3295 101.169L75.1336 93.8194L72.2362 92.6035Z" fill="#CBA180"/>
<path d="M72.2329 92.4908C72.2329 92.4908 72.0215 92.5485 71.6448 92.6538C71.1115 92.7975 70.5927 92.9931 70.0954 93.238C69.3618 93.6011 68.7204 94.1348 68.2222 94.7969C67.9387 95.1911 67.7108 95.6244 67.5449 96.0841C67.3729 96.5829 67.2566 97.1002 67.198 97.626C67.077 98.6426 67.097 99.6718 67.2575 100.683C67.3929 101.627 67.5185 102.476 67.6473 103.186C67.7762 103.896 67.9017 104.463 68.0074 104.85C68.1132 105.237 68.1891 105.444 68.1759 105.451C68.1469 105.405 68.1226 105.356 68.1032 105.305C68.0603 105.207 68.0041 105.06 67.9414 104.87C67.7738 104.325 67.6359 103.771 67.5284 103.209C67.383 102.5 67.2443 101.651 67.1022 100.71C66.928 99.68 66.9024 98.6295 67.0262 97.592C67.088 97.0522 67.2088 96.5213 67.3863 96.0093C67.5636 95.5347 67.8062 95.0887 68.1066 94.6848C68.624 94.0087 69.2912 93.4695 70.0525 93.1123C70.5605 92.8746 71.0922 92.6946 71.6382 92.5757C71.7853 92.539 71.9342 92.5107 72.0842 92.4908C72.1334 92.4822 72.1837 92.4822 72.2329 92.4908Z" fill="#765A5A"/>
<path d="M75.0793 93.7031C75.0562 93.7506 74.3162 93.3634 73.368 92.9966C72.4199 92.6298 71.6237 92.3819 71.6369 92.3174C72.8648 92.5154 74.038 92.9783 75.0793 93.6759V93.7031Z" fill="#765A5A"/>
<path d="M62.7031 81.0552C63.1392 81.0009 74.4082 85.1851 74.4082 85.1851L94.8417 84.9032L83.6884 81.1673L62.7031 81.0552Z" fill="#455A64"/>
<path d="M66.2266 81.5273L74.1522 84.4414L89.1511 83.7791L82.0977 81.7413L66.2266 81.5273Z" fill="white"/>
<path d="M88.5935 57.3672C87.5636 57.9129 86.7583 58.8203 86.3239 59.9246C85.1345 62.8488 83.3505 74.1652 83.3505 74.1652C83.3505 74.1652 81.8011 74.4302 81.8671 76.3626L78.6328 79.0253L79.7693 82.6186C79.7693 82.6186 83.889 82.6186 85.1312 82.2213C86.3734 81.8239 88.1277 80.3567 88.3292 79.9559C88.5308 79.5552 88.7356 63.3141 88.7356 63.3141L88.5935 57.3672Z" fill="#E0E0E0"/>
<path d="M78.6334 78.8749L75.8847 77.7881L73.7241 78.5591C73.5449 78.8488 73.4311 79.1761 73.3911 79.517C73.3511 79.8579 73.3858 80.2036 73.4928 80.5289C73.4928 80.5289 73.3309 81.7618 73.5159 82.1455C73.7009 82.5293 73.9157 83.0557 74.104 83.1339C74.2923 83.212 75.1149 83.4531 75.1149 83.4531H78.5012L79.7864 82.604L78.6334 78.8749Z" fill="#CBA180"/>
<path d="M75.1445 73.9984V82.1495H75.9869L75.8185 73.9984C75.8185 73.9521 75.8094 73.9062 75.7916 73.8636C75.7737 73.821 75.7476 73.7826 75.7148 73.7508C75.682 73.719 75.6432 73.6944 75.6008 73.6786C75.5584 73.6628 75.5133 73.656 75.4683 73.6588C75.3818 73.6606 75.2995 73.6972 75.2389 73.7607C75.1784 73.8242 75.1445 73.9095 75.1445 73.9984Z" fill="#263238"/>
<path d="M76.1356 79.2422C76.3338 79.3407 76.5651 79.5037 76.5254 79.7279C76.4858 79.952 76.2314 80.0132 76.0431 80.1049C75.8811 80.1841 75.7446 80.3093 75.6497 80.4659C75.5549 80.6224 75.5057 80.8036 75.5079 80.9879C75.519 81.1715 75.5905 81.3457 75.7105 81.4821C75.8306 81.6185 75.9921 81.7089 76.1686 81.7385C76.4364 81.7429 76.6996 81.6661 76.9252 81.5178C77.4517 81.2354 77.9633 80.9247 78.4581 80.5872" fill="#CBA180"/>
<path d="M78.4468 80.5876C78.2225 80.7825 77.9802 80.9542 77.7233 81.1004C77.492 81.2499 77.2178 81.4401 76.9039 81.6167C76.7328 81.7175 76.5462 81.7875 76.3522 81.8238C76.2402 81.8403 76.126 81.8316 76.0176 81.7981C75.9092 81.7647 75.8092 81.7074 75.7245 81.6302C75.5509 81.4807 75.4407 81.2675 75.4173 81.0359C75.4001 80.823 75.4524 80.6103 75.5659 80.4314C75.6654 80.2721 75.8046 80.1431 75.969 80.0578C76.1032 80.0027 76.2334 79.938 76.3588 79.8642C76.4011 79.8372 76.4334 79.7966 76.4507 79.7486C76.4681 79.7007 76.4694 79.6482 76.4546 79.5993C76.4241 79.5178 76.3727 79.4462 76.306 79.3922C76.1936 79.2971 76.1176 79.2563 76.1242 79.2427C76.1309 79.2292 76.2135 79.2427 76.3456 79.3378C76.434 79.3905 76.5044 79.47 76.5471 79.5654C76.5736 79.6351 76.5769 79.7118 76.5566 79.7837C76.5363 79.8555 76.4935 79.9185 76.4348 79.9627C76.3085 80.0499 76.1747 80.1249 76.0351 80.1869C75.8975 80.2679 75.7835 80.3851 75.7047 80.5265C75.6135 80.6752 75.5728 80.8508 75.589 81.0257C75.6107 81.2115 75.699 81.3823 75.8368 81.5046C75.9041 81.5648 75.9831 81.6096 76.0686 81.6359C76.154 81.6623 76.244 81.6696 76.3324 81.6574C76.5088 81.6283 76.6788 81.5674 76.8346 81.4774L77.6638 80.9986C77.911 80.8354 78.1733 80.6978 78.4468 80.5876Z" fill="#765A5A"/>
<path d="M75.1425 79.415L74.5842 79.8498L75.6381 81.4936C75.7241 81.6133 75.791 81.7463 75.8363 81.8876C75.8565 81.9594 75.8595 82.0352 75.8451 82.1085C75.8308 82.1818 75.7994 82.2505 75.7537 82.3087C75.7036 82.3569 75.6429 82.392 75.5767 82.4109C75.5106 82.4299 75.441 82.4321 75.3738 82.4174C75.239 82.387 75.1118 82.328 75.0005 82.2442C74.3964 81.7851 73.8754 81.2207 73.4609 80.5766" fill="#CBA180"/>
<path d="M73.4609 80.5596C73.6869 80.7904 73.8988 81.0354 74.0953 81.2932C74.3214 81.556 74.5714 81.796 74.8419 82.0099C74.992 82.1366 75.1617 82.2365 75.344 82.3054C75.3844 82.3218 75.4278 82.3292 75.4712 82.3274C75.5146 82.3255 75.5571 82.3142 75.596 82.2944C75.6349 82.2745 75.6694 82.2465 75.6971 82.2121C75.7248 82.1778 75.7452 82.1378 75.757 82.0948C75.8065 81.8706 75.648 81.6533 75.5158 81.4427L75.1425 80.8347L74.5479 79.8634L74.5214 79.8192L74.5611 79.792C74.7389 79.6455 74.9317 79.5191 75.1359 79.415C74.9827 79.5884 74.8109 79.7433 74.6238 79.8769V79.8056L75.2581 80.7498L75.648 81.3476C75.7249 81.455 75.7934 81.5686 75.8528 81.6872C75.9219 81.8252 75.9451 81.9827 75.9189 82.1355C75.9048 82.2051 75.8747 82.2701 75.831 82.3251C75.7872 82.38 75.7313 82.4234 75.6678 82.4514C75.5493 82.5018 75.4175 82.509 75.2945 82.4718C75.0902 82.3959 74.9018 82.2806 74.7395 82.1321C74.4651 81.9064 74.2158 81.6501 73.9962 81.368C73.7856 81.1226 73.6058 80.851 73.4609 80.5596Z" fill="#765A5A"/>
<path d="M75.7578 82.1396C76.3657 82.1872 76.9714 82.2472 77.5749 82.3197C77.7753 82.3216 77.968 82.3989 78.1167 82.537C78.1807 82.631 78.2122 82.7442 78.2063 82.8588C78.2003 82.9733 78.1571 83.0824 78.0837 83.1687C77.932 83.3391 77.7229 83.4436 77.4989 83.4608" fill="#CBA180"/>
<path d="M77.4989 83.4608C77.4989 83.4268 77.7202 83.4166 77.9614 83.2094C78.0269 83.1507 78.0759 83.075 78.1032 82.9901C78.1305 82.9053 78.1351 82.8145 78.1167 82.7272C78.0803 82.5336 77.8623 82.4385 77.6145 82.4147C76.989 82.3792 76.3677 82.2871 75.7578 82.1396C76.3861 82.1111 77.0157 82.1453 77.6376 82.2415C77.7734 82.2524 77.9059 82.2905 78.0275 82.3536C78.0899 82.3884 78.1441 82.4368 78.1864 82.4955C78.2286 82.5542 78.2578 82.6217 78.2719 82.6932C78.2926 82.8076 78.2819 82.9257 78.241 83.0342C78.2002 83.1428 78.1308 83.2375 78.0407 83.3079C77.9261 83.3949 77.792 83.451 77.6509 83.4709C77.5518 83.4811 77.4989 83.4709 77.4989 83.4608Z" fill="#765A5A"/>
<path d="M95.0478 68.982C94.7224 68.9798 94.3985 69.0268 94.0864 69.1212C93.8023 69.2231 93.5875 69.4167 93.6305 69.6136C93.6734 69.8106 93.8915 69.9261 94.1459 70.0042C94.4198 70.0736 94.6998 70.1146 94.9817 70.1265C96.5774 70.2487 98.1863 70.3268 99.7952 70.354L99.7159 70.1231C98.5035 69.3216 96.8417 68.931 95.0478 68.982Z" fill="#C4D0A1"/>
<path d="M99.4859 69.2369C98.2175 68.5712 97.1058 67.6288 96.2285 66.4756C96.1189 66.35 96.0367 66.2018 95.9873 66.0409C95.9639 65.9601 95.9626 65.8742 95.9836 65.7928C96.0046 65.7113 96.047 65.6373 96.1062 65.579C96.321 65.4024 96.6315 65.5586 96.8529 65.7216C97.9982 66.587 98.9009 67.7481 99.4694 69.0874" fill="#C4D0A1"/>
<path d="M90.6412 80.8484C90.4713 80.8715 90.3106 80.9406 90.1753 81.0488C90.1067 81.1032 90.0617 81.1833 90.0499 81.2716C90.0382 81.3599 90.0607 81.4494 90.1126 81.5208C90.2025 81.6062 90.3205 81.6535 90.4429 81.6533C92.134 81.8708 93.851 81.6908 95.4646 81.1269C93.9142 80.5699 92.2425 80.4734 90.6412 80.8484Z" fill="#C4D0A1"/>
<path d="M94.1716 78.9767L91.7467 75.6076C91.5485 75.3325 91.2379 75.02 90.934 75.1627C90.63 75.3053 90.6466 75.7163 90.7226 76.0287C91.0459 77.1642 91.6829 78.1788 92.5561 78.9495C93.4589 79.7659 94.4332 80.4947 95.4667 81.1265C95.2156 80.3012 94.6705 79.6729 94.1716 78.9767Z" fill="#C4D0A1"/>
<path d="M97.8687 75.5201C97.6737 75.4081 97.4292 75.5371 97.2508 75.6764C96.4692 76.3075 95.884 77.1596 95.5671 78.128C95.2501 79.0964 95.2153 80.1389 95.4669 81.1274C96.0636 79.4864 96.8465 77.9236 97.7993 76.4711C97.9096 76.3306 97.9916 76.169 98.0404 75.9956C98.0619 75.9078 98.0569 75.8154 98.0262 75.7305C97.9956 75.6456 97.9406 75.5723 97.8687 75.5201Z" fill="#C4D0A1"/>
<path d="M102.708 56.208C101.891 56.6022 101.103 57.0562 100.349 57.5665C99.5945 58.0795 98.9584 58.7566 98.4861 59.55C98.441 59.615 98.4136 59.6912 98.4067 59.7707C98.4038 59.8106 98.4143 59.8504 98.4366 59.8832C98.4589 59.916 98.4915 59.9399 98.529 59.9507C98.5635 59.9519 98.5977 59.9455 98.6296 59.932C98.6615 59.9186 98.6903 59.8983 98.714 59.8726C100.127 58.7329 101.476 57.5116 102.754 56.2148L102.708 56.208Z" fill="#C4D0A1"/>
<path d="M97.9419 56.3311C97.8295 56.3549 97.7007 56.3922 97.6577 56.5043C97.6407 56.5665 97.6472 56.6329 97.6761 56.6903C97.7049 56.7477 97.7538 56.7917 97.813 56.8134C97.9326 56.8524 98.06 56.8595 98.183 56.8337L102.729 56.2666C101.113 56.1545 99.4979 55.9949 97.9419 56.3311Z" fill="#C4D0A1"/>
<path d="M86.8146 65.2262C89.0595 65.2996 91.2748 64.6836 93.1776 63.4567C93.2511 63.4161 93.3118 63.3549 93.3527 63.2801C93.3686 63.21 93.3585 63.1363 93.3242 63.0734C93.29 63.0106 93.2342 62.9632 93.1677 62.9405C93.0315 62.9014 92.8876 62.9014 92.7514 62.9405C90.646 63.3092 88.6279 64.086 86.8047 65.2296" fill="#C4D0A1"/>
<path d="M88.661 70.0317C88.0003 68.3811 87.4849 66.8596 86.8374 65.209L86.7812 65.2463C86.9993 66.9445 87.1744 68.6426 87.703 70.2661C87.7558 70.4864 87.8614 70.6895 88.0102 70.857C88.086 70.9393 88.1864 70.9931 88.2954 71.0097C88.4044 71.0263 88.5157 71.0049 88.6115 70.9487C88.6745 70.8969 88.7239 70.8296 88.755 70.7531C88.7862 70.6765 88.7982 70.5932 88.7899 70.5106C88.773 70.3448 88.7295 70.1829 88.661 70.0317Z" fill="#C4D0A1"/>
<path d="M87.6967 61.4355C87.6963 61.5099 87.6874 61.584 87.6703 61.6563C87.6439 61.7989 87.6108 62.0129 87.5547 62.2846C87.4489 62.8246 87.2639 63.6024 87.0228 64.5601C86.7174 65.6703 86.4736 66.7974 86.2926 67.936C86.1986 68.6109 86.1544 69.2921 86.1605 69.9738C86.1605 70.3134 86.1836 70.6904 86.2133 71.047C86.2555 71.4101 86.3386 71.7668 86.4611 72.1101C86.7205 72.7853 87.0229 73.4422 87.3663 74.0765C87.6865 74.6817 87.9541 75.3147 88.1658 75.9683C88.3427 76.5671 88.4307 77.19 88.4269 77.8158C88.4467 78.4 88.4269 78.94 88.4269 79.4359C88.4103 80.4242 88.374 81.2257 88.3443 81.7759C88.3403 82.0569 88.3171 82.3372 88.2749 82.6148C88.2607 82.3342 88.2607 82.0531 88.2749 81.7725C88.2749 81.2223 88.3013 80.414 88.3013 79.4359C88.3013 78.9434 88.3013 78.4 88.2683 77.8226C88.2662 77.2098 88.1749 76.6008 87.9974 76.0158C87.7842 75.3737 87.5167 74.7521 87.1979 74.158C86.8487 73.5137 86.5408 72.8466 86.2761 72.161C86.1498 71.8045 86.0644 71.4341 86.0217 71.0572C85.9887 70.687 85.9689 70.3236 85.9689 69.967C85.9661 69.2794 86.0136 68.5926 86.1109 67.9123C86.3012 66.7654 86.5583 65.6312 86.8807 64.516C87.1384 63.565 87.3399 62.7941 87.4655 62.2575C87.5282 62.0027 87.5745 61.799 87.6141 61.6393C87.6365 61.5693 87.6641 61.5012 87.6967 61.4355Z" fill="#263238"/>
<path d="M86.8467 65.1815V65.1543L86.7773 65.246L86.8467 65.1815Z" fill="#C4D0A1"/>
<path d="M90.7439 60.0425C90.625 59.9203 90.4136 59.9848 90.2781 60.0663C89.3725 60.5875 88.6239 61.3547 88.1142 62.2841C87.6106 63.1993 87.1893 64.1599 86.8555 65.1539C88.0745 63.5373 89.8817 62.3758 90.7373 60.5282C90.81 60.372 90.8662 60.1512 90.7439 60.0425Z" fill="#C4D0A1"/>
<path d="M86.2387 79.1024C85.307 77.4473 84.3501 75.8103 83.3678 74.1914L83.3281 74.239C83.8633 76.0526 84.415 77.907 85.5185 79.4251C85.6077 79.5686 85.7318 79.6857 85.8786 79.7647C85.9528 79.8038 86.0378 79.8156 86.1195 79.7983C86.2011 79.781 86.2746 79.7356 86.3278 79.6696C86.4402 79.51 86.3411 79.279 86.2387 79.1024Z" fill="#C4D0A1"/>
<path d="M108.224 85.1375C108.205 85.1612 108.184 85.1828 108.161 85.2021L107.966 85.3753C107.711 85.5928 107.444 85.7958 107.167 85.9832C106.134 86.6534 105.024 87.1885 103.863 87.5761C100.942 88.6323 96.6277 89.1452 91.9364 88.7478C91.3582 88.7003 90.7867 88.6391 90.225 88.5576H90.1523V88.4795C90.1523 87.0395 90.1523 85.6538 90.1523 84.3564V84.2986L90.2052 84.2783L97.8038 81.3234L99.9942 80.488L100.579 80.2706C100.645 80.243 100.714 80.2214 100.784 80.2061L100.589 80.2978L100.011 80.5389L97.8401 81.4185L90.2713 84.4345L90.3241 84.3564C90.3241 85.6538 90.3241 87.0395 90.3241 88.4795L90.2515 88.3946C90.8065 88.4727 91.3747 88.5372 91.9496 88.5814C96.6244 88.9754 100.916 88.4897 103.823 87.4674C104.979 87.0908 106.087 86.5768 107.127 85.9357C107.49 85.7013 107.761 85.4975 107.94 85.3583L108.144 85.1987C108.197 85.1511 108.22 85.1341 108.224 85.1375Z" fill="#263238"/>
<path d="M59.0985 116.288C59.0985 116.288 54.7805 117.042 54.1132 114.274L53.2575 115.049L48.2524 121.091C48.0898 121.278 48 121.519 48 121.77C48 122.021 48.0898 122.262 48.2524 122.449C48.3809 122.591 48.5462 122.693 48.7288 122.741C48.9114 122.79 49.1037 122.784 49.2831 122.724C51.2059 122.089 58.2726 119.722 58.5137 119.056L59.2703 117.358C59.3462 117.182 59.3688 116.987 59.3352 116.797C59.3016 116.607 59.2134 116.433 59.082 116.295L59.0985 116.288Z" fill="#C4D0A1"/>
<path d="M48.4062 122.576L58.803 118.47L58.6313 118.843C58.4826 119.261 58.2348 119.336 57.9276 119.502C57.0124 119.995 54.6668 120.952 49.3379 122.742C49.1831 122.793 49.0187 122.804 48.8588 122.775C48.6989 122.746 48.5482 122.678 48.4195 122.576H48.4062Z" fill="white"/>
<path d="M58.2954 116.869C58.1529 116.895 58.0252 116.975 57.9376 117.094C57.8501 117.212 57.8091 117.36 57.8229 117.508C57.8488 117.656 57.9281 117.789 58.045 117.881C58.1618 117.972 58.3078 118.015 58.4539 118C58.5332 117.995 58.6105 117.973 58.6806 117.935C58.7508 117.896 58.8122 117.843 58.8608 117.779C58.9093 117.714 58.9439 117.639 58.9623 117.56C58.9806 117.481 58.9822 117.398 58.9671 117.318C58.9519 117.238 58.9203 117.162 58.8743 117.095C58.8284 117.029 58.7691 116.973 58.7006 116.932C58.632 116.891 58.5557 116.865 58.4767 116.857C58.3977 116.848 58.3179 116.857 58.2425 116.883" fill="white"/>
<path d="M52.1634 119.722C52.0792 119.343 51.9243 118.985 51.7075 118.666C51.4457 118.382 51.1341 118.152 50.7891 117.987C50.7891 117.96 50.9344 117.946 51.1525 118.017C51.4357 118.117 51.6856 118.297 51.8727 118.537C52.0588 118.772 52.1736 119.058 52.203 119.359C52.2328 119.586 52.1865 119.726 52.1634 119.722Z" fill="#263238"/>
<path d="M51.0019 120.606C50.9424 120.623 50.7938 120.201 50.4006 119.852C50.0075 119.502 49.5879 119.39 49.5978 119.329C49.6077 119.267 50.1 119.288 50.5394 119.695C50.9788 120.103 51.0581 120.606 51.0019 120.606Z" fill="#263238"/>
<path d="M54.0009 118.781C53.9415 118.802 53.7135 118.153 53.1485 117.559C52.5836 116.964 51.9658 116.683 51.9889 116.625C52.012 116.567 52.7025 116.764 53.3104 117.413C53.9183 118.061 54.067 118.775 54.0009 118.781Z" fill="#263238"/>
<path d="M55.1273 116.744C55.081 116.785 54.6912 116.35 54.0734 116.021C53.4556 115.691 52.8841 115.603 52.8907 115.542C52.8973 115.481 53.5085 115.474 54.1692 115.834C54.83 116.194 55.1735 116.717 55.1273 116.744Z" fill="#263238"/>
<path d="M53.7221 115.83C53.7221 115.83 53.7683 115.705 53.9203 115.525C54.1393 115.271 54.4055 115.066 54.7033 114.92C54.9161 114.794 55.1629 114.741 55.407 114.771C55.4896 114.785 55.5657 114.826 55.6249 114.886C55.6841 114.947 55.7234 115.026 55.7374 115.11C55.7515 115.27 55.7067 115.429 55.6118 115.555C55.4027 115.808 55.1149 115.978 54.7974 116.037C54.48 116.096 54.1525 116.04 53.8707 115.878C53.5927 115.718 53.3671 115.476 53.2225 115.184C53.0778 114.892 53.0206 114.563 53.058 114.238C53.0673 114.157 53.094 114.08 53.1364 114.012C53.1787 113.944 53.2355 113.886 53.3025 113.844C53.3762 113.806 53.4593 113.794 53.5404 113.807C53.6215 113.82 53.6965 113.859 53.7551 113.918C53.9175 114.102 54.0313 114.325 54.0855 114.567C54.1777 114.892 54.2135 115.231 54.1912 115.569C54.1942 115.693 54.1705 115.816 54.1218 115.929C54.1253 115.482 54.064 115.036 53.9401 114.608C53.8861 114.399 53.7828 114.208 53.6395 114.051C53.6085 114.018 53.5681 113.996 53.5242 113.988C53.4803 113.98 53.4351 113.987 53.395 114.007C53.3533 114.039 53.3187 114.079 53.2936 114.126C53.2685 114.173 53.2535 114.225 53.2496 114.278C53.2264 114.56 53.2818 114.842 53.4094 115.093C53.537 115.343 53.7314 115.551 53.9699 115.691C54.2086 115.827 54.4848 115.876 54.754 115.83C55.0232 115.785 55.2696 115.647 55.4533 115.44C55.5226 115.354 55.558 115.245 55.5524 115.134C55.5469 115.088 55.5274 115.045 55.4965 115.01C55.4657 114.976 55.4251 114.953 55.3806 114.944C55.1755 114.918 54.9676 114.958 54.7859 115.059C54.3877 115.246 54.0269 115.508 53.7221 115.83Z" fill="#263238"/>
<path d="M75.4939 125.081L75.6491 125.462C75.6491 125.462 70.4326 130.746 70.8521 132L83.2741 126.566L81.3514 122.392C80.6196 123.245 79.7179 123.927 78.7072 124.392C77.6966 124.856 76.6007 125.091 75.4939 125.081Z" fill="#C4D0A1"/>
<path d="M80.6601 124.311C80.7951 124.296 80.9308 124.333 81.0412 124.414C81.1515 124.496 81.2287 124.616 81.258 124.753C81.2766 124.891 81.2432 125.031 81.1646 125.145C81.086 125.258 80.9682 125.337 80.8351 125.364C80.6926 125.38 80.5495 125.341 80.4335 125.254C80.3175 125.167 80.2369 125.039 80.2075 124.895C80.2019 124.749 80.2513 124.607 80.3455 124.497C80.4396 124.388 80.5713 124.32 80.7129 124.308" fill="white"/>
<path d="M83.2831 126.579L82.8206 125.561L71.0857 131.134C71.0857 131.134 70.6331 131.623 70.861 131.997L83.2831 126.579Z" fill="white"/>
<path d="M75.6161 125.517C75.6425 125.581 75.9464 125.476 76.3396 125.547C76.7327 125.619 77.0003 125.809 77.0333 125.761C77.0664 125.714 76.8417 125.391 76.3726 125.313C75.9035 125.235 75.5797 125.466 75.6161 125.517Z" fill="#263238"/>
<path d="M74.544 126.641C74.544 126.705 74.8744 126.698 75.175 126.872C75.4757 127.045 75.6673 127.3 75.7234 127.269C75.7796 127.238 75.6772 126.872 75.2807 126.664C74.8843 126.457 74.5209 126.58 74.544 126.641Z" fill="#263238"/>
<path d="M74.4648 128.566C74.5276 128.566 74.4648 128.206 74.184 127.935C73.9032 127.663 73.5497 127.649 73.5431 127.711C73.5365 127.772 73.7909 127.88 74.032 128.108C74.2732 128.335 74.402 128.587 74.4648 128.566Z" fill="#263238"/>
<path d="M90.2396 84.5265L85.3269 83.2461L81.2601 83.5518C81.2601 83.5518 81.1246 84.0069 81.8151 84.2107C82.5467 84.3758 83.2885 84.4893 84.0352 84.5503L79.6445 84.9443C79.6445 84.9443 80.3581 85.8579 81.2601 85.8069C81.2601 85.8069 81.3724 86.1466 82.0629 86.313C82.5499 86.43 83.028 86.5833 83.4934 86.7715C83.4866 86.8689 83.4994 86.9667 83.531 87.0588C83.5626 87.1509 83.6124 87.2353 83.6772 87.3067C83.742 87.3781 83.8205 87.435 83.9076 87.4738C83.9948 87.5126 84.0888 87.5325 84.1838 87.5323C84.9239 87.5832 90.2396 87.7565 90.2396 87.7565V84.5265Z" fill="#CBA180"/>
<path d="M105.581 59.0069C105.205 58.6496 104.711 58.4512 104.198 58.4512C103.686 58.4512 103.192 58.6496 102.816 59.0069C101.432 60.3213 99.2611 63.0043 99.2611 67.029C99.2611 72.9385 100.731 72.3883 100.583 74.657C100.434 76.9258 100.381 79.4119 100.982 80.3594L90.2188 84.3467V88.4698C90.2188 88.4698 101.574 90.3785 108.224 85.138C109.255 82.7063 110.286 63.5885 105.581 59.0069Z" fill="#E0E0E0"/>
<path d="M103.431 82.2442C103.388 82.2816 102.909 81.6839 102.179 81.1167C101.449 80.5495 100.759 80.2472 100.782 80.1963C101.334 80.3368 101.848 80.6038 102.285 80.9774C102.753 81.3082 103.144 81.7407 103.431 82.2442Z" fill="#263238"/>
<path d="M107.633 77.6261C107.151 76.9081 106.598 76.2444 105.981 75.646C105.354 75.0442 104.554 74.6676 103.701 74.5728C103.512 74.5495 103.32 74.5752 103.143 74.6475C103.052 74.6828 102.973 74.7436 102.915 74.8229C102.857 74.9022 102.821 74.9968 102.812 75.0958C102.812 75.3947 103.107 75.5951 103.368 75.731C104.775 76.46 106.212 77.1268 107.679 77.7314L107.633 77.6261Z" fill="#C4D0A1"/>
<path d="M108.131 71.7631C108.131 71.5525 108.035 71.2808 107.83 71.2842C107.685 71.2842 107.589 71.4404 107.53 71.5797C107.141 72.5388 106.991 73.5823 107.094 74.616C107.194 75.6489 107.379 76.6713 107.645 77.6726L107.682 77.7439C108.123 75.7848 108.274 73.7686 108.131 71.7631Z" fill="#C4D0A1"/>
<path d="M107.617 77.7088H107.651V77.6631L107.617 77.7088Z" fill="#C4D0A1"/>
<path d="M109.066 77.4319C109.039 77.3912 108.98 77.398 108.934 77.4082L107.648 77.7003L107.668 77.7716C108.095 77.9521 108.538 78.0909 108.99 78.1859C109.023 77.9652 109.056 77.7444 109.086 77.5067C109.088 77.4801 109.081 77.4535 109.066 77.4319Z" fill="#C4D0A1"/>
<path d="M103.936 62.6854C103.787 60.4936 103.387 58.3276 102.743 56.2324C102.294 58.3959 102.357 60.8072 103.229 62.8314C103.325 63.0556 103.529 63.3239 103.751 63.2288C103.972 63.1337 103.949 62.8892 103.936 62.6854Z" fill="#C4D0A1"/>
<path d="M95.0017 82.5674L94.7209 82.6115C94.5723 83.7941 94.4995 84.9853 94.5029 86.1777C94.4739 86.5173 94.538 86.8585 94.6879 87.1626C94.7205 87.2305 94.7715 87.2872 94.8349 87.3258C94.8982 87.3643 94.9711 87.3832 95.0447 87.38C95.2528 87.3426 95.3057 87.0641 95.309 86.8467C95.3223 85.414 95.2195 83.9826 95.0017 82.5674Z" fill="#C4D0A1"/>
<path d="M100.768 60.4912C100.768 60.4912 100.613 60.729 100.359 61.1705C100.005 61.7929 99.7403 62.4643 99.5723 63.1641C99.329 64.203 99.2322 65.2724 99.2849 66.3396C99.3486 67.6487 99.5278 68.9492 99.8201 70.225C100.121 71.5835 100.454 72.8775 100.692 74.0696C100.918 75.122 101.055 76.1923 101.102 77.2689C101.132 77.9964 101.085 78.7252 100.963 79.4425C100.927 79.6972 100.867 79.8908 100.841 80.0233C100.829 80.0911 100.809 80.1572 100.781 80.2202C100.765 80.2202 100.824 79.9383 100.897 79.4323C100.991 78.7178 101.019 77.9956 100.98 77.2757C100.915 76.2067 100.767 75.1449 100.537 74.1001C100.293 72.9182 99.9556 71.631 99.6516 70.2623C99.3569 68.9769 99.1811 67.6658 99.1263 66.3464C99.0829 65.2646 99.1942 64.1821 99.4567 63.1335C99.6385 62.4271 99.9249 61.7535 100.306 61.1365C100.406 60.969 100.517 60.808 100.636 60.6542C100.674 60.5947 100.718 60.5399 100.768 60.4912Z" fill="#263238"/>
<path d="M96.1494 99.5484C96.0836 99.5564 96.017 99.5564 95.9512 99.5484H95.3829C94.8907 99.5484 94.1771 99.5179 93.2983 99.4601C92.4195 99.4024 91.3755 99.2971 90.2192 99.1409C89.0629 98.9846 87.8009 98.7537 86.486 98.4616C85.1711 98.1695 83.9355 97.8163 82.8222 97.4665C81.7088 97.1167 80.7177 96.7567 79.8951 96.4272C79.0725 96.0978 78.4183 95.8159 77.969 95.6053L77.457 95.371C77.3952 95.3471 77.3373 95.3139 77.2852 95.2725C77.3496 95.2885 77.4126 95.3101 77.4735 95.337L77.9988 95.551C78.4547 95.7446 79.1187 96.0095 79.9414 96.3185C80.764 96.6276 81.7584 96.974 82.8718 97.3204C83.9851 97.6669 85.2207 97.9997 86.529 98.2986C87.8373 98.5975 89.096 98.8182 90.2457 98.9778C91.3954 99.1375 92.436 99.2631 93.3115 99.3345C94.187 99.4058 94.8973 99.4567 95.3896 99.4771L95.9545 99.5111C96.0206 99.5159 96.086 99.5285 96.1494 99.5484Z" fill="#455A64"/>
</svg>
