<svg width="159" height="159" viewBox="0 0 159 159" fill="none" xmlns="http://www.w3.org/2000/svg">
<rect width="159" height="159" rx="6" fill="#F7FBFD"/>
<path d="M78.0731 121C106.832 121 130.146 116.172 130.146 110.217C130.146 104.261 106.832 99.4336 78.0731 99.4336C49.3139 99.4336 26 104.261 26 110.217C26 116.172 49.3139 121 78.0731 121Z" fill="#C4D0A1"/>
<path opacity="0.5" d="M78.0731 121C106.832 121 130.146 116.172 130.146 110.217C130.146 104.261 106.832 99.4336 78.0731 99.4336C49.3139 99.4336 26 104.261 26 110.217C26 116.172 49.3139 121 78.0731 121Z" fill="#CBA180"/>
<path d="M47.6406 50.1133C48.324 50.2558 48.9706 50.5466 49.5381 50.9666C50.3307 51.6014 53.2222 56.4888 54.2933 57.549C55.3643 58.6092 56.6346 59.9139 56.1931 60.9648C55.7515 62.0156 55.0609 63.8563 53.1543 63.0805C51.2477 62.3047 50.736 61.3009 50.2288 60.3817C49.7216 59.4626 48.0776 58.0826 48.0776 58.0826" fill="#C4D0A1"/>
<path d="M55.4917 60.1817C54.1489 58.6724 52.9624 59.8008 52.1699 61.0985C51.289 62.5443 50.5056 64.0535 49.7266 65.5651C49.7266 65.5651 48.5537 66.7217 48.4948 67.2695C48.436 67.8172 49.3734 69.2771 49.8534 69.2183C50.3335 69.1595 51.2619 68.8516 51.3207 68.5483C51.3796 68.2451 50.9109 68.3132 50.9109 68.3132L51.2619 67.7655L51.0354 66.4655C52.5775 65.102 54.9641 62.9792 55.6321 62.2833C56.2457 61.6321 56.0283 60.7858 55.4917 60.1817Z" fill="#CBA180"/>
<path d="M39.2026 68.9972C39.2026 68.9972 38.5821 71.7547 38.8471 72.5845C39.112 73.4144 40.0766 75.4596 40.0766 75.4596L42.0828 101.958L44.252 101.902L45.2348 74.0115L45.6741 73.9574L46.4553 101.902L48.6902 101.994L50.1959 74.9754C50.1959 74.9754 50.4224 71.482 50.4224 71.1129C50.4224 70.7438 49.8359 67.3516 49.8359 67.3516L39.2026 68.9972Z" fill="#263238"/>
<path d="M42.083 101.958C42.083 101.958 39.5085 104.17 39.4541 104.922C39.3998 105.675 41.5238 105.329 42.4182 104.217C43.3126 103.105 44.1685 103.404 44.2093 102.649L44.2523 101.895L42.083 101.958Z" fill="#CBA180"/>
<path d="M48.6146 101.958C48.6146 101.958 51.1891 104.168 51.2457 104.922C51.3023 105.677 49.1738 105.329 48.2794 104.217C47.385 103.105 46.5314 103.404 46.4883 102.649L46.4453 101.895L48.6146 101.958Z" fill="#CBA180"/>
<path d="M48.5272 53.4631L48.2736 50.3764C46.6275 49.6524 43.7042 49.5536 42.8392 49.9063C42.8392 49.9063 37.8418 52.5345 37.3346 53.0611C36.8274 53.5877 35.1133 61.4771 35.1133 62.7959C35.1133 64.1147 35.8107 65.0292 37.0742 65.2925C38.3377 65.5558 39.1642 63.9126 39.1642 63.9126C39.1642 63.9126 38.4668 67.909 38.5936 68.3791C38.7204 68.8493 38.9559 69.5193 39.4608 69.5851C39.9658 69.651 49.2224 69.2325 49.6028 69.035C49.9832 68.8376 50.2346 68.445 50.2346 67.5258C50.2346 66.6066 48.9688 57.2785 48.9688 57.2785" fill="#C4D0A1"/>
<path d="M43.9385 55.106C45.2141 55.106 46.2482 53.9293 46.2482 52.4778C46.2482 51.0263 45.2141 49.8496 43.9385 49.8496C42.663 49.8496 41.6289 51.0263 41.6289 52.4778C41.6289 53.9293 42.663 55.106 43.9385 55.106Z" fill="#CBA180"/>
<path d="M42.4531 47.8799C42.4531 47.8799 42.4531 52.6098 42.906 53.4631C43.3589 54.3165 44.9937 54.5798 45.1205 53.4631C45.2473 52.3465 45.1839 48.2748 45.1839 48.2748L42.4531 47.8799Z" fill="#CBA180"/>
<path d="M45.1901 50.1623C45.1901 49.128 45.1742 48.2817 45.1742 48.2817L42.457 47.8867C42.457 47.8867 42.457 48.639 42.4865 49.5981C42.8624 49.9067 43.3033 50.1186 43.7731 50.2167C44.243 50.3147 44.7285 50.2961 45.1901 50.1623Z" fill="#263238"/>
<path d="M47.0066 39.0127C47.0066 39.0127 47.4594 43.8084 47.5772 45.1884C47.6949 46.5683 47.1968 48.275 45.4894 48.9309C43.7821 49.5868 42.3896 48.6699 41.5019 47.4216C40.6143 46.1734 40.3698 46.1075 40.3698 46.1075C40.2286 46.1431 40.0821 46.1491 39.9387 46.1253C39.7953 46.1016 39.6578 46.0484 39.5344 45.969C39.4109 45.8896 39.3039 45.7855 39.2195 45.6628C39.1351 45.5401 39.0751 45.4012 39.0429 45.2542C38.7259 44.1375 39.6112 43.6768 40.3064 43.4793C40.3064 43.4793 39.1742 40.7876 39.1742 40.0635C39.1742 39.3395 40.3743 37.8302 42.9058 37.1743C45.4374 36.5185 47.0066 39.0127 47.0066 39.0127Z" fill="#CBA180"/>
<path d="M43.4035 42.6914C43.4035 42.9993 43.2609 43.2485 43.0865 43.2485C42.9122 43.2485 42.7695 42.9993 42.7695 42.6914C42.7695 42.3834 42.9122 42.1318 43.0865 42.1318C43.2609 42.1318 43.4035 42.3834 43.4035 42.6914Z" fill="#263238"/>
<path d="M45.8053 42.6581C45.9804 42.6581 46.1223 42.4076 46.1223 42.0986C46.1223 41.7896 45.9804 41.5391 45.8053 41.5391C45.6302 41.5391 45.4883 41.7896 45.4883 42.0986C45.4883 42.4076 45.6302 42.6581 45.8053 42.6581Z" fill="#263238"/>
<path d="M39.6704 43.4789C39.6704 43.4789 40.6191 44.5297 40.9361 44.0054C41.2531 43.4812 40.9361 42.5597 40.9995 41.838C41.0629 41.1163 41.8215 41.1797 41.5679 40.5897C41.3143 39.9996 40.4357 40.6555 40.4357 39.9973C40.4357 39.339 42.1453 38.2905 43.7892 38.2905C45.4331 38.2905 47.2061 39.9361 48.6621 39.2097C50.118 38.4833 49.5474 36.9106 48.7255 36.1889C47.9035 35.4672 46.2573 35.5306 46.2573 35.5306C46.2573 35.5306 48.2817 34.8748 47.5865 34.2165C46.8913 33.5583 45.1184 33.4948 44.1696 33.8898C43.2208 34.2847 42.2019 34.8207 42.2019 34.8207C42.2019 34.8207 43.0238 33.4407 41.8849 34.0332C41.4381 34.2507 41.0392 34.5611 40.7128 34.9453C40.3864 35.3295 40.1395 35.7791 39.9874 36.2665C39.6704 37.1198 39.4168 37.7099 39.4168 37.7099C39.4168 37.7099 38.6582 37.1198 38.0898 37.3831C37.5215 37.6464 38.5427 37.8533 38.5427 37.8533C38.5427 37.8533 37.2135 38.6432 37.4105 39.694C37.6075 40.7448 38.8031 42.2541 39.1201 42.4515C39.4371 42.649 39.6704 43.4789 39.6704 43.4789Z" fill="#263238"/>
<path d="M46.1227 54.4474V51.6899C46.1227 51.4266 47.7689 51.2949 47.7689 51.2949L47.83 51.6899L47.1349 52.0825L47.6058 53.1733C47.6058 53.1733 49.9811 51.5582 50.2347 51.8873C50.3355 52.0459 50.3839 52.2342 50.3724 52.4238C50.361 52.6134 50.2904 52.7939 50.1713 52.9382C50.0458 53.0878 49.9593 53.2682 49.92 53.4624C49.92 53.4624 49.9811 55.2373 49.5396 55.4324C49.098 55.6275 46.7545 56.2881 46.7545 56.2881C44.9 58.5684 43.0251 60.8723 40.7947 62.7741C39.889 63.5499 38.8044 64.8593 37.645 64.1235C36.531 63.4182 36.5581 61.6434 37.2646 60.6889C38.5304 58.9798 40.2082 58.6507 41.8884 57.6822C43.4061 56.7625 44.8255 55.6782 46.1227 54.4474Z" fill="#CBA180"/>
<path d="M47.6055 53.1733L48.0583 48.8712C48.0678 48.7454 48.1219 48.6276 48.2102 48.5408C48.2984 48.454 48.4146 48.4042 48.5361 48.4011L50.0487 48.2882C50.115 48.2866 50.181 48.299 50.2427 48.3244C50.3043 48.3499 50.3604 48.3881 50.4075 48.4366C50.4547 48.4851 50.4919 48.5429 50.517 48.6067C50.5421 48.6705 50.5546 48.7389 50.5536 48.8078L50.2366 51.8968L47.6055 53.1733Z" fill="#263238"/>
<path d="M110.288 88.239C110.288 88.239 111.556 84.9478 110.74 78.1304C110.385 75.1355 110.639 68.9833 106.694 68.7835C102.485 68.5719 100.766 69.0045 96.5475 69.0538C81.3312 69.2349 70.1408 70.8099 60.8638 69.8813C53.4073 69.1338 46.9743 67.9066 44.3341 70.6595C41.6938 73.4123 41.9135 79.2753 42.1444 80.4131C42.3754 81.5509 44.1008 89.3251 44.1008 89.3251L109.885 89.0171L110.288 88.239Z" fill="#999999"/>
<path d="M44.9643 86.2737C44.9643 86.2737 43.6963 81.0078 41.6199 79.5714C39.5435 78.135 36.8376 79.6913 34.6004 81.9646C32.3632 84.2378 31.7179 86.9319 32.6417 91.4197C33.5656 95.9074 36.2647 102.549 37.0798 105.541C37.895 108.534 37.886 110.09 40.5941 111.047C43.3023 112.004 45.8972 112.065 47.5683 109.669C49.2394 107.274 48.7797 96.2695 47.4528 92.1367C46.1259 88.0039 44.9643 86.2737 44.9643 86.2737Z" fill="#B2B2B2"/>
<path d="M44.7356 109.491C43.583 107.227 40.1254 91.006 40.182 88.7868C40.2386 86.5676 38.5109 82.8627 36.3779 82.5618C34.6207 82.3267 33.2078 84.0616 32.7753 84.6775C32.096 86.4336 32.0462 88.5611 32.6326 91.4151C33.5542 95.9028 33.4387 102.683 34.2449 105.675C35.051 108.668 35.0442 110.229 37.7614 111.186C39.5434 111.816 44.1015 111.917 45.553 111.327C45.3215 110.696 45.0484 110.082 44.7356 109.491Z" fill="#8A8A8A"/>
<path d="M106.822 86.1721C106.822 86.1721 108.163 80.9062 110.352 79.4698C112.542 78.0335 115.406 79.5897 117.779 81.863C120.152 84.1363 120.825 86.8303 119.851 91.3181C118.877 95.8059 116.015 102.447 115.162 105.44C114.308 108.432 114.31 109.989 111.448 110.945C108.586 111.902 105.848 111.963 104.082 109.57C102.316 107.177 102.805 96.1702 104.204 92.0351C105.604 87.9 106.822 86.1721 106.822 86.1721Z" fill="#B2B2B2"/>
<path d="M107.065 109.723C108.281 107.419 111.934 91.0035 111.875 88.7631C111.816 86.5227 113.639 82.7778 115.883 82.4628C117.74 82.2113 119.223 83.9791 119.687 84.6068C120.414 86.384 120.459 88.5374 119.841 91.4243C118.865 95.9685 117.377 102.692 116.524 105.722C115.67 108.752 115.672 110.325 112.81 111.296C110.928 111.933 107.727 112.178 106.191 111.578C106.441 110.94 106.733 110.32 107.065 109.723Z" fill="#8A8A8A"/>
<path d="M111.902 96.3779C111.902 96.3779 110.462 105.668 109.538 108.781C108.614 111.893 108.904 111.893 107.348 112.013C105.793 112.133 46.752 111.962 44.9066 111.663C43.0611 111.364 42.0829 109.926 41.5644 107.902C41.0459 105.878 40.5273 96.6342 40.5273 96.6342L109.422 96.3991L111.902 96.3779Z" fill="#999999"/>
<path d="M40.5306 98.0961C40.6619 98.4274 40.8736 98.7178 41.145 98.939C41.4164 99.1602 41.7383 99.3048 42.0794 99.3585C43.2977 99.5936 74.5071 99.9345 75.5012 99.9345C76.4952 99.9345 101.951 99.9345 106.047 99.5889C110.143 99.2434 112.227 98.6815 111.903 96.3777C111.579 94.0738 111.69 95.9075 111.69 95.9075L39.8672 96.8314L40.5306 98.0961Z" fill="#263238"/>
<path d="M45.1392 85.9729C45.1392 85.9729 40.7056 89.0854 39.433 90.5218C38.1605 91.9582 38.8579 93.0936 38.9801 94.1727C39.1024 95.2517 39.6142 97.6425 41.1109 98.4794C42.6076 99.3163 61.2273 98.9496 72.0645 99.3186C82.9016 99.6877 106.197 99.2505 109.089 98.5288C111.98 97.8071 112.655 94.0998 112.827 92.0052C112.999 89.9106 110.932 86.9791 109.779 86.6218C108.627 86.2644 99.0396 86.2104 88.3768 86.4501C77.714 86.6899 72.8275 87.6538 60.6658 87.414C48.504 87.1742 47.9062 85.4346 45.1392 85.9729Z" fill="#B2B2B2"/>
<path d="M38.9708 94.1725C39.084 95.2492 39.6048 97.6424 41.1015 98.4793C42.5983 99.3162 61.2179 98.9494 72.0551 99.3185C82.8922 99.6876 106.195 99.2503 109.086 98.5286C111.978 97.8069 113.696 94.9389 113.868 92.8443C113.888 92.5272 113.855 92.209 113.769 91.904C113.361 92.3248 112.58 91.8687 111.654 91.7324C109.6 91.4244 87.9915 92.8208 71.8196 92.8208C54.2574 92.8208 48.5354 92.8208 39.8448 91.0859C38.5519 90.8273 39.4395 90.5146 39.4395 90.5146C38.1624 91.9581 38.8553 93.0935 38.9708 94.1725Z" fill="#999999"/>
<path d="M105.465 74.4373C106.16 74.3262 106.871 74.455 107.489 74.804C108.395 75.3823 109.869 77.2748 109.869 77.2748L111.438 72.7541C111.438 72.7541 110.729 71.3883 110.729 70.9157C110.729 70.4432 110.68 69.9754 110.68 69.7591C110.68 69.5428 111.132 69.3383 111.132 69.5499C111.164 69.833 111.215 70.1134 111.284 70.3891L111.805 71.0239L112.108 68.398C112.108 68.398 112.36 68.083 112.462 68.3439C112.564 68.6048 112.521 69.9589 112.521 69.9589H112.772L113.012 67.8314C113.012 67.8314 113.084 67.7303 113.327 67.7562C113.356 67.7551 113.385 67.7616 113.411 67.7751C113.437 67.7886 113.459 67.8087 113.476 67.8335C113.492 67.8582 113.503 67.887 113.506 67.917C113.509 67.947 113.505 67.9774 113.494 68.0054L113.327 70.0107L113.472 70.0342L113.875 68.184C113.875 68.184 114.044 68.0101 114.164 68.1088C114.243 68.1977 114.286 68.3147 114.284 68.4356L114.026 70.3609L114.599 69.2607C114.599 69.2607 114.839 69.162 114.839 69.3618C114.665 70.0261 114.45 70.6778 114.194 71.313C114.146 71.3883 113.229 73.1396 113.229 73.1396C113.229 73.1396 112.482 77.7732 112.145 78.7817C111.807 79.7902 111.083 80.6835 110.046 80.7352C109.009 80.787 107.827 79.5598 107.827 79.5598L105.465 74.4373Z" fill="#CBA180"/>
<path d="M102.07 72.6481C102.07 72.6481 101.97 74.1198 101.868 74.5288C101.766 74.9379 101.16 74.8438 100.603 74.8438C100.045 74.8438 99.844 75.7842 99.7421 76.6305C99.6402 77.4768 98.4265 86.8261 98.628 88.1496C98.8295 89.4731 100.958 90.8836 103.286 91.0411C105.614 91.1986 108.904 90.8296 110.221 89.7787C111.539 88.7279 111.689 87.8981 111.385 86.8355C111.082 85.7729 110.271 84.6821 109.866 84.2096C109.461 83.7371 109.055 83.1588 109.055 83.1588C109.055 83.1588 106.777 75.3281 106.22 74.7498C105.663 74.1715 104.552 74.4348 104.552 74.4348L104.196 72.4883L102.07 72.6481Z" fill="#C4D0A1"/>
<path d="M104.996 74.3813C104.847 74.3874 104.699 74.4063 104.554 74.4377L104.199 72.4912L102.072 72.6487C102.072 72.6487 101.973 74.1203 101.871 74.5294C101.821 74.7386 101.644 74.8162 101.418 74.8444C101.588 75.3146 102.21 76.7556 103.644 76.8426C104.914 76.9319 105.025 75.2558 104.996 74.3813Z" fill="#CBA180"/>
<path d="M101.973 73.8446C102.356 73.9342 102.746 73.983 103.139 73.9903C103.581 74.0006 104.021 73.9297 104.439 73.7811L104.212 72.4834L102.086 72.6409C102.086 72.6409 102.032 73.2921 101.973 73.8446Z" fill="#263238"/>
<path d="M107.441 63.8211C107.441 63.8211 109.112 62.5587 111.137 62.8807C113.161 63.2028 113.009 66.5081 112.251 67.4014C111.492 68.2947 109.67 67.7164 109.67 67.2956C109.67 66.8748 109.973 65.4572 109.217 64.7097C109.016 64.4994 108.764 64.3494 108.488 64.2753C108.212 64.2013 107.921 64.2059 107.647 64.2889L107.441 63.8211Z" fill="#263238"/>
<path d="M99.3521 67.6577C99.2978 68.1256 99.2812 68.5974 99.3023 69.0682C99.3521 69.5948 98.6434 69.9615 99.0985 70.8548C99.5537 71.7482 100.618 73.2738 103.149 73.3256C105.681 73.3773 107.35 70.9089 107.35 68.5957C107.35 66.2825 104.56 64.5029 103.086 64.5029C101.612 64.5029 99.9997 65.817 99.6895 66.3436C99.4949 66.7544 99.3802 67.2009 99.3521 67.6577Z" fill="#CBA180"/>
<path d="M100.757 69.0776C100.924 69.0776 101.06 68.8418 101.06 68.551C101.06 68.2602 100.924 68.0244 100.757 68.0244C100.589 68.0244 100.453 68.2602 100.453 68.551C100.453 68.8418 100.589 69.0776 100.757 69.0776Z" fill="#263238"/>
<path d="M103.242 68.6024C103.242 68.8939 103.104 69.129 102.936 69.129C102.769 69.129 102.633 68.8939 102.633 68.6024C102.633 68.3109 102.769 68.0781 102.936 68.0781C103.104 68.0781 103.242 68.3132 103.242 68.6024Z" fill="#263238"/>
<path d="M102.48 64.82C102.48 64.82 103.898 68.0783 105.164 68.9175C106.429 69.7568 107.643 69.1808 107.847 68.7083C108.382 67.6176 108.491 66.3541 108.15 65.1821C107.643 63.3954 106.581 62.2388 104.91 62.3446C103.239 62.4504 101.316 63.8679 101.316 63.8679L102.48 64.82Z" fill="#263238"/>
<path d="M103.083 64.9777C103.083 64.9777 99.8019 67.5518 99.186 68.0784C98.5701 68.605 97.7686 68.2876 97.2115 66.3952C96.6545 64.5028 97.8206 62.9277 99.3898 62.9277C100.959 62.9277 102.73 63.9715 102.73 63.9715" fill="#263238"/>
<path d="M105.891 69.5405C105.891 69.5405 106.699 68.13 107.46 68.2264C108.221 68.3228 107.813 70.2763 107.408 70.7489C107.002 71.2214 106.244 70.6971 106.244 70.6971" fill="#CBA180"/>
<path d="M101.315 75.6972C101.282 75.5618 101.221 75.4352 101.137 75.3256C101.054 75.2161 100.949 75.1261 100.829 75.0616C100.71 74.997 100.579 74.9593 100.444 74.951C100.31 74.9426 100.175 74.9638 100.049 75.0131C99.037 75.3305 98.6906 77.6414 98.4302 79.113C98.1698 80.5846 96.5576 88.9418 96.5576 88.9418C96.5576 88.9418 94.8865 89.2027 94.1777 89.412C93.469 89.6212 94.026 89.727 95.0382 89.8328C96.0504 89.9385 96.6572 90.042 96.6572 90.042C96.6572 90.042 95.5454 90.6203 96.5576 90.6203C97.5697 90.6203 98.1766 89.9362 98.2785 89.6799C98.3804 89.4237 101.113 78.8003 101.315 77.592C101.516 76.3837 101.315 75.6972 101.315 75.6972Z" fill="#CBA180"/>
<path d="M110.939 85.1288C110.939 85.1288 109.479 84.1156 107.973 85.1734C106.467 86.2313 107.617 89.1276 107.927 90.1408C108.238 91.154 109.433 94.0479 110.011 95.5195C110.588 96.9911 111.073 99.2808 111.206 99.704C111.34 100.127 112.402 100.395 112.843 100.303C113.887 99.9604 114.896 99.5132 115.857 98.9682C116.387 98.6014 116.521 97.9573 116.21 97.8186C115.9 97.6799 112.843 97.7269 112.843 97.7269C112.843 97.7269 112.268 95.8463 112.18 94.4169C112.092 92.9876 111.559 88.8525 111.516 87.4726C111.473 86.0926 111.127 85.4132 110.939 85.1288Z" fill="#CBA180"/>
<path d="M112.535 98.1499C112.531 98.3109 112.5 98.4699 112.444 98.6201C111.954 98.7085 111.458 98.7596 110.961 98.7729C111.076 99.2431 111.16 99.5863 111.205 99.7133C111.337 100.127 112.401 100.404 112.843 100.313C113.886 99.9696 114.896 99.5225 115.856 98.9774C116.386 98.6107 116.52 97.9666 116.21 97.8279C115.899 97.6892 112.843 97.7362 112.843 97.7362C112.843 97.7362 112.535 97.9219 112.535 98.1499Z" fill="#263238"/>
<path d="M108.59 99.5774C108.59 99.5774 108.226 99.5774 107.415 93.8085C107.06 91.2837 107.327 87.1604 106.396 85.7804C105.466 84.4005 102.547 84.8166 102.547 87.781C102.547 90.7454 105.203 97.2313 105.943 99.0932C106.684 100.955 106.874 102.128 107.528 102.267C108.183 102.405 110.785 101.714 111.781 101.026C112.777 100.337 112.976 99.38 112.313 99.38C111.65 99.38 108.59 99.5774 108.59 99.5774Z" fill="#CBA180"/>
<path d="M108.141 99.8639C108.096 99.9815 108.078 100.109 108.09 100.235C108.102 100.361 108.142 100.482 108.209 100.588C108.333 100.729 107.896 100.8 106.562 100.823C106.868 101.669 107.104 102.184 107.529 102.274C108.195 102.412 110.786 101.721 111.782 101.032C112.778 100.344 112.977 99.3867 112.314 99.3867C111.65 99.3867 108.594 99.5936 108.594 99.5936C108.505 99.6054 108.419 99.6354 108.341 99.6818C108.263 99.7282 108.195 99.7901 108.141 99.8639Z" fill="#263238"/>
<path d="M86.2873 55.2731C86.2444 54.2045 85.816 53.1917 85.0872 52.4357C83.8871 51.2603 81.222 50.9829 79.9562 52.7813C78.6905 54.5796 78.6905 56.0348 79.1569 56.3804L79.6234 56.7259C79.6234 56.7259 79.0233 57.9013 79.6891 58.4561C80.3548 59.0109 80.8892 59.5634 81.0227 58.9404C81.1563 58.3174 80.1555 57.0033 81.6885 55.9643C83.2214 54.9252 86.2873 55.2731 86.2873 55.2731Z" fill="#263238"/>
<path d="M85.5553 53.8153C85.5553 53.8153 87.5547 52.0851 88.6869 53.5379C89.819 54.9907 87.489 56.8597 87.1562 57.0642C86.8233 57.2687 85.4896 54.4359 85.4896 54.4359C85.4896 54.4359 85.1568 54.1609 85.5553 53.8153Z" fill="#263238"/>
<path d="M87.3738 57.4145C87.3738 57.4145 88.1279 56.2626 88.5264 57.2288C88.9249 58.195 88.0735 59.5326 87.684 59.8147C87.2946 60.0968 87.3738 57.4145 87.3738 57.4145Z" fill="#CBA180"/>
<path d="M80.5889 58.5639C80.5889 58.5639 79.8779 56.8618 79.391 57.5976C78.9042 58.3335 79.4363 60.2682 80.367 60.2682C80.4877 60.0695 80.5771 59.8521 80.6319 59.6241" fill="#CBA180"/>
<path d="M91.3952 75.2556C90.6185 73.1258 91.7507 67.5472 89.9822 66.6657C88.2138 65.7841 85.7411 65.4902 85.7411 65.4902L83.6896 65.5678L81.6381 65.4902C81.6381 65.4902 79.1632 65.7841 77.3947 66.6657C75.6263 67.5472 76.7584 73.1258 75.9818 75.2556C75.2051 77.3855 74.5666 80.1712 74.8496 81.9344C75.1326 83.6975 76.1222 84.3557 76.9011 84.5767C77.4355 84.7272 81.3188 84.6707 83.6941 84.6214C86.0626 84.6707 89.946 84.7272 90.4872 84.5767C91.2638 84.3557 92.2533 83.6951 92.5364 81.9344C92.8194 80.1736 92.1741 77.3714 91.3952 75.2556Z" fill="#C4D0A1"/>
<path d="M82.595 64.1357C82.595 64.1357 81.2206 64.6058 80.9987 65.2429C80.7767 65.8799 80.3329 67.636 80.3782 68.4188C80.4235 69.2016 80.8651 69.6154 81.087 69.2486C81.3089 68.8819 83.4373 67.9134 83.7045 67.7747C83.9717 67.636 85.6111 68.1438 85.9213 68.5105C86.2315 68.8772 87.1192 69.8928 87.2528 69.5237C87.3864 69.1546 87.2528 67.4973 86.7999 66.0257C86.347 64.5541 85.9576 64.3214 85.1582 64.091C84.3589 63.8606 82.595 64.1357 82.595 64.1357Z" fill="#CBA180"/>
<path d="M82.0977 64.0439C82.0977 64.0439 82.186 66.3478 82.5505 67.5444C82.9151 68.741 83.8797 70.3536 84.3235 70.1303C84.7673 69.907 85.2564 67.7795 85.4761 66.9073C85.6487 66.0408 85.7674 65.1637 85.8316 64.2814C85.8316 64.2814 82.6728 64.5047 82.0977 64.0439Z" fill="#CBA180"/>
<path d="M85.8225 64.2742C85.8225 64.2742 82.6728 64.5092 82.0977 64.0391C82.0977 64.0391 82.1226 64.6668 82.195 65.4378C83.2501 65.7912 84.3713 65.8766 85.4647 65.687C85.5417 65.6706 85.6119 65.6494 85.6912 65.6306C85.7659 64.9277 85.8225 64.2742 85.8225 64.2742Z" fill="#263238"/>
<path d="M80.5343 56.2816C80.5343 56.2816 79.7803 62.4713 80.5343 63.5386C81.2884 64.6059 83.8901 65.1842 85.4661 64.8175C87.0421 64.4507 87.7961 63.407 87.8663 61.3312C87.9365 59.2554 87.3862 55.8537 86.7001 55.3577C86.014 54.8617 84.3022 54.2175 82.7941 54.7159C81.2861 55.2143 80.7381 55.7127 80.5343 56.2816Z" fill="#CBA180"/>
<path d="M82.7955 54.333C82.7955 54.333 82.3426 56.115 81.2602 56.6839C80.1779 57.2528 80.4473 55.7435 80.719 54.9019" fill="#263238"/>
<path d="M84.6689 57.1846L84.9338 60.2242C84.9338 60.2242 84.1368 60.638 83.7812 59.8552" fill="#CBA180"/>
<path d="M84.0496 60.1768C84.0496 60.1768 82.2132 60.5388 82.3468 60.8608C82.4804 61.1829 83.0442 61.566 83.5763 61.5237C84.1085 61.4814 84.4934 60.8185 84.4934 60.8185C84.4934 60.8185 85.3516 62.1349 86.4906 60.9995C86.8551 60.6375 84.9349 60.2214 84.9349 60.2214C84.9349 60.2214 84.3145 60.4988 84.0496 60.1768Z" fill="#263238"/>
<path d="M91.2724 82.7612C91.2724 82.7612 91.1366 81.5223 86.8728 80.502C82.6091 79.4818 79.4933 80.4268 78.069 81.5223C76.6448 82.6178 75.7662 83.3442 75.225 85.3118C74.6839 87.2795 74.5457 91.1395 78.814 92.1598C83.0823 93.18 89.8482 93.0272 91.8113 91.029C94.9792 87.8084 91.8815 83.4829 91.2724 82.7612Z" fill="#263238"/>
<path d="M86.6227 82.012C86.6227 82.012 85.3049 81.885 84.9267 81.798C84.5486 81.7111 83.2443 82.4539 82.5288 82.8465C81.9847 83.1886 81.5687 83.7124 81.3491 84.3322C81.3491 84.4638 81.2245 85.1173 81.4351 85.2067C81.6457 85.296 82.6964 85.0304 82.9907 85.0304C83.2851 85.0304 84.9267 84.5061 85.3479 84.5602C85.7691 84.6143 87.2884 83.7186 87.2884 83.7186L86.6227 82.012Z" fill="#CBA180"/>
<path d="M89.9262 66.3711C89.9262 66.3711 91.9777 66.7378 92.9672 67.838C93.9567 68.9382 95.1591 74.5167 95.7252 76.6466C96.2912 78.7764 96.5743 81.9736 96.2912 82.6342C96.0082 83.2947 94.7424 83.7179 93.6895 83.7179C92.6366 83.7179 87.1048 83.8425 87.1048 83.8425L86.3281 82.0794L91.878 79.3971L90.4832 70.9952" fill="#C4D0A1"/>
<path d="M78.2418 66.3711C78.2418 66.3711 76.1903 66.7378 75.2008 67.838C74.2113 68.9382 73.0089 74.5167 72.4451 76.6466C71.8813 78.7764 71.5552 81.4846 71.8383 82.1452C72.1213 82.8058 73.6067 83.8331 74.6664 83.8331C75.7261 83.8331 80.8934 83.7085 80.8934 83.7085L81.5591 82.0112L76.3647 79.0632L77.6757 70.9952" fill="#C4D0A1"/>
<path d="M81.5602 82.012C81.5602 82.012 82.8758 81.885 83.254 81.798C83.6321 81.7111 84.9386 82.4539 85.6542 82.8465C86.1979 83.1884 86.6132 83.7124 86.8316 84.3322C86.8316 84.4638 86.9584 85.1173 86.7478 85.2067C86.5373 85.296 85.4843 85.0304 85.19 85.0304C84.8956 85.0304 83.254 84.5061 82.8328 84.5602C82.4116 84.6143 80.8945 83.7186 80.8945 83.7186L81.5602 82.012Z" fill="#CBA180"/>
<path d="M82.4714 86.3916C82.4714 86.3916 79.0862 83.1592 76.2445 83.0886C73.4027 83.0181 71.7158 85.1268 71.8426 88.3592C71.9694 91.5916 75.1553 113.233 75.1553 113.233L78.4047 113.163L79.2221 88.5708" fill="#263238"/>
<path d="M75.1531 113.233C75.1531 113.233 73.3915 114.497 72.9182 115.974C72.445 117.45 75.1531 117.029 76.3147 115.835C77.0861 115.007 77.7884 114.113 78.4138 113.162L75.1531 113.233Z" fill="#CBA180"/>
<path d="M85.2383 86.3916C85.2383 86.3916 88.6235 83.1592 91.4675 83.0886C94.3115 83.0181 95.9962 85.1268 95.8671 88.3592C95.738 91.5916 91.3248 113.233 91.3248 113.233L88.0755 113.163L88.4831 88.5708" fill="#263238"/>
<path d="M91.3275 113.233C91.3275 113.233 93.0891 114.497 93.5624 115.974C94.0356 117.45 91.3275 117.029 90.1772 115.835C89.4057 115.007 88.7035 114.113 88.0781 113.162L91.3275 113.233Z" fill="#CBA180"/>
<path d="M66.1153 58.675C66.1153 58.675 67.9019 58.0568 68.1759 56.9636C68.4499 55.8705 67.4445 52.2055 64.4193 50.9196C61.3942 49.6337 56.4443 50.5387 54.7483 52.5393C53.0523 54.5399 54.8412 56.3924 54.8865 56.8202C54.9317 57.2481 53.5573 57.5255 53.3286 59.3427C53.0999 61.1599 55.3461 63.0053 57.7735 63.5742C60.2009 64.1431 61.3964 63.4308 61.3964 62.4787C61.3964 61.5266 60.8462 60.6709 61.9014 59.9586C62.9566 59.2463 64.1453 57.9134 64.6503 57.9604C65.1552 58.0074 66.1153 58.675 66.1153 58.675Z" fill="#263238"/>
<path d="M65.0618 67.8574C65.0618 67.8574 67.7201 68.619 68.9564 70.4268C70.1928 72.2346 71.248 76.5649 71.6736 78.4197C72.0993 80.2745 71.5446 82.3103 70.315 82.9756C69.0855 83.6409 67.0499 81.095 66.5472 80.1335C66.0445 79.172 66.0422 75.7092 65.6414 73.3771C65.2407 71.0451 64.4051 68.1442 64.4051 68.1442C64.4051 68.1442 64.0089 67.667 65.0618 67.8574Z" fill="#CBA180"/>
<path d="M59.7437 61.8555C59.7437 61.8555 60.0199 64.7117 59.7437 65.33C59.4674 65.9483 58.462 66.6606 56.7661 67.2318C55.0701 67.8031 53.9243 68.2803 53.0072 69.8977C52.0902 71.5151 51.0871 79.7266 49.9368 81.887C48.7639 84.0921 48.4899 88.601 51.2705 90.839C53.5348 92.6703 61.4872 92.4493 64.3267 92.0144C67.1662 91.5795 69.6932 91.998 70.4721 89.9527C71.2511 87.9075 69.6434 84.4494 68.8644 83.4033C68.0855 82.3572 66.5186 81.3228 66.5186 81.3228C66.5186 81.3228 67.4968 79.5597 67.5715 78.088C67.7096 75.4222 65.0513 67.8572 65.0513 67.8572C65.0513 67.8572 63.4481 67.1519 63.0813 66.2398C62.7145 65.3277 62.8549 64.0512 62.8549 64.0512L59.7437 61.8555Z" fill="#C4D0A1"/>
<path d="M54.2444 76.1963C55.252 75.5781 56.4883 72.7242 56.7193 70.4392C56.9004 68.6243 56.4747 67.7122 56.2936 67.416C54.8535 67.9238 53.8345 68.4551 53.0058 69.9173C52.4397 70.9164 51.6992 74.3698 51.0312 77.4141C51.9347 77.4188 53.3318 76.7441 54.2444 76.1963Z" fill="#CBA180"/>
<path d="M63.0903 66.2398C62.7235 65.3371 62.8638 64.0512 62.8638 64.0512L59.7436 61.8555C59.7436 61.8555 60.0198 64.7118 59.7436 65.33C59.5307 65.8002 58.8763 66.3456 57.8008 66.8299C57.991 67.702 58.548 69.9377 59.4243 70.8475C60.5225 71.99 62.6306 72.2274 63.3643 70.7064C64.0979 69.1854 63.7311 67.0908 63.7311 67.0908L63.7492 67.0414C63.4713 66.8324 63.2454 66.5576 63.0903 66.2398Z" fill="#CBA180"/>
<path d="M62.864 64.0518L60.1581 62.1523L59.7891 62.3616C59.8162 62.7212 59.8502 63.2267 59.8638 63.7297C60.4638 64.435 61.3333 65.3071 62.1394 65.467C62.3907 65.517 62.6472 65.5336 62.9025 65.5163C62.8336 65.0315 62.8207 64.5398 62.864 64.0518Z" fill="#263238"/>
<path d="M64.0552 55.4404C64.0552 55.4404 63.0476 57.2012 61.4422 58.1039C60.5748 58.6128 59.6519 59.0121 58.6932 59.2935C58.6932 59.2935 58.7385 59.8647 58.5098 59.8647C58.2811 59.8647 57.7762 59.009 57.4569 58.962C57.1376 58.915 56.1278 60.2926 56.4923 60.8638C56.8332 61.3767 57.312 61.7741 57.869 62.0063C58.3219 62.1967 58.8314 61.5785 58.8314 61.5785C58.8314 61.5785 62.3592 66.0451 64.3767 64.9096C66.3943 63.7742 66.2539 57.9159 66.2539 57.9159C66.2539 57.9159 65.7965 56.63 64.0552 55.4404Z" fill="#CBA180"/>
<path d="M62.701 59.1522C62.701 59.4531 62.5674 59.6976 62.4021 59.6976C62.2368 59.6976 62.1055 59.4625 62.1055 59.1522C62.1055 58.8419 62.2391 58.6045 62.4021 58.6045C62.5651 58.6045 62.701 58.849 62.701 59.1522Z" fill="#263238"/>
<path d="M65.5408 58.8657C65.5408 59.169 65.4072 59.4135 65.2419 59.4135C65.0766 59.4135 64.9453 59.1784 64.9453 58.8657C64.9453 58.553 65.0766 58.3203 65.2419 58.3203C65.4072 58.3203 65.5408 58.5648 65.5408 58.8657Z" fill="#263238"/>
<path d="M63.4102 83.5322C63.4102 83.5322 64.9703 83.7979 65.0631 84.0024C65.156 84.2069 65.6745 85.3707 65.5341 85.7115C65.3937 86.0524 65.1107 85.5658 65.0178 85.2226C64.925 84.8793 63.8857 84.1012 63.8857 84.1012" fill="#CBA180"/>
<path d="M63.1367 83.5615C63.1367 83.5615 64.4591 83.987 64.5882 84.161C64.8621 84.5301 65.4011 85.447 65.2675 85.7879C65.1339 86.1287 64.9505 85.9242 64.2666 84.8146C64.0827 84.5705 63.8653 84.3559 63.6213 84.1775" fill="#CBA180"/>
<path d="M56.0578 67.4033C56.0578 67.4033 52.9693 68.0169 51.228 69.3827C49.4867 70.7486 48.4044 78.0197 48.221 79.7782C48.0375 81.5366 47.8451 83.1939 48.6897 83.5395C49.5343 83.8851 55.8359 84.1742 57.104 84.1742C58.372 84.1742 61.8999 84.6585 62.1806 84.6585C62.4614 84.6585 64.1076 85.7328 64.3906 86.0267C64.6737 86.3206 64.7144 85.7728 64.5786 85.2439C64.3952 84.5386 63.4464 83.4384 62.2757 83.0482C61.1051 82.6579 59.126 82.8531 57.8557 82.1219C56.5854 81.3908 53.5331 79.7217 53.0621 79.6301C52.861 79.5816 52.6566 79.5494 52.4507 79.5337C52.4507 79.5337 54.8962 73.8728 55.1295 73.043" fill="#CBA180"/>
<path d="M70.1441 79.7225C69.1348 79.4607 68.0671 79.614 67.1642 80.1503C65.6991 81.0554 64.8727 81.9111 63.9941 82.1486C63.1155 82.386 61.6573 82.245 60.5568 82.7198C59.7925 83.033 59.0125 83.303 58.22 83.5286C57.6698 83.719 57.7151 84.1468 58.1272 84.1468C58.5393 84.1468 59.0895 84.0998 59.0895 84.0998C59.0895 84.0998 58.3581 85.2894 58.3581 85.6702C58.3581 86.051 59.4564 86.0981 59.8685 86.0017C60.2806 85.9053 60.9689 85.0026 61.1976 84.9085C61.4263 84.8145 62.2981 84.9555 62.9389 84.4807C63.5797 84.0058 63.856 83.7754 63.856 83.7754C63.856 83.7754 66.469 84.6311 68.3847 84.1562C70.3003 83.6814 70.9728 83.23 71.523 81.1847" fill="#CBA180"/>
<path d="M69.068 87.3621C69.068 87.3621 67.0301 86.3795 65.0646 88.2672C63.0992 90.1549 63.1173 91.0882 60.4997 94.9506C57.8821 98.813 54.0961 105.903 53.2968 106.432C52.4975 106.961 49.9501 108.017 49.4474 109.603C48.9447 111.19 49.6739 111.644 50.7562 111.19C51.8386 110.736 53.6659 107.488 53.958 107.262C54.2501 107.036 60.434 101.9 63.7083 99.9344C66.9825 97.9691 68.6377 96.1237 69.9465 92.7244C71.2553 89.325 70.2318 87.5878 69.068 87.3621Z" fill="#CBA180"/>
<path d="M53.9031 107.314C53.5697 107.147 53.2898 106.883 53.097 106.555C52.1415 107.114 49.9269 108.132 49.4424 109.611C48.9329 111.198 49.6688 111.651 50.7512 111.198C51.8018 110.753 53.4955 107.782 53.9031 107.314Z" fill="#263238"/>
<path d="M54.3617 109.016C54.3617 109.016 58.0299 102.819 60.3576 98.9662C62.6854 95.1132 63.779 92.7741 63.779 90.884C63.779 90.884 63.8741 88.103 61.7411 88.0889C60.4301 88.0889 57.9574 88.9211 56.1392 92.5555C54.3209 96.1899 53.0098 108.04 52.7925 108.72C52.5751 109.399 52.566 113.631 53.1548 114.613C53.7435 115.596 54.7556 114.914 54.8281 112.799C54.8734 111.52 54.7158 110.242 54.3617 109.016Z" fill="#CBA180"/>
<path d="M52.7392 108.965C52.5761 110.103 52.6237 113.707 53.1535 114.607C53.7377 115.587 54.7544 114.908 54.8269 112.792C54.8712 111.516 54.7136 110.242 54.3604 109.019C54.3604 109.019 53.5294 110.06 52.7392 108.965Z" fill="#263238"/>
</svg>
