<svg width="159" height="159" viewBox="0 0 159 159" fill="none" xmlns="http://www.w3.org/2000/svg">
<rect width="159" height="159" rx="6" fill="#F7FBFD"/>
<path d="M89.3589 65.6258C91.1045 64.9478 93.117 66.7414 96.4823 67.4825C102.746 68.8622 105.885 70.8134 109.254 73.3205C112.623 75.8275 113.468 75.0194 114.743 76.8051C116.018 78.5908 114.035 80.0493 113.676 83.1752C113.068 88.4416 111.656 92.2416 109.858 94.8709C106.686 99.4908 107.89 101.777 106.056 102.25C104.099 102.759 103.813 100.941 100.444 100.512C92.4795 99.4908 88.8622 97.6341 84.2443 93.2744C82.443 91.5754 80.8197 92.2022 80.0228 90.2982C79.6263 89.3482 80.8567 88.4416 81.3311 84.9885C82.1206 79.253 84.2035 73.5018 86.7682 70.1117C87.8875 68.6335 87.5799 66.3157 89.3589 65.6258Z" fill="#C4D0A1"/>
<path opacity="0.2" d="M113.575 80.6799C112.6 83.4038 113.356 85.6507 111.228 90.7515C109.186 95.6474 107.274 97.3897 106.807 99.4631C106.436 101.19 105.565 102.179 104.891 100.468C104.216 98.7575 104.305 93.3216 106.292 88.142C108.593 82.1779 110.369 79.6511 111.71 78.504C113.823 76.7026 114.342 78.5355 113.575 80.6799Z" fill="black"/>
<path opacity="0.2" d="M91.7579 98.4467C94.0891 99.4164 96.8132 100.055 100.442 100.52C101.681 100.667 102.871 101.115 103.922 101.829C102.565 100.646 102.028 98.7818 99.8449 98.5926C98.2698 98.4467 94.6636 99.176 91.7579 98.4467ZM80.25 90.7442C81.1024 92.1121 82.5961 91.7297 84.2416 93.2828C85.6745 94.6777 87.2352 95.9164 88.9004 96.9803C86.9101 95.3011 86.5099 93.1094 84.9792 92.25C83.1372 91.1699 81.6991 91.915 80.25 90.7363V90.7442Z" fill="black"/>
<path opacity="0.05" d="M92.9508 69.5362C97.4206 69.2209 102.25 70.3995 106.026 73.0839C106.4 73.3688 106.717 73.7292 106.959 74.1445C107.201 74.5599 107.364 75.0219 107.439 75.5043C107.546 76.108 107.507 76.7308 107.327 77.3145C107.147 77.8983 106.831 78.4241 106.408 78.843C105.552 79.7221 104.084 80.1202 103.002 80.2621C100.719 80.5657 99.27 80.3055 96.4051 81.0505C95.3579 81.3476 94.3923 81.9056 93.5883 82.6785C92.3801 83.8966 91.5573 85.1264 90.4899 86.1631C89.0259 87.594 85.9015 87.9764 84.5858 87.1447C83.1812 86.2577 82.4992 84.5391 82.9588 82.0202C83.9928 76.4227 86.9727 70.4586 92.9508 69.5362Z" fill="white"/>
<path d="M67.5682 61.4743C66.1783 60.8948 64.5253 62.2902 61.8086 62.8145C56.7496 63.7921 52.9137 65.5975 50.1562 67.5448C47.3988 69.4921 46.7353 68.822 45.6791 70.2293C44.6228 71.6365 46.1868 72.8506 46.4203 75.3537C46.7909 79.5992 47.8695 82.6936 49.2667 84.834C51.7277 88.6143 50.7158 90.4236 52.1835 90.8454C53.7438 91.2948 54.0107 89.8402 56.7237 89.5682C63.1429 88.9178 67.3643 87.2031 71.1558 83.7933C72.6383 82.4649 73.9318 83.005 74.6063 81.4913C74.9436 80.7344 73.9688 79.9815 73.6538 77.1985C73.1275 72.5668 71.5598 67.9035 69.5769 65.1245C68.6911 63.9261 68.9839 62.0695 67.5682 61.4743Z" fill="#C4D0A1"/>
<path opacity="0.3" d="M67.5682 61.4743C66.1783 60.8948 64.5253 62.2902 61.8086 62.8145C56.7496 63.7921 52.9137 65.5975 50.1562 67.5448C47.3988 69.4921 46.7353 68.822 45.6791 70.2293C44.6228 71.6365 46.1868 72.8506 46.4203 75.3537C46.7909 79.5992 47.8695 82.6936 49.2667 84.834C51.7277 88.6143 50.7158 90.4236 52.1835 90.8454C53.7438 91.2948 54.0107 89.8402 56.7237 89.5682C63.1429 88.9178 67.3643 87.2031 71.1558 83.7933C72.6383 82.4649 73.9318 83.005 74.6063 81.4913C74.9436 80.7344 73.9688 79.9815 73.6538 77.1985C73.1275 72.5668 71.5598 67.9035 69.5769 65.1245C68.6911 63.9261 68.9839 62.0695 67.5682 61.4743Z" fill="black"/>
<path opacity="0.2" d="M46.5483 73.3627C47.2895 75.5741 46.6298 77.3638 48.242 81.5067C49.7912 85.4841 51.296 86.9229 51.6295 88.6021C51.9112 89.9976 52.5783 90.8096 53.1528 89.4496C53.7273 88.0897 53.7569 83.7181 52.2485 79.5121C50.5103 74.6715 49.1278 72.602 48.0753 71.652C46.4223 70.1619 45.9701 71.6401 46.5483 73.3627Z" fill="black"/>
<path opacity="0.2" d="M57.2341 88.0425C55.481 88.1489 55.0103 89.6193 53.8984 90.5574C54.7558 90.0062 55.7208 89.6717 56.7189 89.5799C59.6431 89.2803 61.8446 88.8269 63.7348 88.0977C61.3925 88.6259 58.5053 87.9676 57.2341 88.0425ZM70.5766 82.9456C69.3275 83.6157 68.968 85.3699 67.3336 86.6747C68.6924 85.857 69.9701 84.8956 71.1473 83.8049C72.5001 82.5908 73.6935 82.9298 74.4051 81.834C73.2228 82.7643 72.085 82.1336 70.584 82.9456H70.5766Z" fill="black"/>
<path opacity="0.3" d="M64.6016 64.5448C61.014 64.1979 56.3848 64.9705 53.3012 67.0558C52.7157 67.4854 51.6964 68.5498 51.5667 69.3421C51.4717 69.8229 51.4919 70.3215 51.6253 70.7919C51.7587 71.2623 52.0011 71.6896 52.3302 72.0344C53.0047 72.7558 54.1833 73.1105 55.0432 73.2485C56.8704 73.5363 58.616 73.0475 61.0214 73.5323C62.0564 73.8169 63.0187 74.3434 63.8381 75.0736C64.7869 76.0749 65.4281 77.0801 66.2657 77.9394C67.4146 79.122 69.9201 79.4925 70.9912 78.8539C72.1364 78.168 72.7183 76.8002 72.3958 74.7701C71.6768 70.2684 69.3938 65.3962 64.6016 64.5448Z" fill="#C4D0A1"/>
<path d="M68.0951 109.267L64.5001 102.368L56.9727 107.162L65.1079 117.276C65.1079 117.276 69.6147 117.004 70.3819 114.73C71.1491 112.456 69.207 110.09 68.0951 109.267Z" fill="#CBA180"/>
<path d="M72.2427 112.637C72.6085 112.951 72.9121 113.34 73.1359 113.78C73.3917 114.225 73.2138 116.318 73.4324 117.304C73.6511 118.289 73.8438 118.557 74.2293 119.799C74.6518 121.175 75.4968 122.452 74.3331 125.874C73.1693 129.295 71.4718 130.872 70.0672 131.652C69.545 131.907 68.9731 132.025 68.3993 131.995C68.3993 131.995 66.6389 131.187 66.9613 130.072C67.2838 128.956 72.2427 112.637 72.2427 112.637Z" fill="#263238"/>
<path d="M64.2054 116.055C64.2387 116.417 64.6872 116.989 64.8651 117.293C65.4655 118.306 65.7027 119.658 65.8732 120.821C66.6923 126.367 64.5167 129.059 67.2074 131.259C67.9895 131.838 69.6684 131.771 72.3591 128.432C73.7341 126.729 74.6348 123.127 74.2122 121.455C73.7897 119.784 73.1337 118.676 72.8632 117.391C72.5926 116.106 72.8632 113.753 72.2553 112.633C71.8547 111.998 71.3254 111.466 70.7061 111.076C70.228 110.733 69.6906 109.894 69.1977 109.586C68.7048 109.279 68.4564 108.896 68.108 109.267L68.6529 110.055C69.5016 111.435 68.7196 111.967 68.6529 112.677C68.66 113.443 68.7407 114.206 68.8938 114.955C68.2859 114.06 68.0562 113.288 67.3446 113.378C66.633 113.469 66.5514 113.437 65.4914 114.395C64.4314 115.353 64.1757 115.736 64.2054 116.055Z" fill="#C4D0A1"/>
<path opacity="0.4" d="M64.2054 116.055C64.2387 116.417 64.6872 116.989 64.8651 117.293C65.4655 118.306 65.7027 119.658 65.8732 120.821C66.6923 126.367 64.5167 129.059 67.2074 131.259C67.9895 131.838 69.6684 131.771 72.3591 128.432C73.7341 126.729 74.6348 123.127 74.2122 121.455C73.7897 119.784 73.1337 118.676 72.8632 117.391C72.5926 116.106 72.8632 113.753 72.2553 112.633C71.8547 111.998 71.3254 111.466 70.7061 111.076C70.228 110.733 69.6906 109.894 69.1977 109.586C68.7048 109.279 68.4564 108.896 68.108 109.267L68.6529 110.055C69.5016 111.435 68.7196 111.967 68.6529 112.677C68.66 113.443 68.7407 114.206 68.8938 114.955C68.2859 114.06 68.0562 113.288 67.3446 113.378C66.633 113.469 66.5514 113.437 65.4914 114.395C64.4314 115.353 64.1757 115.736 64.2054 116.055Z" fill="black"/>
<path opacity="0.3" d="M72.3589 128.431C73.734 126.728 74.6346 123.126 74.2121 121.454C74.0666 120.901 73.8909 120.357 73.6858 119.826C73.6858 119.94 73.7303 120.055 73.7414 120.149C73.7636 120.366 73.7784 120.579 73.7895 120.796C73.8692 121.644 73.7415 122.499 73.4189 123.279C73.0965 123.949 72.3478 125.644 71.4768 125.644C70.9839 125.644 70.5911 125.108 70.4243 124.513C70.3576 124.261 70.2538 123.591 70.2538 123.591C69.4477 123.746 68.6705 124.039 67.9522 124.458C66.6513 125.282 66.6884 125.483 66.6884 125.483C66.7517 125.874 66.7517 126.274 66.6884 126.665C66.5972 127.085 66.42 127.478 66.1695 127.816C66.0679 127.915 65.9559 128.001 65.8359 128.073C65.8359 129.342 66.0991 130.355 67.2295 131.277C67.9893 131.837 69.6682 131.77 72.3589 128.431Z" fill="black"/>
<path d="M65.8753 120.82C66.0838 122.278 66.1286 123.757 66.0087 125.227C66.4201 126.658 66.8389 126.638 66.9279 125.913C67.0168 125.188 66.2348 122.113 65.6641 119.578C65.7493 120 65.8197 120.418 65.8753 120.82Z" fill="#37474F"/>
<path d="M69.4058 112.163C69.5095 111.481 69.8616 110.421 69.5095 109.778C69.3872 109.711 69.276 109.644 69.1834 109.585C68.6534 109.226 68.4421 108.895 68.0938 109.266L68.6386 110.054C69.4873 111.434 68.7053 111.966 68.6386 112.676C68.6457 113.442 68.7264 114.205 68.8795 114.954C69.302 117.367 69.7467 118.186 69.895 120.453C70.0433 122.72 69.554 124.214 69.8505 124.356C70.147 124.497 70.7586 124.273 70.9624 122.471C71.1663 120.67 70.5325 117.599 70.0692 116.133C69.6059 114.666 69.2538 113.121 69.4058 112.163Z" fill="#37474F"/>
<path d="M70.3862 123.737C70.3556 123.768 70.3169 123.788 70.2751 123.796C68.774 124.048 67.9624 124.407 66.7949 125.739C66.7543 125.78 66.7006 125.803 66.6448 125.803C66.589 125.803 66.5353 125.78 66.4947 125.739C66.4555 125.696 66.4336 125.639 66.4336 125.579C66.4336 125.52 66.4555 125.463 66.4947 125.42C67.7289 124.013 68.6221 123.607 70.2195 123.339C70.247 123.334 70.275 123.335 70.3021 123.342C70.3291 123.35 70.3545 123.362 70.3769 123.38C70.3993 123.397 70.4182 123.42 70.4325 123.445C70.4468 123.47 70.4563 123.498 70.4604 123.528C70.4662 123.566 70.4624 123.606 70.4494 123.643C70.4364 123.679 70.4146 123.712 70.3862 123.737Z" fill="#EBEBEB"/>
<path d="M70.202 121.845C70.1718 121.877 70.1328 121.898 70.0908 121.905C68.6585 122.094 67.3472 122.855 66.4216 124.033C66.4016 124.055 66.3777 124.072 66.3513 124.084C66.3249 124.096 66.2965 124.102 66.2678 124.102C66.2392 124.102 66.2108 124.096 66.1844 124.084C66.158 124.072 66.134 124.055 66.114 124.033C66.0735 123.99 66.0508 123.931 66.0508 123.87C66.0508 123.808 66.0735 123.75 66.114 123.706C67.4223 122.232 68.3711 121.763 70.0204 121.443C70.066 121.436 70.1128 121.443 70.154 121.466C70.1952 121.488 70.2287 121.524 70.2497 121.567C70.2706 121.611 70.2781 121.661 70.2708 121.709C70.2636 121.758 70.2421 121.803 70.2094 121.838L70.202 121.845Z" fill="#EBEBEB"/>
<path d="M70.3463 119.78C70.3131 119.812 70.272 119.834 70.2277 119.843C68.5117 120.178 67.4925 120.687 66.1249 122.232C66.1028 122.256 66.0766 122.274 66.0476 122.287C66.0187 122.3 65.9876 122.307 65.9562 122.307C65.9249 122.307 65.8938 122.3 65.8649 122.287C65.8359 122.274 65.8097 122.256 65.7876 122.232C65.7435 122.184 65.7188 122.12 65.7188 122.052C65.7188 121.985 65.7435 121.921 65.7876 121.873C67.2256 120.249 68.3338 119.685 70.1536 119.331C70.205 119.319 70.2585 119.326 70.3057 119.351C70.353 119.375 70.3912 119.415 70.4145 119.465C70.4378 119.516 70.4449 119.572 70.4346 119.627C70.4242 119.682 70.3971 119.731 70.3574 119.768L70.3463 119.78Z" fill="#EBEBEB"/>
<path d="M70.1246 117.998C70.0902 118.027 70.0495 118.048 70.006 118.057C68.3234 118.384 67.3375 118.877 65.9958 120.394C65.951 120.44 65.8912 120.465 65.8291 120.465C65.7669 120.465 65.7071 120.44 65.6623 120.394C65.6184 120.347 65.5938 120.283 65.5938 120.217C65.5938 120.15 65.6184 120.087 65.6623 120.039C67.0707 118.463 68.1492 117.903 69.9282 117.556C69.9587 117.549 69.9901 117.549 70.0207 117.556C70.0512 117.562 70.0802 117.575 70.1059 117.594C70.1315 117.613 70.1533 117.637 70.1699 117.665C70.1865 117.693 70.1976 117.724 70.2024 117.757C70.2103 117.801 70.2072 117.846 70.1935 117.888C70.1799 117.93 70.1561 117.968 70.1246 117.998Z" fill="#EBEBEB"/>
<path d="M69.6024 116.244C69.5692 116.276 69.5281 116.298 69.4838 116.307C67.8012 116.634 66.8153 117.123 65.4737 118.644C65.4293 118.691 65.3693 118.717 65.3069 118.717C65.2444 118.717 65.1845 118.691 65.1401 118.644C65.118 118.621 65.1005 118.594 65.0885 118.564C65.0765 118.534 65.0703 118.501 65.0703 118.469C65.0703 118.436 65.0765 118.404 65.0885 118.373C65.1005 118.343 65.118 118.316 65.1401 118.293C66.5485 116.697 67.6233 116.153 69.406 115.806C69.4558 115.797 69.5069 115.806 69.5519 115.83C69.5968 115.854 69.6333 115.893 69.6561 115.941C69.6788 115.989 69.6866 116.044 69.6783 116.097C69.6699 116.15 69.646 116.198 69.6098 116.236L69.6024 116.244Z" fill="#EBEBEB"/>
<path d="M74.4718 84.8698C74.4718 84.8698 62.5302 82.3549 53.02 84.109C46.119 85.3823 46.749 91.3424 47.9869 95.0123C50.4293 102.269 61.6593 113.697 61.6593 113.697C61.6593 113.697 66.848 111.304 67.9599 107.658L65.1098 101.256L73.6786 103.854L74.6237 102.553L74.4718 84.8698Z" fill="#455A64"/>
<path d="M59.6172 111.525C60.8477 112.87 61.6593 113.697 61.6593 113.697C61.6593 113.697 66.8481 111.305 67.9599 107.658L66.7999 105.049L59.6172 111.525Z" fill="#37474F"/>
<path d="M63.5534 95.7771C64.8973 97.7451 66.1347 99.793 67.2596 101.911L65.0989 101.256C62.5045 95.2253 61.9634 93.4593 58.0273 90.7236C58.0385 90.7236 60.8367 91.7446 63.5534 95.7771Z" fill="#37474F"/>
<path d="M64.7446 110.318L60.3341 114.15L57.8398 115.813L60.4268 121.671L68.7066 117.457L64.7446 110.318Z" fill="#CBA180"/>
<path d="M47.7357 118.798C45.8492 119.586 44.6855 120.375 43.8108 121.597C42.9361 122.819 42.673 124.037 43.5032 125.503C44.3334 126.969 45.8529 128.696 47.6579 128.586C49.4628 128.475 50.5784 127.994 52.2536 127.009L47.7357 118.798Z" fill="#263238"/>
<path d="M62.8108 120.497C62.8367 121.096 60.4536 122.298 57.9926 123.552C55.339 124.9 54.6867 125.779 52.5185 126.91C50.0427 128.207 49.1014 128.282 47.1815 127.699C45.2617 127.115 42.8897 124.206 44.539 121.514C45.8843 119.322 47.63 118.719 50.2762 117.966C52.3804 117.401 54.4479 116.691 56.4657 115.841C58.3781 115.053 59.9495 113.634 60.3461 114.123C59.6669 114.668 59.0333 115.275 58.4522 115.936C58.3522 116.117 58.1668 116.488 58.6561 116.271C58.9012 116.142 59.1822 116.114 59.4455 116.192C59.6679 116.31 60.4536 117.576 60.7056 118.21C60.8539 118.581 61.3542 119.815 61.0762 120.343C60.9725 120.548 60.2498 121.104 60.4907 121.254C60.7419 121.292 60.9982 121.256 61.2319 121.151C61.4061 121.076 61.6025 121.025 61.7915 120.958C61.9806 120.891 62.3734 120.713 62.8108 120.497Z" fill="#C4D0A1"/>
<path opacity="0.4" d="M62.8108 120.497C62.8367 121.096 60.4536 122.298 57.9926 123.552C55.339 124.9 54.6867 125.779 52.5185 126.91C50.0427 128.207 49.1014 128.282 47.1815 127.699C45.2617 127.115 42.8897 124.206 44.539 121.514C45.8843 119.322 47.63 118.719 50.2762 117.966C52.3804 117.401 54.4479 116.691 56.4657 115.841C58.3781 115.053 59.9495 113.634 60.3461 114.123C59.6669 114.668 59.0333 115.275 58.4522 115.936C58.3522 116.117 58.1668 116.488 58.6561 116.271C58.9012 116.142 59.1822 116.114 59.4455 116.192C59.6679 116.31 60.4536 117.576 60.7056 118.21C60.8539 118.581 61.3542 119.815 61.0762 120.343C60.9725 120.548 60.2498 121.104 60.4907 121.254C60.7419 121.292 60.9982 121.256 61.2319 121.151C61.4061 121.076 61.6025 121.025 61.7915 120.958C61.9806 120.891 62.3734 120.713 62.8108 120.497Z" fill="black"/>
<path opacity="0.3" d="M53.356 126.477C52.9854 126.666 50.7616 127.777 50.05 127.111C49.2828 126.39 51.0878 125.239 51.0878 125.239C51.0878 125.239 51.362 123.437 49.3162 120.784C48.9456 121.076 47.4853 121.06 47.5038 120.134C47.5224 119.208 50.0019 118.076 50.0352 118.061C47.5038 118.782 45.836 119.401 44.5277 121.529C42.8784 124.222 45.2467 127.147 47.1703 127.714C49.0938 128.282 50.0315 128.207 52.5073 126.926C52.7556 126.78 53.141 126.611 53.356 126.477Z" fill="black"/>
<path d="M50.8453 125.058C49.9076 125.393 50.5488 126.3 51.9238 126.004C53.9808 125.563 55.6894 124.321 57.9798 123.552C60.4556 122.299 62.9795 121.128 62.8165 120.462C62.3717 120.639 61.4266 121.057 61.4266 121.057C61.2413 121.144 60.7632 121.333 60.7632 121.333C58.8841 122.192 56.8086 123.58 54.7776 124.163C52.9912 124.68 51.783 124.727 50.8453 125.058Z" fill="#37474F"/>
<path d="M49.4514 121.124C50.3076 120.595 50.4595 120.146 52.1422 119.322C53.8248 118.498 56.6675 116.744 58.4243 115.656C59.0856 115.191 59.7228 114.689 60.333 114.15C60.0402 113.8 58.9691 114.127 57.898 114.844C56.8269 115.562 56.1709 116.027 55.1072 116.61C53.0428 117.931 50.6893 118.822 49.5107 119.63C48.3322 120.438 48.5916 121.652 49.4514 121.124Z" fill="#37474F"/>
<path d="M49.3257 120.883C49.3369 120.913 49.3533 120.939 49.3739 120.962C50.3173 122.228 50.8769 123.769 50.9787 125.381C50.9831 125.445 51.0092 125.505 51.0522 125.55C51.0951 125.595 51.152 125.622 51.2122 125.625C51.2411 125.624 51.2694 125.616 51.2952 125.603C51.321 125.589 51.3438 125.569 51.3621 125.545C51.3803 125.522 51.3935 125.494 51.4009 125.464C51.4083 125.434 51.4097 125.403 51.4049 125.373C51.1418 122.35 49.7334 120.706 49.6556 120.619C49.6371 120.596 49.6142 120.577 49.5882 120.564C49.5623 120.552 49.5341 120.545 49.5055 120.545C49.4769 120.545 49.4486 120.552 49.4227 120.564C49.3968 120.577 49.3738 120.596 49.3554 120.619C49.3285 120.656 49.3116 120.7 49.3064 120.747C49.3012 120.793 49.3079 120.84 49.3257 120.883Z" fill="#F0F0F0"/>
<path d="M50.9896 119.59C50.998 119.618 51.0119 119.644 51.0303 119.665C52.1119 121.187 52.7983 122.984 53.0206 124.876C53.0252 124.941 53.0525 125.002 53.0971 125.046C53.1417 125.091 53.2003 125.116 53.2615 125.117C53.2903 125.114 53.3182 125.104 53.3433 125.089C53.3684 125.073 53.3902 125.052 53.4073 125.028C53.4244 125.003 53.4365 124.974 53.4426 124.944C53.4488 124.914 53.4489 124.883 53.4431 124.853C53.2182 122.844 52.487 120.937 51.3268 119.334C51.3093 119.31 51.2872 119.29 51.2618 119.275C51.2365 119.261 51.2086 119.252 51.1799 119.25C51.1512 119.247 51.1223 119.252 51.0953 119.262C51.0682 119.273 51.0436 119.289 51.0229 119.31C50.9922 119.348 50.9727 119.395 50.9668 119.445C50.9608 119.495 50.9688 119.545 50.9896 119.59Z" fill="#F0F0F0"/>
<path d="M54.6576 124.69C54.6731 124.734 54.6997 124.772 54.7343 124.801C54.769 124.829 54.8105 124.847 54.854 124.852C54.8829 124.852 54.9115 124.846 54.938 124.834C54.9645 124.821 54.9882 124.803 55.0078 124.781C55.0273 124.758 55.0422 124.731 55.0514 124.702C55.0607 124.673 55.0642 124.642 55.0616 124.612C54.9615 121.415 53.0269 118.415 52.9342 118.305C52.9158 118.281 52.8928 118.263 52.8669 118.25C52.8409 118.237 52.8127 118.23 52.7841 118.23C52.7555 118.23 52.7273 118.237 52.7014 118.25C52.6754 118.263 52.6524 118.281 52.634 118.305C52.5973 118.357 52.579 118.421 52.5824 118.486C52.5858 118.551 52.6106 118.612 52.6525 118.659C52.6711 118.683 54.5427 121.616 54.6317 124.592C54.635 124.626 54.6438 124.659 54.6576 124.69Z" fill="#F0F0F0"/>
<path d="M56.1945 123.646C56.2099 123.689 56.236 123.726 56.27 123.754C56.304 123.782 56.3446 123.799 56.3872 123.804C56.416 123.806 56.4449 123.801 56.4718 123.79C56.4987 123.779 56.5231 123.762 56.5431 123.739C56.5632 123.717 56.5786 123.691 56.5881 123.662C56.5977 123.633 56.6012 123.602 56.5985 123.571C56.5344 121.36 55.7406 119.243 54.3562 117.592C54.3374 117.569 54.3143 117.551 54.2884 117.538C54.2625 117.526 54.2345 117.52 54.2061 117.52C54.1777 117.52 54.1496 117.526 54.1237 117.538C54.0979 117.551 54.0748 117.569 54.056 117.592C54.0216 117.646 54.0065 117.711 54.0133 117.776C54.0201 117.841 54.0483 117.901 54.093 117.946C55.3612 119.501 56.0945 121.468 56.1722 123.524C56.1699 123.566 56.1776 123.608 56.1945 123.646Z" fill="#F0F0F0"/>
<path d="M58.1884 122.751C58.2045 122.793 58.2308 122.83 58.2647 122.858C58.2985 122.885 58.3387 122.903 58.3811 122.909C58.4096 122.911 58.4381 122.906 58.4648 122.895C58.4914 122.884 58.5155 122.867 58.5356 122.846C58.5556 122.824 58.571 122.798 58.5808 122.769C58.5906 122.741 58.5945 122.71 58.5924 122.68C58.5924 119.353 56.3686 116.767 56.2834 116.677C56.2649 116.653 56.242 116.635 56.216 116.622C56.1901 116.609 56.1619 116.603 56.1333 116.603C56.1047 116.603 56.0765 116.609 56.0505 116.622C56.0246 116.635 56.0016 116.653 55.9832 116.677C55.9464 116.729 55.9291 116.795 55.9346 116.86C55.94 116.925 55.9679 116.986 56.0128 117.031C56.0351 117.055 58.155 119.542 58.1662 122.633C58.1655 122.674 58.1731 122.714 58.1884 122.751Z" fill="#EBEBEB"/>
<path d="M73.7231 84.7197L98.4624 89.5407C98.4624 89.5407 100.92 99.3954 98.8107 105.237C96.7019 111.079 91.1796 112.924 88.537 113.121C84.7566 113.433 80.3833 112.191 80.3833 112.191C79.0313 113.297 77.5577 114.223 75.9951 114.95C73.7713 115.884 64.1091 120.193 64.1091 120.193C64.1091 120.193 60.1842 118.845 60.4548 113.748L71.896 101.071L73.7231 84.7197Z" fill="#455A64"/>
<path d="M82.4109 108.781C82.4109 108.781 80.9507 111.036 76.2141 113.173C73.7013 114.308 65.655 118.372 62.6641 119.346C63.0948 119.708 63.5763 119.997 64.091 120.201C64.091 120.201 73.7643 115.892 75.9769 114.958C77.5395 114.231 79.0131 113.305 80.3651 112.199C82.4443 110.271 82.4109 108.781 82.4109 108.781Z" fill="#37474F"/>
<path d="M85.427 111.246C87.7916 111.64 94.1663 110.402 96.2344 105.624C98.2617 100.949 97.5798 95.3755 97.1276 90.5664L97.8911 90.7596L98.7732 90.9764C99.3588 93.9249 100.43 100.764 98.8103 105.238C96.7014 111.068 91.1791 112.925 88.5366 113.122C84.7562 113.433 80.3828 112.192 80.3828 112.192L81.6392 110.122C82.8542 110.659 84.1262 111.036 85.427 111.246Z" fill="#37474F"/>
<path d="M70.2934 102.825C70.2934 102.825 71.2236 101.761 72.1465 100.59C73.0693 99.4194 74.5926 97.2119 78.4768 97.3696C82.3609 97.5272 89.8253 98.2447 89.8253 98.2447C89.8253 98.2447 82.0422 96.8335 79.3514 96.3565C76.6607 95.8795 74.8706 96.2146 73.3362 97.6573C71.8018 99.1001 69.0703 102.459 69.0703 102.459L70.2934 102.825Z" fill="#37474F"/>
<path d="M75.9818 97.0265C74.7142 95.4305 74.0649 93.3814 74.1658 91.2949C74.1658 91.2949 73.2355 95.0634 74.7254 97.803L75.9818 97.0265Z" fill="#37474F"/>
<path d="M77.9673 56.5C75.0023 57.0795 72.5599 57.8876 70.7735 61.183C69.0834 64.3089 62.0156 77.4276 62.0156 77.4276L70.225 82.0081L76.2291 71.0417L77.9673 56.5Z" fill="#C4D0A1"/>
<path opacity="0.55" d="M77.9673 56.5C75.0023 57.0795 72.5599 57.8876 70.7735 61.183C69.0834 64.3089 62.0156 77.4276 62.0156 77.4276L70.225 82.0081L76.2291 71.0417L77.9673 56.5Z" fill="white"/>
<path d="M73.7963 68.0698C74.8155 59.0941 77.8732 56.7921 79.415 56.2875L85.5377 55.5977C87.3538 55.9918 94.9553 59.2557 97.0604 60.0323C98.4132 60.5329 98.9988 63.58 99.2842 68.3891C99.5214 72.2877 99.5584 75.5516 99.4361 80.9362C99.3361 85.4497 99.2323 90.5939 97.9351 96.8694C88.158 99.0217 77.3469 94.2717 72.4102 84.1095C72.6844 82.8638 72.8067 81.2989 73.018 78.1966C73.2292 75.0943 73.522 70.502 73.7963 68.0698Z" fill="#263238"/>
<path d="M97.816 60.2414L91.2745 57.0879C91.2745 57.0879 90.448 59.1298 88.6801 63.052C86.9123 66.9742 86.827 68.752 86.6787 75.5951C86.5305 82.4383 86.6787 97.2244 85.9375 99.9995C88.7728 100.417 98.1681 99.6999 99.8804 98.5883C99.8804 98.5883 100.036 87.3893 100.277 80.3964C100.518 73.4034 101.037 62.2202 97.816 60.2414Z" fill="#C4D0A1"/>
<path opacity="0.35" d="M97.816 60.2414L91.2745 57.0879C91.2745 57.0879 90.448 59.1298 88.6801 63.052C86.9123 66.9742 86.827 68.752 86.6787 75.5951C86.5305 82.4383 86.6787 97.2244 85.9375 99.9995C88.7728 100.417 98.1681 99.6999 99.8804 98.5883C99.8804 98.5883 100.036 87.3893 100.277 80.3964C100.518 73.4034 101.037 62.2202 97.816 60.2414Z" fill="white"/>
<path d="M82.7657 56.5C80.1713 57.5801 78.2552 60.6548 77.64 64.9081C77.0247 69.1614 76.4132 77.8336 75.9833 81.0424C75.5533 84.2511 73.8855 88.9853 73.8855 88.9853C72.7069 88.1969 71.4542 85.4376 71.4023 83.4666C72.0398 81.4957 72.1436 80.5575 72.4142 77.8809C72.6847 75.2044 73.3444 69.0274 73.7225 65.7635C74.1005 62.4996 75.205 58.4473 77.9661 56.4803C79.5347 56.0975 81.1299 55.851 82.7361 55.7432L82.7657 56.5Z" fill="#C4D0A1"/>
<path opacity="0.35" d="M82.7657 56.5C80.1713 57.5801 78.2552 60.6548 77.64 64.9081C77.0247 69.1614 76.4132 77.8336 75.9833 81.0424C75.5533 84.2511 73.8855 88.9853 73.8855 88.9853C72.7069 88.1969 71.4542 85.4376 71.4023 83.4666C72.0398 81.4957 72.1436 80.5575 72.4142 77.8809C72.6847 75.2044 73.3444 69.0274 73.7225 65.7635C74.1005 62.4996 75.205 58.4473 77.9661 56.4803C79.5347 56.0975 81.1299 55.851 82.7361 55.7432L82.7657 56.5Z" fill="white"/>
<path d="M77.3574 67.3638C77.728 64.2339 79.3884 58.6325 82.5758 57.509C82.6968 57.1934 82.7609 56.8565 82.7648 56.5157L82.7352 54.8916C81.7814 55.2487 80.8697 55.7223 80.0185 56.3028C78.6435 57.2489 76.2678 60.2683 75.6562 62.7084C77.035 61.443 77.5835 63.4692 77.3574 67.3638Z" fill="#C4D0A1"/>
<path opacity="0.55" d="M77.3574 67.3638C77.728 64.2339 79.3884 58.6325 82.5758 57.509C82.6968 57.1934 82.7609 56.8565 82.7648 56.5157L82.7352 54.8916C81.7814 55.2487 80.8697 55.7223 80.0185 56.3028C78.6435 57.2489 76.2678 60.2683 75.6562 62.7084C77.035 61.443 77.5835 63.4692 77.3574 67.3638Z" fill="white"/>
<path d="M90.9328 53.3624C91.4739 51.218 93.7162 49.1485 94.8058 47.3392C95.8547 45.5968 96.507 44.2251 96.5625 42.4946C96.5922 41.4657 96.1104 40.023 95.4247 39.6603C96.5848 35.951 94.0682 33.9209 92.6784 33.4164C92.0238 33.1994 91.3837 32.936 90.7623 32.628C90.021 32.2062 89.9061 31.5282 89.3317 30.9014C88.3458 29.8253 86.5409 29.6203 85.7218 31.0197C85.0954 29.9672 84.1244 29.8923 82.9792 30.0815C82.4971 30.1484 82.0568 30.4074 81.7472 30.8062C81.4377 31.2049 81.2819 31.7137 81.3113 32.2298C79.8956 31.1892 78.4242 32.1747 78.2018 33.0971C78.0387 33.779 78.124 34.3742 77.6459 34.9498C77.1048 35.5962 76.2041 35.4937 75.9781 34.9025C75.7372 35.8682 76.0299 36.6527 77.0343 36.7C76.8396 36.9549 76.7003 37.2525 76.6266 37.5715C76.5529 37.8905 76.5466 38.2229 76.6081 38.5448C76.693 38.9494 76.8916 39.317 77.1776 39.5986C77.4636 39.8803 77.8234 40.0626 78.2092 40.1215C78.204 40.6535 78.3104 41.18 78.5205 41.6628C78.7792 42.1654 79.1494 42.593 79.5991 42.9085C81.0408 43.8269 82.6938 44.2448 84.2912 44.769L86.1888 45.3879C86.3 45.4273 86.8818 45.5219 86.93 45.6363L90.9328 53.3624Z" fill="#263238"/>
<path d="M93.6666 50.7928C92.1434 51.5811 91.2576 50.4735 91.2576 50.4735L91.0241 54.8845V58.4755C91.0241 58.4755 86.9472 63.127 81.3878 62.8471C81.1062 61.5226 81.5101 59.193 82.407 58.0537L82.5442 54.6519C81.7275 54.584 80.9156 54.4629 80.1129 54.2892C79.3003 54.0559 78.5707 53.5721 78.0161 52.8987C77.4615 52.2253 77.1065 51.3925 76.9959 50.505C76.6985 48.0193 76.8494 45.4961 77.4407 43.0706C77.6014 42.4893 77.6838 41.8868 77.6853 41.2809C77.6853 39.6766 78.0263 38.7778 78.5303 37.4809C80.4353 36.1446 84.7346 36.1013 88.3296 38.9513C87.6736 41.3164 88.3852 43.3229 89.953 44.4108C89.8196 45.0533 89.5823 46.6932 90.6053 46.776C91.3465 46.8272 91.4688 45.8654 92.2879 45.0849C93.107 44.3044 94.8823 44.2531 95.4308 45.5816C96.1943 47.4224 95.3344 49.961 93.6666 50.7928Z" fill="#CBA180"/>
<path d="M82.5214 54.6512C85.0973 54.5881 87.0616 54.4856 88.5626 52.6566C89.2714 51.7077 89.8827 50.681 90.3861 49.5938C90.3861 49.5938 89.9117 51.9589 88.9333 53.5159C88.192 54.6985 86.5131 55.5893 82.4844 55.5539L82.5214 54.6512Z" fill="#B16668"/>
<path d="M84.2177 44.0084C84.2051 44.1586 84.2342 44.3094 84.3015 44.4421C84.3689 44.5748 84.4714 44.6835 84.5964 44.7547C84.7214 44.8259 84.8633 44.8564 85.0044 44.8424C85.1456 44.8285 85.2798 44.7707 85.3903 44.6762C85.5008 44.5818 85.5827 44.4548 85.6259 44.3112C85.6691 44.1676 85.6716 44.0136 85.6332 43.8685C85.5947 43.7234 85.5169 43.5935 85.4096 43.495C85.3022 43.3965 85.17 43.3338 85.0294 43.3146C84.8355 43.2936 84.6416 43.3546 84.4897 43.4844C84.3378 43.6142 84.2401 43.8025 84.2177 44.0084Z" fill="#263238"/>
<path d="M85.0156 41.7023L86.3906 42.8848C86.5351 42.6828 86.6003 42.4291 86.5727 42.177C86.545 41.925 86.4267 41.694 86.2424 41.5328C86.1522 41.4562 86.0484 41.3997 85.9372 41.3667C85.826 41.3337 85.7097 41.3248 85.5952 41.3406C85.4807 41.3564 85.3704 41.3966 85.2708 41.4588C85.1712 41.5209 85.0845 41.6037 85.0156 41.7023Z" fill="#263238"/>
<path d="M78.3475 41.1897L80.1042 40.9492C80.0957 40.8264 80.0636 40.7068 80.01 40.5977C79.9563 40.4886 79.8823 40.3923 79.7924 40.3148C79.7025 40.2373 79.5986 40.1801 79.4871 40.1469C79.3757 40.1136 79.259 40.1049 79.1443 40.1214C78.908 40.1568 78.6936 40.2874 78.5453 40.4862C78.3969 40.685 78.3261 40.9369 78.3475 41.1897Z" fill="#263238"/>
<path d="M78.3701 43.0383C78.3573 43.1887 78.3865 43.3397 78.4539 43.4726C78.5213 43.6054 78.6241 43.7142 78.7492 43.7854C78.8744 43.8565 79.0166 43.8869 79.1579 43.8727C79.2992 43.8585 79.4335 43.8004 79.5439 43.7055C79.6544 43.6107 79.7361 43.4834 79.7789 43.3394C79.8218 43.1955 79.8238 43.0413 79.7848 42.8962C79.7458 42.751 79.6674 42.6213 79.5595 42.5232C79.4516 42.4251 79.319 42.3629 79.1781 42.3445C78.9848 42.3245 78.7919 42.3861 78.6408 42.5158C78.4897 42.6455 78.3925 42.8331 78.3701 43.0383Z" fill="#263238"/>
<path d="M79 46.0424L81.3275 47.5876L82.7804 42.5262C81.9057 42.0374 80.401 44.237 79 46.0424Z" fill="#B16668"/>
<path d="M84.1115 49.2432L81.0391 49.4718C81.0427 49.6889 81.0876 49.903 81.1711 50.1011C81.2546 50.2993 81.3749 50.4774 81.5249 50.6247C81.6748 50.7721 81.8513 50.8856 82.0436 50.9585C82.2359 51.0313 82.4401 51.062 82.6439 51.0487C83.0611 51.0095 83.4475 50.7991 83.7215 50.4621C83.9954 50.1251 84.1353 49.6879 84.1115 49.2432Z" fill="#B16668"/>
<path d="M83.6832 49.7046C83.8087 49.7093 83.9332 49.7305 84.0538 49.7677C83.9721 50.109 83.7927 50.4149 83.5404 50.643C83.2881 50.8711 82.9754 51.0102 82.6455 51.0409C82.4804 51.0515 82.3149 51.0315 82.1562 50.9818C82.2088 50.6015 82.3964 50.2572 82.6804 50.0196C82.9645 49.782 83.3234 49.6693 83.6832 49.7046Z" fill="#FFA8A7"/>
<path d="M86.9297 69.4533C87.6413 63.3117 90.0615 62.9924 90.6359 65.0107C92.7374 61.664 92.83 58.7903 92.7967 57.6432C92.2222 56.5868 91.7737 55.6999 91.581 55.3017C91.329 54.7774 91.0399 54.8839 91.0399 54.8839V56.4606C91.0399 56.4606 90.7026 58.2503 88.9755 60.509C87.6783 62.1489 87.2336 64.2696 86.9297 69.4533Z" fill="#C4D0A1"/>
<path opacity="0.55" d="M86.9297 69.4533C87.6413 63.3117 90.0615 62.9924 90.6359 65.0107C92.7374 61.664 92.83 58.7903 92.7967 57.6432C92.2222 56.5868 91.7737 55.6999 91.581 55.3017C91.329 54.7774 91.0399 54.8839 91.0399 54.8839V56.4606C91.0399 56.4606 90.7026 58.2503 88.9755 60.509C87.6783 62.1489 87.2336 64.2696 86.9297 69.4533Z" fill="white"/>
<path d="M59.7253 80.1594C59.036 79.3395 59.0804 79.2134 59.3547 78.7206C59.5625 78.3311 59.8543 77.9997 60.2061 77.7536C60.5579 77.5076 60.9597 77.354 61.3783 77.3055C62.1196 77.2424 62.8608 77.1399 63.2611 77.3055C63.6614 77.4711 63.4241 78.354 62.4902 78.697C61.0077 79.2331 61.0707 79.6667 61.0707 79.6667C61.6981 79.4344 62.3364 79.237 62.9831 79.0754C63.539 78.9769 64.5879 79.1424 65.2365 79.174C65.8851 79.2055 66.1001 80.0688 65.0512 80.4945L66.2372 80.5576C67.0711 80.6009 67.3935 81.0306 66.808 81.6416C66.6218 81.8559 66.3717 81.9951 66.1001 82.0358C66.1001 82.0358 66.971 81.9333 67.0192 82.2408C67.16 83.1159 66.6486 83.4233 64.9437 84.1565C63.3204 84.87 63.0906 85.8712 63.4612 86.4941C63.4612 86.4941 62.7422 86.1551 62.0973 85.7845C61.6229 85.5125 61.2115 85.1893 61.3338 84.4364C61.3338 84.4364 60.3776 84.5665 60.2553 83.9436C60.194 83.4833 60.2256 83.0143 60.348 82.5679C60.1655 82.4838 60.0089 82.3468 59.8962 82.1725C59.7835 81.9983 59.7191 81.7938 59.7105 81.5825C59.668 81.1827 59.7514 80.7793 59.9477 80.4354L59.7253 80.1594Z" fill="#CBA180"/>
<path d="M65.0526 80.4949C64.6964 80.4574 64.3377 80.4574 63.9815 80.4949C63.6297 80.5941 63.2946 80.751 62.9882 80.96C62.3755 81.3291 61.794 81.7538 61.25 82.2294C61.9047 81.9589 62.537 81.6306 63.1402 81.2478C63.4264 81.0515 63.7292 80.884 64.0445 80.7472C64.3484 80.6526 64.7153 80.6053 65.0526 80.4949Z" fill="#B16668"/>
<path d="M66.0999 82.0236C65.714 81.9538 65.3178 81.9877 64.9473 82.1222C64.5828 82.2515 64.2305 82.4164 63.8947 82.6149C63.2248 82.9992 62.5949 83.4577 62.0156 83.9828C62.708 83.6606 63.3846 83.3014 64.0429 82.9066C64.6713 82.4794 65.3688 82.18 66.0999 82.0236Z" fill="#B16668"/>
<path d="M77.3848 89.8568C75.0758 89.3089 73.9861 89.3325 71.351 87.9844C70.4389 87.5617 69.5696 87.0413 68.7566 86.4313C68.0472 85.8685 67.4669 85.1421 67.0592 84.3066C67.0006 84.1451 66.9221 83.9927 66.8257 83.8533C66.7172 83.7294 66.6021 83.6122 66.481 83.5024C66.2389 83.3087 66.0242 83.079 65.8435 82.8205C65.6836 82.5205 65.5508 82.205 65.4469 81.8784C65.3966 81.7279 65.3384 81.5805 65.2727 81.4369C65.1932 81.2976 65.1027 81.1657 65.0022 81.0427C64.7212 80.734 64.4896 80.3784 64.3165 79.9902C64.2763 79.8866 64.2609 79.7739 64.2719 79.6624C64.2829 79.5509 64.3199 79.4441 64.3795 79.3516C64.3795 79.3516 64.0089 78.985 63.8718 78.851C63.696 78.6646 63.5383 78.4599 63.4011 78.24C63.3334 78.1603 63.2975 78.0557 63.301 77.9483C63.3181 77.8923 63.3504 77.843 63.3937 77.8064C64.0126 77.1796 64.8539 77.5226 65.5618 77.8813C67.3964 78.8195 69.4534 80.2228 70.3169 80.6958C71.1805 81.1688 72.0478 81.4211 71.9736 80.8732C71.8995 80.3253 70.8173 78.9022 70.6727 77.223C70.6023 76.3873 71.2806 75.4413 71.918 76.3991C73.1448 78.2479 73.1745 77.8695 74.7051 79.5527C75.7169 80.6722 76.3322 82.2016 77.9555 82.6431C79.5789 83.0846 89.8155 84.0228 89.8155 84.0228L93.0696 70.7662C93.0696 70.7662 94.6114 62.5788 97.7951 60.2334C101.083 61.8102 102.862 64.4 103.065 66.1738C103.436 69.284 102.735 72.0276 100.979 79.2452C99.4962 85.367 98.0471 89.1867 96.9574 91.3586C95.6047 94.047 94.7337 93.7238 89.2596 92.829C85.2531 92.1667 79.7049 90.4047 77.3848 89.8568Z" fill="#CBA180"/>
<path d="M89.8398 84.0307C91.9895 83.7232 94.4875 84.8191 94.4875 84.8191C93.164 83.8935 91.6234 83.3801 90.04 83.3369L89.8398 84.0307Z" fill="#B16668"/>
<path d="M64.4141 79.458C64.7847 79.8522 65.1924 80.1991 65.5926 80.542C65.9929 80.885 66.408 81.224 66.812 81.563C67.0158 81.7325 67.2123 81.9138 67.4272 82.0754C67.6422 82.237 67.8535 82.3868 68.0721 82.5287C68.5132 82.8165 68.9579 83.0845 69.4138 83.3171L68.7763 82.852C68.5651 82.7022 68.3501 82.5484 68.1425 82.3908C67.935 82.2331 67.72 82.0794 67.5199 81.9099C67.3198 81.7404 67.1196 81.5669 66.9158 81.3974C66.5081 81.0545 66.093 80.7273 65.6705 80.4119L64.4141 79.458Z" fill="#B16668"/>
<path d="M65.2344 81.373C65.4695 81.7317 65.7364 82.0657 66.0312 82.3703C66.3203 82.6699 66.6205 82.9537 66.9281 83.2257C67.2358 83.4977 67.5471 83.7579 67.8695 84.0141C68.1894 84.2646 68.5236 84.4937 68.8702 84.7C68.5589 84.4319 68.2587 84.156 67.9511 83.884L67.0356 83.072L66.1202 82.26C65.82 81.9762 65.5235 81.6766 65.2344 81.373Z" fill="#B16668"/>
<path d="M85.168 83.5694C86.1835 84.8505 85.8536 90.7752 85.168 92.2179C88.3849 93.225 91.7057 93.8088 95.0562 93.9563C96.2867 93.9799 96.9094 93.1245 98.0212 90.3691C99.1331 87.6138 101.457 80.5893 102.469 75.4688C103.481 70.3482 104.04 66.6862 102.976 64.3723C101.913 62.0584 100.011 61.1321 97.8211 60.2412C96.4053 61.1124 94.1927 63.647 92.7917 69.9856L89.6711 83.7822L85.168 83.5694Z" fill="#C4D0A1"/>
<path opacity="0.55" d="M85.168 83.5694C86.1835 84.8505 85.8536 90.7752 85.168 92.2179C88.3849 93.225 91.7057 93.8088 95.0562 93.9563C96.2867 93.9799 96.9094 93.1245 98.0212 90.3691C99.1331 87.6138 101.457 80.5893 102.469 75.4688C103.481 70.3482 104.04 66.6862 102.976 64.3723C101.913 62.0584 100.011 61.1321 97.8211 60.2412C96.4053 61.1124 94.1927 63.647 92.7917 69.9856L89.6711 83.7822L85.168 83.5694Z" fill="white"/>
<path opacity="0.35" d="M89.668 83.7858C91.243 84.0996 92.7505 84.7183 94.1155 85.611C94.1155 85.611 93.1481 83.4271 89.8644 82.8516L89.668 83.7858Z" fill="#C4D0A1"/>
</svg>
