<svg width="159" height="159" viewBox="0 0 159 159" fill="none" xmlns="http://www.w3.org/2000/svg">
<rect width="159" height="159" rx="6" fill="#F7FBFD"/>
<path d="M116.837 110.885H112.219V115.621H116.837V110.885Z" fill="#263238"/>
<path d="M132.989 110.885H128.371V115.621H132.989V110.885Z" fill="#263238"/>
<path d="M31.8875 110.885H27.2695V115.621H31.8875V110.885Z" fill="#263238"/>
<path d="M47.8953 110.885H43.2773V115.621H47.8953V110.885Z" fill="#263238"/>
<path d="M51.0273 91.3824C51.1793 90.2688 52.0805 58.4102 52.0805 58.4102H136.996V91.3824H51.0273Z" fill="#C4D0A1"/>
<g opacity="0.6">
<path opacity="0.6" d="M51.0273 91.3824C51.1793 90.2688 52.0805 58.4102 52.0805 58.4102H136.996V91.3824H51.0273Z" fill="black"/>
</g>
<path d="M48.6658 77.0732H34.7539V110.881H48.6658V77.0732Z" fill="#C4D0A1"/>
<g opacity="0.6">
<path opacity="0.6" d="M48.6658 77.0732H34.7539V110.881H48.6658V77.0732Z" fill="black"/>
</g>
<path d="M46.6406 91.3824C46.7673 90.4544 46.6841 68.447 46.6406 60.9119C46.6397 60.5837 46.7019 60.2586 46.8237 59.9551C46.9455 59.6516 47.1245 59.3758 47.3504 59.1434C47.5763 58.9109 47.8448 58.7265 48.1403 58.6007C48.4358 58.4749 48.7527 58.4102 49.0727 58.4102H132.616V91.3824H46.6406Z" fill="#C4D0A1"/>
<g opacity="0.4">
<path opacity="0.4" d="M46.6406 91.3824C46.7673 90.4544 46.6841 68.447 46.6406 60.9119C46.6397 60.5837 46.7019 60.2586 46.8237 59.9551C46.9455 59.6516 47.1245 59.3758 47.3504 59.1434C47.5763 58.9109 47.8448 58.7265 48.1403 58.6007C48.4358 58.4749 48.7527 58.4102 49.0727 58.4102H132.616V91.3824H46.6406Z" fill="black"/>
</g>
<path d="M107.392 91.3828H34.9414V110.881H107.392V91.3828Z" fill="#C4D0A1"/>
<path d="M34.9119 77.0732H21V110.881H34.9119V77.0732Z" fill="#C4D0A1"/>
<path d="M121.299 76.9951H107.391V110.884H121.299V76.9951Z" fill="#C4D0A1"/>
<path d="M136.999 76.9951H120.938V110.884H136.999V76.9951Z" fill="#C4D0A1"/>
<g opacity="0.4">
<path opacity="0.4" d="M136.999 76.9951H120.938V110.884H136.999V76.9951Z" fill="black"/>
</g>
<path d="M107.392 110.884C107.345 110.884 107.309 103.297 107.309 93.9397C107.309 84.5821 107.348 76.9951 107.392 76.9951C107.435 76.9951 107.475 84.5784 107.475 93.9397C107.475 103.301 107.435 110.884 107.392 110.884Z" fill="#263238"/>
<path d="M136.959 76.9362C136.959 76.9844 130.339 77.0216 122.175 77.0216C114.01 77.0216 107.391 76.9844 107.391 76.9362C107.391 76.8879 114.01 76.8545 122.175 76.8545C130.339 76.8545 136.959 76.8916 136.959 76.9362Z" fill="#263238"/>
<path d="M121.118 110.917C121.071 110.917 121.035 103.308 121.035 93.9283C121.035 84.5485 121.071 76.9355 121.118 76.9355C121.165 76.9355 121.198 84.5411 121.198 93.9283C121.198 103.316 121.162 110.917 121.118 110.917Z" fill="#263238"/>
<path d="M113.626 81.8208C113.733 81.7993 113.844 81.7993 113.952 81.8208C114.256 81.8434 114.551 81.9387 114.813 82.0992C114.998 82.2157 115.147 82.3829 115.244 82.5818C115.34 82.816 115.368 83.074 115.323 83.3241C115.277 83.6131 115.153 83.883 114.965 84.1034C114.777 84.3238 114.532 84.4859 114.259 84.5713C113.981 84.6366 113.689 84.6177 113.421 84.5169C113.152 84.4161 112.918 84.2378 112.746 84.0034C112.595 83.7986 112.509 83.5511 112.5 83.2944C112.495 83.0738 112.541 82.8551 112.634 82.656C112.765 82.3697 112.987 82.1379 113.264 81.999C113.339 81.9634 113.418 81.9384 113.499 81.9248C113.557 81.9248 113.586 81.9248 113.586 81.9248C113.586 81.9248 113.474 81.9582 113.293 82.0621C113.046 82.2116 112.852 82.4379 112.739 82.708C112.651 82.9019 112.616 83.1171 112.639 83.3299C112.662 83.5427 112.742 83.7449 112.87 83.9143C113.025 84.1207 113.234 84.2772 113.474 84.3653C113.713 84.4535 113.972 84.4696 114.219 84.4117C114.463 84.3336 114.681 84.1884 114.849 83.992C115.018 83.7957 115.13 83.5557 115.175 83.2982C115.219 83.0759 115.2 82.8454 115.121 82.6337C115.041 82.4559 114.916 82.3033 114.759 82.192C114.515 82.0309 114.241 81.9234 113.955 81.8765C113.844 81.8677 113.734 81.8491 113.626 81.8208Z" fill="#263238"/>
<path d="M112.399 88.0114C112.297 87.8421 112.232 87.6522 112.207 87.4547C112.117 86.9824 112.131 86.4955 112.247 86.0293C112.36 85.562 112.57 85.1251 112.862 84.7487C112.975 84.5859 113.12 84.4503 113.289 84.3516C113.187 84.5137 113.076 84.6698 112.956 84.8193C112.443 85.5769 112.216 86.5008 112.319 87.4176C112.357 87.6137 112.384 87.812 112.399 88.0114Z" fill="#263238"/>
<path d="M115.87 85.3284C115.578 85.2266 115.332 85.0204 115.178 84.7476C115.023 84.4749 114.969 84.1539 115.026 83.8438C115.097 84.1273 115.194 84.4033 115.316 84.6677C115.547 85.0797 115.895 85.2839 115.87 85.3284Z" fill="#263238"/>
<path d="M113.884 79.4082C113.884 79.4305 113.79 79.527 113.66 79.72C113.491 79.9642 113.385 80.2473 113.349 80.5441C113.317 80.842 113.36 81.1432 113.472 81.4201C113.555 81.6353 113.638 81.7541 113.62 81.7727C113.602 81.7912 113.486 81.6873 113.367 81.4683C113.213 81.1808 113.149 80.8514 113.186 80.5255C113.223 80.1989 113.357 79.8919 113.569 79.6458C113.732 79.4602 113.873 79.3934 113.884 79.4082Z" fill="#263238"/>
<path d="M27.3368 81.8209C27.4456 81.7993 27.5574 81.7993 27.6662 81.8209C27.9694 81.8436 28.2632 81.939 28.5239 82.0993C28.7086 82.2158 28.8577 82.383 28.9546 82.5819C29.051 82.8161 29.0787 83.0741 29.0342 83.3243C28.9878 83.6126 28.864 83.882 28.6767 84.1023C28.4894 84.3226 28.246 84.4851 27.9738 84.5715C27.6951 84.6367 27.4039 84.6178 27.1355 84.517C26.867 84.4163 26.6328 84.2379 26.461 84.0035C26.3105 83.7981 26.2235 83.5512 26.2113 83.2945C26.2064 83.0739 26.2522 82.8551 26.3452 82.6561C26.476 82.3686 26.6998 82.1365 26.9785 81.9991C27.0531 81.963 27.1323 81.938 27.2138 81.9248C27.2681 81.9248 27.297 81.9248 27.297 81.9248C27.297 81.9248 27.1848 81.9583 27.0075 82.0622C26.7588 82.2103 26.5633 82.4368 26.4502 82.7081C26.3629 82.9023 26.329 83.1173 26.352 83.3298C26.3749 83.5424 26.4539 83.7445 26.5805 83.9144C26.736 84.1205 26.9457 84.2767 27.1848 84.3648C27.4239 84.4529 27.6825 84.4692 27.9304 84.4118C28.1743 84.3348 28.3928 84.19 28.5614 83.9934C28.73 83.7969 28.8423 83.5563 28.8858 83.2983C28.9312 83.0761 28.9123 82.8452 28.8315 82.6338C28.7528 82.4552 28.6276 82.3024 28.4696 82.1921C28.2263 82.0242 27.9514 81.9104 27.6626 81.858C27.5532 81.8551 27.4442 81.8427 27.3368 81.8209Z" fill="#263238"/>
<path d="M26.1073 88.0114C26.0053 87.8421 25.9399 87.6522 25.9155 87.4547C25.8288 86.9816 25.8427 86.4949 25.9564 86.0278C26.0701 85.5608 26.2808 85.1245 26.5742 84.7487C26.6848 84.5857 26.8295 84.45 26.9976 84.3516C26.8967 84.5147 26.7855 84.671 26.6647 84.8193C26.4108 85.1997 26.2245 85.6232 26.1146 86.0702C26.0068 86.5166 25.9786 86.9794 26.0313 87.4361C26.071 87.6256 26.0964 87.818 26.1073 88.0114Z" fill="#263238"/>
<path d="M29.5766 85.3284C29.2852 85.2266 29.0395 85.0204 28.8846 84.7476C28.7296 84.4749 28.6759 84.1539 28.7334 83.8438C28.8077 84.1261 28.9046 84.4017 29.0229 84.6677C29.2545 85.0797 29.6019 85.2839 29.5766 85.3284Z" fill="#263238"/>
<path d="M27.5937 79.4083C27.5937 79.4305 27.4996 79.527 27.3729 79.72C27.2033 79.9639 27.0951 80.247 27.058 80.5441C27.0304 80.8419 27.0726 81.1423 27.1811 81.4201C27.2643 81.6353 27.3476 81.7541 27.3295 81.7727C27.3114 81.7912 27.1956 81.6873 27.0761 81.4683C26.9205 81.1767 26.8584 80.8423 26.8987 80.5124C26.939 80.1826 27.0796 79.8742 27.3005 79.631C27.4453 79.4602 27.5828 79.3934 27.5937 79.4083Z" fill="#263238"/>
<path d="M34.8452 77.3623C34.8923 77.3623 34.9285 84.8713 34.9285 94.1286C34.9285 103.386 34.8923 110.895 34.8452 110.895C34.7982 110.895 34.7656 103.39 34.7656 94.1286C34.7656 84.8676 34.8018 77.3623 34.8452 77.3623Z" fill="#263238"/>
<path d="M132.537 58.54C132.584 58.54 132.62 62.623 132.62 67.7045C132.62 72.786 132.584 76.869 132.537 76.869C132.49 76.869 132.457 72.7674 132.457 67.7045C132.457 62.6416 132.493 58.54 132.537 58.54Z" fill="#263238"/>
<path d="M46.6398 58.4141C46.6869 58.4141 46.6869 65.7969 46.6398 74.8983C46.5928 83.9997 46.5276 91.3863 46.4806 91.3863C46.4336 91.3863 46.4336 84.0071 46.4806 74.8983C46.5276 65.7895 46.5964 58.4141 46.6398 58.4141Z" fill="#263238"/>
<path d="M107.478 103.297C107.478 103.346 91.1706 103.383 71.0556 103.383C50.9405 103.383 34.6328 103.346 34.6328 103.297C34.6328 103.249 50.9369 103.212 71.0556 103.212C91.1742 103.212 107.478 103.253 107.478 103.297Z" fill="#263238"/>
<path d="M107.478 91.3863C107.478 91.4346 91.1706 91.4717 71.0556 91.4717C50.9405 91.4717 34.6328 91.4346 34.6328 91.3863C34.6328 91.3381 50.9369 91.3047 71.0556 91.3047C91.1742 91.3047 107.478 91.3418 107.478 91.3863Z" fill="#263238"/>
<path d="M69.6135 106.983L66.7472 111.79C66.7472 111.79 61.0218 110.417 60.4102 111.252L69.2806 117.284L74.0433 109.986L69.6135 106.983Z" fill="#263238"/>
<path d="M69.7542 113.26C69.8228 113.345 69.8582 113.452 69.8536 113.562C69.8489 113.672 69.8044 113.776 69.7289 113.854C69.6492 113.928 69.5448 113.967 69.4376 113.963C69.3304 113.96 69.2286 113.914 69.1535 113.836C69.0823 113.746 69.046 113.632 69.0513 113.516C69.0566 113.401 69.1033 113.291 69.1824 113.208C69.2734 113.14 69.3864 113.111 69.4978 113.127C69.6092 113.143 69.7102 113.203 69.7796 113.294" fill="#E0E0E0"/>
<path d="M69.2837 117.284L69.7361 116.542L61.0502 111.041C61.0502 111.041 60.5435 110.948 60.4023 111.264L69.2837 117.284Z" fill="#E0E0E0"/>
<path d="M66.6356 111.645C66.6066 111.69 66.8129 111.861 66.9323 112.147C67.0518 112.432 67.0445 112.7 67.0988 112.707C67.1531 112.714 67.2508 112.418 67.0988 112.072C66.9468 111.727 66.65 111.597 66.6356 111.645Z" fill="#455A64"/>
<path d="M65.4484 111.409C65.4086 111.446 65.5498 111.65 65.5751 111.936C65.6004 112.222 65.5136 112.452 65.5751 112.481C65.6366 112.511 65.8067 112.274 65.7705 111.917C65.7344 111.561 65.4774 111.368 65.4484 111.409Z" fill="#455A64"/>
<path d="M64.181 112.195C64.2171 112.229 64.4198 112.047 64.4668 111.727C64.5139 111.408 64.3728 111.174 64.3293 111.2C64.2859 111.226 64.3293 111.442 64.2859 111.701C64.2425 111.961 64.1412 112.162 64.181 112.195Z" fill="#455A64"/>
<path d="M67.4062 110.625C67.4062 110.677 67.6379 110.751 67.8695 110.937C68.1011 111.122 68.2314 111.33 68.293 111.308C68.3545 111.286 68.2568 111.003 67.9781 110.792C67.6994 110.58 67.4062 110.577 67.4062 110.625Z" fill="#455A64"/>
<path d="M67.9994 109.667C67.9994 109.686 68.1406 109.831 68.4482 109.968C68.6279 110.047 68.8163 110.103 69.0092 110.135C69.1228 110.155 69.2377 110.168 69.353 110.172C69.4202 110.182 69.4885 110.182 69.5557 110.172C69.6048 110.161 69.6487 110.132 69.6802 110.092C69.7118 110.051 69.7291 110.001 69.7294 109.949C69.7277 109.904 69.7157 109.859 69.6944 109.82C69.673 109.78 69.6429 109.745 69.6063 109.719C69.5502 109.679 69.4878 109.649 69.4218 109.63C69.3117 109.588 69.1977 109.557 69.0816 109.537C68.8874 109.506 68.6895 109.506 68.4953 109.537C68.3125 109.549 68.1372 109.616 67.9922 109.73C67.9922 109.756 68.1949 109.686 68.5097 109.667C68.6917 109.655 68.8744 109.668 69.0526 109.708C69.1573 109.731 69.2602 109.762 69.3602 109.801C69.4724 109.838 69.5521 109.894 69.5484 109.953C69.5448 110.013 69.5484 109.983 69.505 109.998C69.4557 110.004 69.4059 110.004 69.3566 109.998C69.2456 109.998 69.1371 109.99 69.0309 109.975C68.8479 109.951 68.6675 109.91 68.4916 109.853C68.3323 109.779 68.1678 109.716 67.9994 109.667Z" fill="#455A64"/>
<path d="M68.0185 109.767C68.0185 109.786 68.2175 109.686 68.4202 109.396C68.5362 109.232 68.6243 109.048 68.6808 108.854C68.7146 108.739 68.7364 108.621 68.7459 108.501C68.7617 108.425 68.7576 108.346 68.7341 108.272C68.7106 108.197 68.6685 108.131 68.612 108.078C68.5718 108.053 68.5254 108.039 68.4781 108.039C68.4307 108.039 68.3844 108.053 68.3442 108.078C68.2878 108.118 68.2357 108.164 68.1886 108.216C68.1087 108.308 68.0417 108.412 67.9895 108.524C67.9034 108.711 67.8648 108.918 67.8773 109.125C67.899 109.478 68.0438 109.652 68.0583 109.641C68.0293 109.469 68.0112 109.296 68.004 109.121C68.0117 108.939 68.0587 108.76 68.1415 108.598C68.1881 108.504 68.2478 108.418 68.3188 108.342C68.3948 108.253 68.4817 108.197 68.5107 108.234C68.5376 108.269 68.5568 108.31 68.5668 108.354C68.5768 108.397 68.5774 108.443 68.5686 108.487C68.561 108.595 68.5453 108.703 68.5215 108.81C68.4759 108.991 68.4052 109.165 68.3116 109.325C68.1524 109.611 67.9967 109.745 68.0185 109.767Z" fill="#455A64"/>
<path d="M93.1287 110.362L93.3639 115.989C93.3639 115.989 87.8629 118.123 87.8086 119.166L98.4633 119.096V110.313L93.1287 110.362Z" fill="#263238"/>
<path d="M96.6553 115.495C96.7583 115.526 96.8464 115.595 96.9026 115.689C96.9587 115.783 96.9789 115.895 96.9593 116.003C96.9327 116.109 96.8676 116.2 96.7774 116.258C96.6872 116.316 96.5787 116.337 96.4744 116.315C96.3653 116.282 96.2719 116.209 96.2124 116.11C96.1529 116.01 96.1315 115.892 96.1522 115.777C96.1915 115.669 96.27 115.581 96.3712 115.531C96.4724 115.481 96.5885 115.474 96.6951 115.51" fill="#E0E0E0"/>
<path d="M98.4643 119.095L98.4281 118.212L88.2258 118.605C88.2258 118.605 87.7517 118.821 87.8096 119.162L98.4643 119.095Z" fill="#E0E0E0"/>
<path d="M93.1886 115.936C93.1886 115.988 93.4492 116.011 93.7061 116.181C93.9631 116.352 94.1042 116.575 94.1513 116.552C94.1983 116.53 94.1187 116.222 93.7894 116.025C93.46 115.829 93.1669 115.888 93.1886 115.936Z" fill="#455A64"/>
<path d="M92.082 116.419C92.082 116.467 92.2956 116.56 92.4729 116.79C92.6502 117.02 92.7045 117.254 92.7551 117.25C92.8058 117.247 92.8384 116.946 92.614 116.671C92.3896 116.397 92.082 116.378 92.082 116.419Z" fill="#455A64"/>
<path d="M91.4507 117.792C91.4977 117.792 91.5701 117.536 91.4507 117.247C91.3312 116.957 91.0707 116.839 91.049 116.876C91.0273 116.913 91.1792 117.076 91.2878 117.317C91.3964 117.559 91.4 117.789 91.4507 117.792Z" fill="#455A64"/>
<path d="M93.2758 114.649C93.2975 114.697 93.5364 114.619 93.8295 114.649C94.1226 114.678 94.3542 114.764 94.3796 114.715C94.4049 114.667 94.1841 114.482 93.8367 114.467C93.4893 114.452 93.2468 114.604 93.2758 114.649Z" fill="#455A64"/>
<path d="M93.25 113.512C93.4254 113.561 93.6103 113.561 93.7856 113.512C94.0912 113.451 94.3832 113.333 94.647 113.163C94.7068 113.13 94.7606 113.086 94.8062 113.034C94.8406 112.996 94.8614 112.948 94.8653 112.896C94.8693 112.845 94.8561 112.794 94.828 112.751C94.8023 112.714 94.7682 112.683 94.7285 112.662C94.6889 112.64 94.6448 112.629 94.5999 112.629C94.5325 112.628 94.4653 112.638 94.4009 112.659C94.2866 112.688 94.1751 112.727 94.0679 112.777C93.8895 112.863 93.7248 112.975 93.5794 113.112C93.3333 113.349 93.25 113.55 93.2681 113.561C93.2862 113.572 93.4129 113.408 93.6626 113.212C93.8083 113.098 93.9676 113.005 94.1367 112.933C94.2357 112.894 94.3373 112.862 94.4407 112.837C94.5529 112.803 94.6506 112.803 94.6796 112.855C94.7085 112.907 94.6796 112.881 94.6796 112.915C94.6449 112.953 94.6046 112.986 94.5601 113.011C94.466 113.074 94.3719 113.13 94.2815 113.178C94.117 113.263 93.9449 113.332 93.7676 113.383C93.5923 113.413 93.4194 113.457 93.25 113.512Z" fill="#455A64"/>
<path d="M93.3167 113.587C93.4164 113.43 93.4646 113.244 93.4542 113.056C93.4675 112.733 93.3936 112.412 93.2407 112.128C93.2097 112.054 93.1597 111.989 93.0961 111.94C93.0325 111.892 92.9575 111.862 92.8788 111.854C92.8313 111.855 92.7851 111.87 92.7459 111.898C92.7067 111.926 92.6762 111.964 92.6581 112.009C92.6292 112.073 92.6109 112.14 92.6038 112.21C92.5852 112.333 92.5852 112.458 92.6038 112.581C92.6319 112.787 92.7117 112.981 92.8354 113.145C93.0453 113.427 93.2624 113.491 93.2661 113.472C93.2697 113.453 93.0996 113.342 92.9403 113.071C92.847 112.915 92.7878 112.74 92.7666 112.559C92.7523 112.454 92.7523 112.348 92.7666 112.243C92.7666 112.124 92.8209 112.032 92.8643 112.043C92.9078 112.054 93.0091 112.128 93.0525 112.221C93.1067 112.315 93.1515 112.415 93.1864 112.518C93.2468 112.694 93.2833 112.878 93.295 113.064C93.342 113.379 93.2878 113.58 93.3167 113.587Z" fill="#455A64"/>
<path d="M98.0833 72.7903C98.0362 72.7903 98 69.4497 98 65.337C98 61.2243 98.0362 57.8799 98.0833 57.8799C98.1303 57.8799 98.1629 61.2205 98.1629 65.337C98.1629 69.4534 98.1267 72.7903 98.0833 72.7903Z" fill="#455A64"/>
<path d="M105.757 53.2254C105.757 53.2254 103.625 52.2157 97.6244 53.0806C93.904 53.6151 72.1133 58.4109 72.1133 58.4109L75.5044 58.5631L98.6667 58.6559L105.757 53.2254Z" fill="#263238"/>
<path d="M117.534 59.9358L114.769 71.268L113.209 77.2069L107.849 77.2514V80.3731L97.3789 80.9929L98.081 72.8046L97.9688 57.3004C99.8689 54.936 101.526 54.9805 101.526 54.9805C102.004 54.9248 102.381 54.8877 102.656 54.8506C104.847 55.5614 107.199 55.5614 109.391 54.8506C110.433 54.8951 111.294 55.2218 112.181 55.3999C114.968 55.9493 116.976 58.0316 117.534 59.9543C117.534 59.9543 122.467 74.1001 117.451 78.068L114.045 71.409L117.534 59.9358Z" fill="#263238"/>
<path d="M116.869 71.4652C116.844 71.4949 116.471 71.1385 115.917 70.8639C115.363 70.5892 114.864 70.4927 114.871 70.4593C115.251 70.4527 115.626 70.5501 115.957 70.7414C116.32 70.8913 116.636 71.1419 116.869 71.4652Z" fill="#455A64"/>
<path d="M112.503 67.6867C112.494 67.5297 112.494 67.3723 112.503 67.2153C112.503 66.8924 112.529 66.4729 112.547 65.9421C112.59 64.8657 112.662 63.381 112.746 61.7404C112.789 60.92 112.833 60.1406 112.872 59.4279C112.875 58.793 112.948 58.1604 113.089 57.5423C113.201 57.1207 113.447 56.7495 113.788 56.4881C113.881 56.4195 113.984 56.3646 114.092 56.3248C114.129 56.3105 114.168 56.3017 114.208 56.2988C114.072 56.3622 113.942 56.4392 113.821 56.529C113.505 56.7972 113.281 57.1611 113.18 57.5683C113.052 58.1782 112.989 58.8004 112.992 59.4242C112.956 60.1368 112.919 60.9089 112.88 61.7366C112.793 63.3773 112.709 64.862 112.641 65.9347C112.605 66.4581 112.576 66.8849 112.554 67.2079C112.554 67.3452 112.532 67.4603 112.525 67.5531C112.518 67.6459 112.51 67.6867 112.503 67.6867Z" fill="#455A64"/>
<path d="M117.347 73.993L111.556 67.0853L109.385 66.4023L108.766 70.0733L112.023 76.6284C112.229 77.0956 112.53 77.512 112.906 77.8496C113.432 78.3229 114.084 78.625 114.778 78.7176C115.472 78.8101 116.177 78.6888 116.804 78.3692L117.426 78.05L117.347 73.993Z" fill="#263238"/>
<path d="M106.021 60.2515C105.977 60.2515 105.938 59.9916 105.938 59.6687C105.938 59.3458 105.974 59.0859 106.017 59.0859C106.061 59.0859 106.1 59.3458 106.1 59.6687C106.1 59.9916 106.068 60.2515 106.021 60.2515Z" fill="#455A64"/>
<path d="M107.937 59.8623C107.897 59.8623 107.777 59.6767 107.672 59.4095C107.567 59.1422 107.517 58.9084 107.557 58.8898C107.596 58.8713 107.719 59.0754 107.824 59.3464C107.929 59.6174 107.98 59.8475 107.937 59.8623Z" fill="#455A64"/>
<path d="M109.269 58.5961C109.236 58.6295 109.063 58.5144 108.882 58.3399C108.701 58.1654 108.574 57.9947 108.607 57.9687C108.639 57.9427 108.809 58.0504 108.994 58.2248C109.178 58.3993 109.298 58.5589 109.269 58.5961Z" fill="#455A64"/>
<path d="M109.89 57.4237C109.864 57.4608 109.705 57.3903 109.528 57.2641C109.35 57.1379 109.245 57.0079 109.274 56.9708C109.303 56.9337 109.455 57.0042 109.636 57.1304C109.817 57.2567 109.915 57.3866 109.89 57.4237Z" fill="#455A64"/>
<path d="M110.26 55.9831C110.26 56.0277 110.072 56.0759 109.837 56.0908C109.602 56.1056 109.41 56.0908 109.406 56.0314C109.403 55.972 109.594 55.9349 109.83 55.9237C110.065 55.9126 110.257 55.9349 110.26 55.9831Z" fill="#455A64"/>
<path d="M104.389 59.7136C104.345 59.7136 104.389 59.4909 104.45 59.2497C104.512 59.0085 104.624 58.8229 104.667 58.8377C104.711 58.8526 104.667 59.0604 104.606 59.3017C104.544 59.5429 104.418 59.7285 104.389 59.7136Z" fill="#455A64"/>
<path d="M103.616 57.9574C103.648 57.9908 103.533 58.1504 103.363 58.31C103.192 58.4696 103.03 58.5736 103.001 58.5364C102.972 58.4993 103.084 58.3472 103.254 58.1875C103.424 58.0279 103.587 57.924 103.616 57.9574Z" fill="#455A64"/>
<path d="M103.014 56.8555C103.014 56.9 102.87 56.9928 102.652 57.0596C102.435 57.1264 102.261 57.145 102.247 57.1005C102.233 57.0559 102.392 56.9669 102.609 56.9C102.826 56.8332 103 56.8147 103.014 56.8555Z" fill="#455A64"/>
<path d="M102.819 55.8755C102.819 55.92 102.606 55.9571 102.342 55.9534C102.077 55.9497 101.871 55.9126 101.871 55.8643C101.871 55.8161 102.085 55.7827 102.345 55.7864C102.606 55.7901 102.819 55.8087 102.819 55.8755Z" fill="#455A64"/>
<path d="M117.145 73.6213C117.036 73.5289 116.937 73.4257 116.848 73.3132L116.085 72.4261C115.444 71.6837 114.568 70.6258 113.609 69.4566C113.124 68.8776 112.683 68.3059 112.245 67.8271C111.871 67.3953 111.425 67.0357 110.927 66.7655C110.589 66.5891 110.22 66.4843 109.842 66.4574C109.57 66.4574 109.422 66.4574 109.422 66.4574C109.422 66.4574 109.454 66.4389 109.527 66.424C109.631 66.4035 109.736 66.3923 109.842 66.3906C110.235 66.3927 110.623 66.4839 110.978 66.6579C111.498 66.9207 111.966 67.2807 112.357 67.7195C112.806 68.202 113.247 68.7699 113.732 69.3452C114.691 70.5108 115.542 71.5724 116.172 72.3407C116.461 72.7119 116.707 73.02 116.895 73.2612C116.991 73.372 117.074 73.4927 117.145 73.6213Z" fill="#455A64"/>
<path d="M117.976 77.5529C117.976 77.5529 117.951 77.5974 117.886 77.668C117.79 77.7682 117.689 77.8624 117.582 77.9501C116.898 78.4893 116.05 78.7625 115.189 78.7211C114.328 78.6796 113.508 78.3262 112.877 77.7236C112.534 77.3862 112.234 77.0044 111.987 76.5878C111.473 75.7378 111.089 74.8841 110.702 74.1232L109.699 72.0854C109.432 71.5249 109.207 71.0609 109.041 70.7083C108.951 70.5435 108.876 70.3709 108.816 70.1924C108.921 70.3474 109.014 70.5099 109.095 70.6786L109.819 72.0334C110.116 72.6162 110.463 73.2992 110.85 74.0489C111.238 74.7987 111.636 75.6636 112.139 76.4987C112.382 76.9056 112.674 77.2797 113.007 77.6123C113.325 77.9132 113.693 78.1534 114.093 78.3212C114.77 78.6102 115.517 78.6776 116.232 78.5142C116.715 78.403 117.171 78.1949 117.575 77.9018C117.832 77.6902 117.966 77.5418 117.976 77.5529Z" fill="#455A64"/>
<path d="M74.0621 112.484L89.4071 91.6051L107.865 91.709V80.373L86.9208 81.546C85.6744 81.6157 84.462 81.9887 83.384 82.6341C82.306 83.2795 81.3932 84.1789 80.7212 85.2578L66.918 107.221L74.0621 112.484Z" fill="#455A64"/>
<path d="M89.443 88.9443C89.4817 89.4258 89.4671 89.9102 89.3995 90.3883C89.3881 90.87 89.32 91.3486 89.1969 91.8136C89.1582 91.3334 89.1727 90.8503 89.2403 90.3734C89.2516 89.8904 89.3197 89.4106 89.443 88.9443Z" fill="#263238"/>
<path d="M88.3164 89.2305C88.4855 89.5921 88.633 89.964 88.7579 90.344C88.9305 90.7046 89.0792 91.0766 89.2031 91.4576C88.937 91.1495 88.734 90.7897 88.6059 90.3997C88.4324 90.0344 88.3339 89.6364 88.3164 89.2305Z" fill="#263238"/>
<path d="M97.3811 80.9785L94.9563 82.196C94.1487 82.6029 93.4594 83.2203 92.9576 83.9864C92.4559 84.7525 92.1591 85.6404 92.0972 86.5611L90.418 111.85L100.363 111.779L101.286 90.6961L97.3811 80.9785Z" fill="#455A64"/>
<path d="M100.44 80.9193C100.371 80.9397 100.299 80.951 100.227 80.9527L99.6078 81.0232C98.8523 81.1048 98.1036 81.2425 97.3675 81.4352C96.2747 81.7043 95.2585 82.2318 94.3999 82.9756C93.3932 83.9405 92.672 85.1767 92.3189 86.5427C92.1237 87.2459 91.9952 87.9669 91.9353 88.6955C91.8593 89.4008 91.8014 90.0838 91.7507 90.737C91.6494 92.0399 91.5806 93.2165 91.5227 94.2039C91.4648 95.1912 91.4358 95.993 91.4141 96.546C91.4141 96.8059 91.4069 97.0174 91.3924 97.1808C91.4009 97.2547 91.4009 97.3295 91.3924 97.4035C91.3848 97.3294 91.3848 97.2548 91.3924 97.1808C91.3924 97.036 91.3924 96.8096 91.3924 96.5423C91.3924 95.9893 91.4141 95.1875 91.4539 94.1965C91.4937 93.2054 91.5516 92.0325 91.6457 90.7259C91.6928 90.0726 91.7471 89.3859 91.8195 88.677C91.8801 87.9384 92.0098 87.2075 92.2067 86.4944C92.5652 85.0987 93.3062 83.8376 94.342 82.8606C95.2226 82.1083 96.2644 81.5804 97.382 81.3201C98.1248 81.133 98.8813 81.0088 99.644 80.949C99.9154 80.9267 100.125 80.9156 100.266 80.9119C100.324 80.9081 100.383 80.9106 100.44 80.9193Z" fill="#263238"/>
<path d="M101.223 87.3857C101.269 87.7313 101.287 88.0801 101.277 88.4288C101.277 89.0709 101.277 89.9617 101.256 90.9454C101.234 91.929 101.18 92.8013 101.133 93.462C101.121 93.8098 101.082 94.1561 101.017 94.4976C100.989 94.1505 100.989 93.8017 101.017 93.4546C101.038 92.7604 101.064 91.8956 101.093 90.9417C101.122 89.9877 101.143 89.1192 101.162 88.4288C101.158 88.08 101.178 87.7315 101.223 87.3857Z" fill="#263238"/>
<path d="M102.47 88.6398C102.441 89.2342 102.295 89.8165 102.039 90.3509C101.832 90.9036 101.52 91.4083 101.12 91.8357C101.077 91.8097 101.518 91.1601 101.887 90.273C102.257 89.3859 102.423 88.6286 102.47 88.6398Z" fill="#263238"/>
<path d="M109.916 40.6567L109.869 41.5958L109.261 55.6823C109.193 57.3155 107.763 58.5552 106.059 58.4661C104.336 58.3733 102.975 56.9591 103.018 55.3074C103.066 53.5739 103.087 51.744 103.087 51.744C103.087 51.744 100.916 51.306 100.554 48.3736C100.373 46.9186 100.746 44.5505 100.695 42.6017C100.623 39.9329 102.396 39.5989 104.09 39.8364L109.916 40.6567Z" fill="#FFBE9D"/>
<path d="M101.157 44.2869C101.152 44.3848 101.185 44.4807 101.249 44.5537C101.312 44.6267 101.402 44.6709 101.497 44.6767C101.59 44.684 101.682 44.6541 101.755 44.5933C101.827 44.5324 101.873 44.4452 101.884 44.35C101.884 44.2553 101.849 44.1641 101.786 44.0951C101.723 44.0261 101.636 43.9845 101.544 43.9789C101.454 43.971 101.364 43.9984 101.292 44.0554C101.22 44.1125 101.172 44.1951 101.157 44.2869Z" fill="#263238"/>
<path d="M101.16 43.8524C101.204 43.9007 101.486 43.7002 101.884 43.7151C102.282 43.7299 102.557 43.9378 102.608 43.8895C102.659 43.8413 102.586 43.7782 102.463 43.6817C102.297 43.5566 102.097 43.4866 101.891 43.4812C101.687 43.4729 101.485 43.5328 101.316 43.652C101.182 43.7411 101.131 43.8301 101.16 43.8524Z" fill="#263238"/>
<path d="M105.137 44.4207C105.132 44.5186 105.165 44.6145 105.229 44.6875C105.293 44.7606 105.382 44.8048 105.477 44.8105C105.571 44.8179 105.663 44.788 105.735 44.7271C105.807 44.6662 105.854 44.5791 105.865 44.4839C105.865 44.3891 105.83 44.2979 105.766 44.2289C105.703 44.1599 105.617 44.1183 105.524 44.1126C105.434 44.1048 105.344 44.1322 105.272 44.1892C105.201 44.2463 105.152 44.3289 105.137 44.4207Z" fill="#263238"/>
<path d="M105.013 44.0497C105.057 44.0979 105.339 43.8975 105.737 43.9123C106.135 43.9272 106.41 44.135 106.461 44.0868C106.511 44.0385 106.439 43.9754 106.316 43.8789C106.15 43.7538 105.95 43.6839 105.744 43.6785C105.539 43.6701 105.338 43.7301 105.169 43.8492C105.035 43.9383 104.991 44.0274 105.013 44.0497Z" fill="#263238"/>
<path d="M103.501 46.9897C103.297 46.9161 103.084 46.8687 102.868 46.8486C102.767 46.8486 102.673 46.8115 102.658 46.741C102.654 46.6352 102.68 46.5305 102.734 46.4403L103.056 45.6683C103.349 45.0133 103.591 44.3356 103.78 43.6416C103.436 44.2699 103.14 44.9253 102.897 45.6015C102.788 45.8724 102.687 46.1323 102.589 46.3809C102.524 46.5033 102.501 46.6445 102.524 46.7818C102.538 46.819 102.56 46.8524 102.588 46.8794C102.616 46.9065 102.65 46.9264 102.687 46.9377C102.742 46.9557 102.799 46.9657 102.857 46.9674C103.07 47.0014 103.287 47.0089 103.501 46.9897Z" fill="#263238"/>
<path d="M103.089 51.7408C104.426 51.8055 105.755 51.4867 106.925 50.8203C106.925 50.8203 105.915 52.8395 103.078 52.4758L103.089 51.7408Z" fill="#EB996E"/>
<path d="M104.648 47.3048C104.583 47.3048 104.569 47.7353 104.196 48.0471C103.823 48.3589 103.371 48.2847 103.364 48.3441C103.356 48.4035 103.465 48.4331 103.653 48.4443C103.903 48.4543 104.148 48.3756 104.348 48.2216C104.541 48.0729 104.671 47.8535 104.71 47.6091C104.721 47.4124 104.677 47.3011 104.648 47.3048Z" fill="#263238"/>
<path d="M104.959 42.4683C104.995 42.5797 105.389 42.5388 105.845 42.6131C106.301 42.6873 106.674 42.8247 106.739 42.7281C106.804 42.6316 106.707 42.576 106.558 42.4646C106.364 42.3255 106.139 42.2375 105.903 42.2085C105.669 42.1713 105.43 42.1917 105.205 42.2679C105.031 42.3347 104.944 42.4163 104.959 42.4683Z" fill="#263238"/>
<path d="M101.341 42.6913C101.406 42.7841 101.681 42.6913 102.004 42.6913C102.326 42.6913 102.604 42.7693 102.669 42.6913C102.735 42.6134 102.669 42.554 102.539 42.4649C102.379 42.3529 102.19 42.293 101.996 42.293C101.803 42.293 101.613 42.3529 101.453 42.4649C101.352 42.554 101.312 42.6468 101.341 42.6913Z" fill="#263238"/>
<path d="M100.633 40.7017C100.635 40.8943 100.698 41.0809 100.814 41.2325C100.93 41.3842 101.091 41.4925 101.273 41.5406C102.201 41.7648 103.175 41.6696 104.045 41.2696C105.341 40.7054 106.828 40.4864 107.136 40.7648C107.444 41.0432 107.429 42.3795 108.652 42.8472C108.652 42.8472 108.414 45.3787 109.405 45.3527C110.397 45.3267 110.375 41.7447 110.375 41.7447L107.679 39.9927L105.08 39.3135L102.576 39.5139L100.629 40.3231L100.633 40.7017Z" fill="#263238"/>
<path d="M109.253 44.3098C109.3 44.2875 111.037 43.7456 111.001 45.5718C110.965 47.3981 109.191 46.9861 109.191 46.9304C109.191 46.8747 109.253 44.3098 109.253 44.3098Z" fill="#FFBE9D"/>
<path d="M109.741 46.251C109.741 46.251 109.77 46.2732 109.82 46.2992C109.895 46.3302 109.978 46.3302 110.052 46.2992C110.167 46.2251 110.261 46.1213 110.324 45.9981C110.388 45.875 110.419 45.7369 110.414 45.5977C110.42 45.4414 110.393 45.2856 110.334 45.1411C110.318 45.084 110.289 45.0316 110.25 44.9883C110.21 44.945 110.161 44.9121 110.106 44.8924C110.071 44.8814 110.033 44.8836 109.999 44.8986C109.966 44.9135 109.938 44.9403 109.922 44.9741C109.896 45.026 109.922 45.0632 109.896 45.0669C109.871 45.0706 109.86 45.0335 109.875 44.9592C109.884 44.9142 109.91 44.8745 109.947 44.8479C109.997 44.8101 110.059 44.7941 110.121 44.8033C110.194 44.8195 110.261 44.8546 110.317 44.9053C110.373 44.956 110.415 45.0206 110.439 45.0929C110.511 45.2533 110.544 45.4288 110.537 45.6051C110.543 45.7682 110.501 45.9294 110.417 46.0681C110.333 46.2069 110.211 46.3171 110.066 46.3846C110.018 46.3973 109.968 46.3988 109.919 46.3892C109.87 46.3796 109.824 46.359 109.784 46.3289C109.741 46.2955 109.733 46.2547 109.741 46.251Z" fill="#EB996E"/>
<path d="M100.622 40.3935C100.622 40.3935 100.402 37.8398 105.733 37.7953C111.064 37.7508 110.372 41.7409 110.372 41.7409L107.245 40.2859L100.622 40.3935Z" fill="#263238"/>
<path d="M110.325 41.1543C110.325 41.1543 110.213 41.3065 109.963 41.4438C109.626 41.6172 109.254 41.7075 108.877 41.7075C108.5 41.7075 108.129 41.6172 107.792 41.4438C107.538 41.3065 107.43 41.1729 107.43 41.1543C107.878 41.3889 108.374 41.5113 108.877 41.5113C109.381 41.5113 109.877 41.3889 110.325 41.1543Z" fill="#455A64"/>
<path d="M110.381 41.7441C109.997 42.0583 109.529 42.2436 109.039 42.2748C108.55 42.306 108.063 42.1816 107.645 41.9186C108.098 42.027 108.562 42.0818 109.027 42.0819C109.489 42.0215 109.943 41.9082 110.381 41.7441Z" fill="#455A64"/>
<path d="M103.811 62.2897L103.847 64.0528C103.883 64.4306 103.819 64.8113 103.663 65.1552L103.171 66.239C103.137 66.312 103.124 66.3927 103.131 66.4729L103.587 71.9255C103.588 71.9441 103.593 71.9622 103.601 71.9788C103.609 71.9953 103.621 72.0101 103.635 72.0222C103.648 72.0342 103.664 72.0434 103.682 72.0491C103.699 72.0548 103.717 72.057 103.735 72.0555L106.725 71.7919C106.761 71.7882 106.794 71.7702 106.818 71.7419C106.841 71.7135 106.853 71.677 106.851 71.6397L106.399 66.2168C106.392 66.132 106.362 66.051 106.312 65.9829L105.642 64.9733C105.448 64.6644 105.324 64.3141 105.281 63.9489L104.919 62.208L103.811 62.2897Z" fill="#455A64"/>
<path d="M106.469 67.0596L104.449 67.234L104.753 70.8679L106.769 70.6897" fill="#FAFAFA"/>
<path d="M104.888 62.2076L103.863 62.2967C103.801 62.3018 103.738 62.2813 103.69 62.2396C103.642 62.1978 103.612 62.1383 103.607 62.0739C103.604 62.0417 103.607 62.0092 103.616 61.9783C103.625 61.9474 103.641 61.9187 103.661 61.8939C103.681 61.8691 103.706 61.8485 103.734 61.8336C103.762 61.8186 103.792 61.8095 103.824 61.8067L104.848 61.7176C104.911 61.7124 104.973 61.7329 105.021 61.7747C105.069 61.8164 105.099 61.8759 105.105 61.9403C105.108 61.9725 105.105 62.005 105.095 62.0359C105.086 62.0668 105.071 62.0955 105.051 62.1203C105.03 62.1452 105.006 62.1657 104.978 62.1806C104.95 62.1956 104.919 62.2048 104.888 62.2076Z" fill="#455A64"/>
<path d="M104.791 63.9896L103.857 64.0712L103.828 62.991L104.7 62.9131L104.791 63.9896Z" fill="#FAFAFA"/>
<path d="M106.618 68.867C106.628 69.0126 106.596 69.158 106.526 69.285C106.455 69.412 106.35 69.515 106.223 69.5811C106.097 69.6472 105.953 69.6734 105.812 69.6566C105.671 69.6397 105.537 69.5805 105.429 69.4863C105.32 69.3921 105.241 69.2671 105.201 69.127C105.161 68.9868 105.162 68.8378 105.205 68.6984C105.247 68.559 105.328 68.4356 105.439 68.3434C105.549 68.2513 105.684 68.1945 105.825 68.1803C105.921 68.1706 106.019 68.1808 106.111 68.2103C106.203 68.2398 106.289 68.288 106.363 68.352C106.437 68.416 106.497 68.4946 106.541 68.583C106.585 68.6715 106.611 68.7681 106.618 68.867Z" fill="#C4D0A1"/>
<path d="M106.479 67.2114C106.31 67.2572 106.137 67.2846 105.962 67.2931C105.636 67.3339 105.165 67.3859 104.608 67.4378L104.662 67.371C104.706 67.8684 104.756 68.4289 104.807 69.0265C104.858 69.6241 104.898 70.1883 104.937 70.682L104.872 70.6263C105.433 70.5817 105.904 70.552 106.233 70.5335C106.407 70.5189 106.581 70.5189 106.754 70.5335C106.586 70.58 106.414 70.6074 106.24 70.6151C105.911 70.656 105.441 70.7079 104.883 70.7599H104.822V70.6968C104.778 70.1994 104.728 69.6389 104.673 69.0413C104.619 68.4437 104.583 67.8832 104.543 67.3859V67.3228H104.604C105.165 67.2782 105.636 67.2485 105.965 67.23C106.136 67.2096 106.308 67.2034 106.479 67.2114Z" fill="#E0E0E0"/>
<path d="M104.492 63.2176C104.492 63.2547 104.355 63.2993 104.177 63.3141C104 63.329 103.855 63.3141 103.852 63.2733C103.848 63.2324 103.989 63.1879 104.167 63.173C104.344 63.1582 104.489 63.1768 104.492 63.2176Z" fill="#E0E0E0"/>
<path d="M104.527 63.6072C104.527 63.6444 104.39 63.6889 104.212 63.7038C104.035 63.7186 103.89 63.7038 103.887 63.6629C103.883 63.6221 104.024 63.5775 104.202 63.5627C104.379 63.5478 104.524 63.5664 104.527 63.6072Z" fill="#E0E0E0"/>
<path d="M106.279 66.1534L103.228 67.6382L102.996 71.35C102.996 71.35 106.738 70.6077 106.756 70.5334C106.774 70.4592 108.052 69.5424 108.052 69.5424L108.776 70.0843L109.409 66.4764L107.875 66.1534C107.357 65.9749 106.796 65.9749 106.279 66.1534Z" fill="#FFBE9D"/>
<path d="M103.226 67.6387L102.629 68.3773V69.2236L103.226 69.6913L103.657 68.1843L103.226 67.6387Z" fill="#FFBE9D"/>
<path d="M48.3793 106.501L44.4308 112.073L40.9492 109.393L44.9194 103.339L48.3793 106.501Z" fill="#AA6550"/>
<path d="M42.5512 106.857L39.7753 111.015C39.7753 111.015 34.7085 109.53 34.1367 110.232L41.802 116.044L46.3874 109.734L42.5512 106.857Z" fill="#455A64"/>
<path d="M42.3912 112.47C42.4489 112.548 42.4761 112.646 42.4674 112.744C42.4587 112.842 42.4148 112.934 42.3441 113C42.3077 113.033 42.2654 113.057 42.2197 113.072C42.1741 113.087 42.1259 113.093 42.0781 113.089C42.0303 113.084 41.9837 113.071 41.9412 113.048C41.8986 113.025 41.8609 112.994 41.8302 112.956C41.7699 112.872 41.742 112.769 41.752 112.665C41.762 112.561 41.8093 112.465 41.8845 112.395C41.969 112.34 42.0713 112.32 42.1699 112.34C42.2686 112.36 42.3557 112.418 42.4129 112.503" fill="#E0E0E0"/>
<path d="M41.802 116.045L42.258 115.417L34.7302 110.069C34.7302 110.069 34.2779 109.961 34.1367 110.236L41.802 116.045Z" fill="#E0E0E0"/>
<path d="M39.6822 110.882C39.6568 110.919 39.8306 111.078 39.9247 111.342C40.0188 111.605 40.0007 111.839 40.0477 111.85C40.0948 111.861 40.1961 111.598 40.0767 111.282C39.9572 110.967 39.7003 110.837 39.6822 110.882Z" fill="#263238"/>
<path d="M38.632 110.61C38.5958 110.644 38.7116 110.829 38.7224 111.089C38.7333 111.349 38.6428 111.546 38.6826 111.575C38.7225 111.605 38.8998 111.401 38.8817 111.082C38.8636 110.763 38.6573 110.577 38.632 110.61Z" fill="#263238"/>
<path d="M37.463 111.252C37.4919 111.286 37.6837 111.134 37.738 110.852C37.7923 110.569 37.6765 110.35 37.6403 110.373C37.6041 110.395 37.6403 110.584 37.5788 110.818C37.5172 111.052 37.434 111.219 37.463 111.252Z" fill="#263238"/>
<path d="M40.418 110.005C40.418 110.049 40.617 110.127 40.8197 110.302C41.0223 110.476 41.1345 110.673 41.1816 110.654C41.2286 110.636 41.1816 110.38 40.9283 110.176C40.6749 109.971 40.4216 109.96 40.418 110.005Z" fill="#263238"/>
<path d="M40.9916 109.177C40.9916 109.177 41.111 109.329 41.3752 109.467C41.5332 109.546 41.6996 109.605 41.8711 109.645C41.9714 109.666 42.0729 109.681 42.1751 109.689C42.2363 109.698 42.2984 109.698 42.3596 109.689C42.4038 109.68 42.4439 109.656 42.4733 109.621C42.5028 109.587 42.5201 109.542 42.5225 109.496C42.5225 109.455 42.5134 109.415 42.4958 109.378C42.4782 109.342 42.4527 109.31 42.4212 109.285C42.3733 109.248 42.321 109.218 42.2655 109.196C42.168 109.156 42.0675 109.123 41.9651 109.099C41.7926 109.063 41.6158 109.053 41.4404 109.069C41.2772 109.07 41.1183 109.122 40.9844 109.218C40.9844 109.244 41.1653 109.188 41.444 109.188C41.7047 109.182 41.9633 109.236 42.2004 109.348C42.2981 109.385 42.3669 109.437 42.3632 109.493C42.3596 109.548 42.3632 109.519 42.3198 109.53C42.2753 109.534 42.2305 109.534 42.1859 109.53C42.09 109.523 41.9945 109.511 41.9 109.493C41.737 109.463 41.5771 109.419 41.4223 109.359C41.2834 109.287 41.1394 109.227 40.9916 109.177Z" fill="#263238"/>
<path d="M40.9986 109.27C40.9986 109.27 41.1832 109.203 41.3605 108.966C41.472 108.824 41.5601 108.665 41.6211 108.494C41.6554 108.393 41.6796 108.289 41.6935 108.183C41.708 108.117 41.7064 108.049 41.6887 107.984C41.671 107.919 41.6378 107.86 41.5921 107.811C41.5565 107.788 41.5151 107.775 41.4727 107.775C41.4304 107.775 41.3889 107.788 41.3533 107.811C41.2995 107.842 41.2506 107.881 41.2085 107.926C41.133 108.005 41.0684 108.093 41.0167 108.19C40.9321 108.353 40.8886 108.536 40.89 108.721C40.8816 108.805 40.8894 108.89 40.913 108.97C40.9366 109.051 40.9755 109.127 41.0275 109.192C41.01 109.038 41.0015 108.883 41.0022 108.728C41.0179 108.565 41.0673 108.407 41.147 108.264C41.1953 108.183 41.2537 108.108 41.3207 108.042C41.3931 107.967 41.4691 107.923 41.4944 107.956C41.5171 107.989 41.5327 108.027 41.5402 108.066C41.5477 108.106 41.5469 108.147 41.5379 108.186C41.5254 108.283 41.5049 108.379 41.4763 108.472C41.428 108.631 41.3586 108.782 41.27 108.921C41.1289 109.133 40.9841 109.248 40.9986 109.27Z" fill="#263238"/>
<path d="M59.606 108.584L59.8267 115.466L55.473 115.544L54.9844 108.265L59.606 108.584Z" fill="#AA6550"/>
<path d="M55.2231 112.533L55.5199 117.563C55.5199 117.563 50.6341 119.56 50.6016 120.495L60.1306 120.257L59.9823 112.399L55.2231 112.533Z" fill="#455A64"/>
<path d="M58.455 117.065C58.5476 117.091 58.6276 117.151 58.6797 117.234C58.7318 117.317 58.7523 117.416 58.7372 117.514C58.7274 117.562 58.7083 117.608 58.681 117.648C58.6538 117.689 58.6189 117.723 58.5785 117.75C58.5381 117.777 58.4929 117.795 58.4456 117.803C58.3983 117.812 58.3498 117.811 58.303 117.8C58.2054 117.772 58.1214 117.708 58.0673 117.62C58.0131 117.532 57.9927 117.427 58.0098 117.324C58.0436 117.228 58.1124 117.148 58.202 117.101C58.2916 117.055 58.3951 117.046 58.4911 117.076" fill="#E0E0E0"/>
<path d="M60.1298 120.258V119.475L50.9807 119.991C50.9807 119.991 50.5609 120.191 50.6188 120.495L60.1298 120.258Z" fill="#E0E0E0"/>
<path d="M55.3636 117.514C55.3636 117.562 55.5988 117.581 55.8305 117.726C56.0621 117.871 56.1924 118.071 56.2322 118.052C56.272 118.034 56.1996 117.759 55.9137 117.585C55.6278 117.41 55.3527 117.492 55.3636 117.514Z" fill="#263238"/>
<path d="M54.375 117.963C54.375 118.011 54.5668 118.085 54.7369 118.286C54.907 118.486 54.9504 118.694 54.9975 118.69C55.0445 118.687 55.0662 118.419 54.8599 118.174C54.6537 117.929 54.375 117.918 54.375 117.963Z" fill="#263238"/>
<path d="M53.8381 119.207C53.8815 119.207 53.9394 118.977 53.8127 118.717C53.6861 118.457 53.4689 118.346 53.4508 118.402C53.4327 118.457 53.5703 118.576 53.6716 118.791C53.7729 119.007 53.791 119.203 53.8381 119.207Z" fill="#263238"/>
<path d="M55.42 116.379C55.4381 116.42 55.6516 116.349 55.9158 116.379C56.18 116.408 56.3863 116.472 56.408 116.431C56.4297 116.39 56.2307 116.223 55.9194 116.212C55.6082 116.2 55.3947 116.327 55.42 116.379Z" fill="#263238"/>
<path d="M55.3789 115.347C55.5353 115.39 55.7002 115.39 55.8566 115.347C56.0282 115.311 56.1948 115.254 56.3525 115.176C56.4474 115.133 56.5382 115.08 56.6239 115.02C56.677 114.989 56.7247 114.949 56.7651 114.901C56.7926 114.865 56.8076 114.821 56.8076 114.775C56.8076 114.729 56.7926 114.685 56.7651 114.649C56.7411 114.616 56.7099 114.59 56.6741 114.572C56.6382 114.553 56.5987 114.544 56.5588 114.545C56.4985 114.546 56.4388 114.556 56.3814 114.575C56.2793 114.602 56.1799 114.639 56.0846 114.686C55.9253 114.763 55.7797 114.867 55.654 114.994C55.4368 115.209 55.3644 115.387 55.3825 115.399C55.4006 115.41 55.5056 115.261 55.7264 115.083C55.8562 114.98 55.997 114.893 56.1462 114.823C56.233 114.79 56.3235 114.757 56.4176 114.731C56.5117 114.705 56.6058 114.697 56.6311 114.731C56.6565 114.764 56.6311 114.753 56.6311 114.786C56.5996 114.819 56.5644 114.848 56.5262 114.872C56.4462 114.928 56.3628 114.979 56.2765 115.024C56.1313 115.104 55.9785 115.169 55.8204 115.217C55.6704 115.249 55.5229 115.293 55.3789 115.347Z" fill="#263238"/>
<path d="M55.438 115.413C55.5259 115.272 55.5665 115.105 55.5539 114.938C55.5583 114.757 55.5314 114.576 55.4742 114.404C55.4427 114.301 55.4002 114.203 55.3476 114.11C55.3202 114.046 55.2772 113.99 55.2227 113.948C55.1682 113.906 55.104 113.879 55.0363 113.869C54.9942 113.872 54.9536 113.886 54.9191 113.911C54.8846 113.936 54.8576 113.97 54.8409 114.01C54.8175 114.068 54.8028 114.13 54.7975 114.192C54.7617 114.488 54.841 114.787 55.0182 115.023C55.21 115.272 55.4055 115.324 55.4091 115.306C55.4127 115.287 55.2607 115.194 55.1123 114.953C55.0278 114.814 54.9724 114.659 54.9495 114.496C54.9368 114.403 54.9368 114.308 54.9495 114.214C54.9495 114.11 54.9965 114.025 55.0363 114.036C55.0761 114.047 55.1666 114.11 55.2064 114.192C55.2565 114.276 55.2989 114.364 55.3331 114.456C55.388 114.612 55.4221 114.776 55.4344 114.942C55.4598 115.228 55.4127 115.406 55.438 115.413Z" fill="#263238"/>
<path d="M57.339 54.4951C55.8914 54.6362 55.0373 54.8886 54.0818 56.9486L49.8619 65.1555L46.6228 54.51L43.543 56.2805L44.7518 67.609C45.139 70.2852 46.0981 72.401 48.5591 72.4826C49.1603 72.5013 49.758 72.3813 50.308 72.1314C50.858 71.8814 51.3462 71.508 51.7366 71.0387L55.1965 66.8666L57.339 54.4951Z" fill="#AA6550"/>
<path d="M43.4321 56.7806L41.5755 53.4734C41.0544 52.6679 40.8951 52.3005 41.0471 52.2077C41.1991 52.1149 41.1666 52.126 42.3175 53.4511C42.3175 53.4511 40.6925 51.547 41.362 51.6732C41.629 51.8278 41.8678 52.0287 42.0677 52.2671C41.6769 51.7548 41.5972 51.4468 41.7058 51.3317C41.9049 51.135 42.9146 52.2151 43.3779 52.731C42.9451 52.2656 42.5447 51.7695 42.1799 51.2463C42.0315 50.9234 42.4405 51.031 42.7517 51.2203C43.063 51.4096 44.9666 52.95 45.5276 53.362C45.5711 53.4024 45.6226 53.4326 45.6786 53.4505C45.7346 53.4684 45.7937 53.4737 45.8518 53.4659C45.91 53.4582 45.9658 53.4376 46.0154 53.4055C46.065 53.3735 46.1073 53.3308 46.1392 53.2804C46.5591 52.3487 47.3698 51.8551 47.652 51.8291C47.7171 51.8282 47.7808 51.8488 47.8336 51.8878C47.8865 51.9268 47.9257 51.9822 47.9456 52.0457C47.9654 52.1093 47.9648 52.1778 47.9439 52.241C47.923 52.3042 47.8829 52.3589 47.8294 52.397C47.5949 52.6478 47.3963 52.9315 47.2395 53.2396C47.1047 53.4806 47.0094 53.7427 46.9572 54.0153C46.8993 54.3308 46.8631 54.6018 46.8414 54.8319L47.7027 58.2988L43.9497 59.5422L43.4321 56.7806Z" fill="#AA6550"/>
<path d="M42.8632 54.02C42.5548 53.7643 42.2788 53.47 42.0417 53.144C41.7653 52.8507 41.528 52.5212 41.3359 52.1641C41.6469 52.4181 41.9242 52.7126 42.1611 53.0401C42.4375 53.3324 42.6737 53.6621 42.8632 54.02Z" fill="#874638"/>
<path d="M43.4124 53.6488C43.0691 53.3949 42.7568 53.0996 42.4823 52.7692C42.1723 52.4729 41.8988 52.1388 41.668 51.7744C42.3226 52.3231 42.9085 52.9527 43.4124 53.6488Z" fill="#874638"/>
<path d="M43.8595 53.1807C43.5287 52.9475 43.2282 52.6718 42.9656 52.3604C42.6669 52.0868 42.4052 51.7735 42.1875 51.4287C42.5167 51.6627 42.8158 51.9383 43.0778 52.249C43.3782 52.5219 43.6412 52.8353 43.8595 53.1807Z" fill="#874638"/>
<path d="M58.5932 40.5342C57.7645 40.5342 57.2216 41.4473 57.0587 42.2825C56.8959 43.1176 56.9321 44.0196 56.5122 44.7508C56.0924 45.4821 55.2419 45.9943 55.1623 46.8369C55.0646 47.8502 56.1576 48.793 55.8065 49.7432C55.4555 50.6935 53.9427 50.7157 53.559 51.6623C53.2406 52.438 53.892 53.3771 53.559 54.1492C53.2876 54.7728 52.5204 54.9547 51.992 55.3741C51.622 55.6883 51.3715 56.1259 51.2841 56.6103C51.1968 57.0948 51.2783 57.5953 51.5142 58.0244C53.8189 58.7752 56.2522 59.0181 58.6548 58.737L61.7925 51.5286L58.5932 40.5342Z" fill="#263238"/>
<path d="M67.1722 40.5156C67.5707 40.9817 67.8725 41.5262 68.0592 42.1159C68.2458 42.7056 68.3134 43.328 68.2579 43.9454C68.1964 44.6023 68.0009 45.2853 68.2326 45.8941C68.4642 46.5028 69.0939 46.8777 69.4992 47.4011C69.7885 47.7922 69.9606 48.2611 69.9947 48.7508C70.0287 49.2404 69.9232 49.7297 69.691 50.1589C69.3291 50.8122 68.6451 51.3059 68.5257 52.0594C68.4497 52.5716 68.6524 53.0987 68.5836 53.6109C68.536 53.8706 68.4348 54.1169 68.2869 54.3333C68.139 54.5496 67.9477 54.7311 67.7259 54.8655C67.2888 55.1235 66.8131 55.3053 66.3181 55.4037C65.9562 55.4965 65.5074 55.5671 65.2323 55.2961C64.9573 55.0251 64.9573 54.5872 64.9754 54.1826L65.4531 44.9735" fill="#263238"/>
<path d="M67.5999 41.2917C67.6469 40.7238 67.162 40.2561 66.6589 40.0185C66.1559 39.7809 65.5732 39.6696 65.1461 39.3244C64.7893 38.9785 64.4657 38.5981 64.1798 38.1886C63.7799 37.7222 63.2662 37.3734 62.6915 37.1779C62.1167 36.9824 61.5016 36.9473 60.9092 37.0761C60.3168 37.205 59.7685 37.4932 59.3206 37.9111C58.8727 38.329 58.5413 38.8616 58.3603 39.4543C58.1142 40.2486 58.1974 41.2137 58.7874 41.789C59.475 42.4535 60.5499 42.3792 61.4872 42.2382C62.4246 42.0971 63.4777 41.9672 64.216 42.5722C64.6282 42.9777 64.9494 43.4704 65.157 44.0161C65.366 44.5656 65.7602 45.02 66.2681 45.2967C66.7964 45.5194 67.542 45.2336 67.5963 44.6546" fill="#263238"/>
<path d="M65.4121 41.2805C65.8898 41.3622 65.8102 41.8262 65.774 42.3161L64.9162 55.0886C64.8077 56.603 62.6 57.3157 61.0221 57.1969C59.4261 57.0632 59.4188 56.2578 59.4803 54.8139C59.5817 52.4049 59.636 51.4992 59.6323 51.5141C59.6287 51.5289 57.6346 51.0464 57.374 48.3219C57.2437 46.9671 57.4392 44.7696 57.6527 42.9768C57.8481 41.3622 59.0099 39.4394 60.5733 39.7067L65.4121 41.2805Z" fill="#AA6550"/>
<path d="M58.0633 44.5841C58.0572 44.6743 58.0855 44.7634 58.1422 44.8327C58.1989 44.9019 58.2796 44.9459 58.3673 44.9553C58.4099 44.9605 58.453 44.957 58.4942 44.9451C58.5355 44.9331 58.574 44.9129 58.6076 44.8857C58.6412 44.8585 58.6693 44.8247 58.6901 44.7863C58.711 44.7479 58.7243 44.7057 58.7292 44.6621C58.7332 44.6172 58.7285 44.5719 58.7153 44.5289C58.7022 44.4859 58.6808 44.446 58.6526 44.4115C58.6243 44.377 58.5897 44.3486 58.5507 44.3279C58.5116 44.3072 58.469 44.2946 58.4252 44.2908C58.3826 44.2852 58.3393 44.2883 58.2979 44.3C58.2564 44.3118 58.2177 44.3319 58.184 44.3592C58.1503 44.3866 58.1222 44.4205 58.1015 44.4592C58.0808 44.4978 58.0678 44.5403 58.0633 44.5841Z" fill="#263238"/>
<path d="M58.0624 44.1494C58.0986 44.1976 58.3665 44.0194 58.732 44.0417C59.0975 44.064 59.3509 44.2681 59.3907 44.2236C59.4305 44.179 59.3726 44.1197 59.264 44.0269C59.1126 43.9052 58.9278 43.8351 58.7356 43.8264C58.5469 43.8129 58.359 43.8624 58.2 43.9675C58.0624 44.0491 58.0299 44.1271 58.0624 44.1494Z" fill="#263238"/>
<path d="M61.7706 44.8109C61.7636 44.9013 61.7915 44.991 61.8484 45.0604C61.9053 45.1299 61.9865 45.1736 62.0746 45.1821C62.1169 45.1878 62.16 45.1848 62.2012 45.1733C62.2424 45.1618 62.281 45.142 62.3147 45.115C62.3483 45.0881 62.3765 45.0545 62.3974 45.0163C62.4183 44.9782 62.4316 44.9361 62.4365 44.8926C62.4435 44.8021 62.4156 44.7125 62.3587 44.643C62.3018 44.5736 62.2206 44.5299 62.1325 44.5214C62.0902 44.5157 62.0471 44.5187 62.0059 44.5302C61.9647 44.5417 61.9261 44.5615 61.8925 44.5884C61.8588 44.6154 61.8307 44.6489 61.8097 44.6871C61.7888 44.7253 61.7755 44.7674 61.7706 44.8109Z" fill="#263238"/>
<path d="M61.6172 44.4395C61.657 44.484 61.9249 44.3058 62.2868 44.3318C62.6487 44.3578 62.9056 44.5546 62.949 44.5137C62.9925 44.4729 62.931 44.4098 62.8188 44.317C62.6683 44.1955 62.4851 44.1243 62.294 44.1128C62.105 44.1019 61.9176 44.1526 61.7584 44.2576C61.6426 44.3355 61.5991 44.4172 61.6172 44.4395Z" fill="#263238"/>
<path d="M60.1389 47.1193C59.951 47.0473 59.7554 46.9987 59.5562 46.9745C59.4657 46.9745 59.3789 46.9337 59.3644 46.8706C59.3648 46.772 59.3924 46.6754 59.444 46.5922L59.7625 45.8832C60.0501 45.2847 60.2921 44.6642 60.4863 44.0273C60.1506 44.6002 59.8602 45.1997 59.6177 45.8201L59.3101 46.5328C59.2454 46.6444 59.2211 46.7758 59.2413 46.904C59.2539 46.9378 59.2733 46.9685 59.2982 46.9941C59.3232 47.0197 59.3531 47.0396 59.3861 47.0525C59.4363 47.07 59.4887 47.08 59.5417 47.0822C59.7382 47.1224 59.9391 47.1349 60.1389 47.1193Z" fill="#263238"/>
<path d="M59.6299 51.5139C60.8682 51.6119 62.1087 51.3548 63.2129 50.7715C63.2129 50.7715 62.2176 52.5755 59.5938 52.1635L59.6299 51.5139Z" fill="#874638"/>
<path d="M60.237 48.0291C60.3108 47.9435 60.4048 47.8788 60.51 47.8411C60.6152 47.8034 60.728 47.794 60.8378 47.8138C60.9172 47.8266 60.9933 47.8556 61.0616 47.8989C61.13 47.9422 61.1892 47.9991 61.2359 48.0662C61.2802 48.1316 61.304 48.2093 61.304 48.2889C61.304 48.3686 61.2802 48.4463 61.2359 48.5116C61.1736 48.5755 61.0942 48.6187 61.0078 48.6359C60.9214 48.6531 60.8319 48.6435 60.7509 48.6081C60.5848 48.5337 60.4338 48.4279 60.3057 48.2963C60.2654 48.2643 60.2321 48.2238 60.208 48.1776C60.1947 48.1573 60.1875 48.1334 60.1875 48.1089C60.1875 48.0844 60.1947 48.0605 60.208 48.0402" fill="#874638"/>
<path d="M61.1929 47.4424C61.135 47.4424 61.1097 47.8395 60.755 48.1068C60.4004 48.374 59.9842 48.3035 59.9769 48.3592C59.9697 48.4148 60.0674 48.4445 60.2447 48.4594C60.4752 48.4771 60.7044 48.4115 60.8926 48.2738C61.0726 48.1394 61.1946 47.9384 61.2327 47.7133C61.2581 47.5463 61.2183 47.4424 61.1929 47.4424Z" fill="#263238"/>
<path d="M61.4626 43.3927C61.4915 43.4966 61.857 43.4706 62.2805 43.5486C62.7039 43.6265 63.0405 43.7676 63.102 43.6785C63.1635 43.5894 63.0767 43.5375 62.9428 43.4335C62.766 43.2983 62.5598 43.2091 62.342 43.1737C62.1248 43.1336 61.9014 43.1476 61.6905 43.2145C61.5313 43.2553 61.4481 43.3444 61.4626 43.3927Z" fill="#263238"/>
<path d="M58.2456 43.0812C58.3035 43.1666 58.5605 43.0812 58.8609 43.1109C59.1613 43.1406 59.4146 43.2 59.4761 43.1109C59.5377 43.0218 59.4761 42.9847 59.3639 42.8956C59.2194 42.7921 59.0486 42.7342 58.8724 42.7289C58.6963 42.7236 58.5224 42.7712 58.3723 42.8659C58.2601 42.9513 58.2203 43.0366 58.2456 43.0812Z" fill="#263238"/>
<path d="M66.7499 50.2746C66.3818 50.3279 66.0066 50.2908 65.6553 50.1662C65.3039 50.0416 64.9864 49.8331 64.7291 49.5579C64.4718 49.2828 64.2819 48.9488 64.1752 48.5835C64.0684 48.2183 64.0479 47.8323 64.1152 47.4573C64.2347 46.8003 64.6219 46.1433 64.4337 45.5049C64.184 44.6548 63.0621 44.3356 62.8087 43.4893C62.6603 42.9957 62.8485 42.4426 62.6784 41.9601C62.5751 41.7417 62.4298 41.5469 62.2514 41.3875C62.0729 41.228 61.8649 41.1071 61.6398 41.0321C61.1906 40.8844 60.7668 40.6652 60.3839 40.3825C60.022 40.0633 59.8266 39.4917 60.0908 39.0908C62.0444 39.4469 63.9495 40.0413 65.7655 40.8614C66.2008 41.0144 66.5798 41.3007 66.8513 41.6817C67.0491 42.1411 67.1022 42.6523 67.0033 43.1441L66.2794 50.4008" fill="#263238"/>
<path d="M67.3058 69.1973L70.9285 77.4078L55.8477 79.5569L57.7441 69.5313L67.3058 69.1973Z" fill="#C4D0A1"/>
<path d="M58.8098 54.7615L57.3621 54.5091L55.1002 61.7583C54.4225 63.9362 54.453 66.281 55.187 68.4396L57.8073 76.112L69.0736 71.7283L67.3219 69.2043L67.9263 65.3625L67.6078 55.5039L65.4726 55.3406L65.4943 54.0674C65.4653 53.3659 64.8247 53.1877 64.4085 53.1692L59.9027 53.0986C59.5046 53.0986 59.0124 53.3176 58.9545 53.7222L58.8098 54.7615Z" fill="#C4D0A1"/>
<path d="M67.6057 55.5039C68.3955 55.5504 69.1555 55.8302 69.7938 56.3097C70.4321 56.7891 70.9215 57.4478 71.203 58.2061C72.4299 61.4948 74.1997 67.5934 75.2854 71.4314C75.3942 71.8258 75.4104 72.241 75.3328 72.643C75.2552 73.0451 75.0859 73.4226 74.8389 73.7448C74.5918 74.0669 74.274 74.3246 73.9113 74.4967C73.5486 74.6687 73.1514 74.7504 72.752 74.7349L63.5704 74.657L61.8477 71.8063L69.9544 70.3995L67.8011 65.0062L67.602 55.5039H67.6057Z" fill="#AA6550"/>
<path d="M64.4609 70.2923C64.888 70.0974 65.3297 69.9385 65.7819 69.8171C66.2154 69.6335 66.6634 69.4882 67.1209 69.3828C66.7349 69.6656 66.302 69.8744 65.8434 69.999C65.4044 70.1843 64.9355 70.2837 64.4609 70.2923Z" fill="#263238"/>
<path d="M61.2982 63.1807C61.3307 63.1807 61.3163 63.5333 61.4429 64.0789C61.6033 64.7887 61.9428 65.4428 62.4273 65.9757C62.9204 66.4997 63.5377 66.8834 64.2188 67.0892C64.74 67.2451 65.0874 67.2525 65.0838 67.2859C64.7823 67.3321 64.4745 67.3093 64.1826 67.2191C63.4593 67.0469 62.8015 66.66 62.2912 66.1069C61.7808 65.5538 61.4405 64.8588 61.3126 64.1086C61.2396 63.8044 61.2346 63.4871 61.2982 63.1807Z" fill="#263238"/>
<path d="M70.6412 77.4043C70.8837 77.7346 71.4411 79.0895 71.651 79.5089C72.5921 81.4387 72.9603 83.6093 72.7101 85.7517C72.4598 87.8941 71.6021 89.914 70.2431 91.5612L63.6491 91.8322L60.8117 89.7536L48.5067 108.313L42.1914 104.048L56.2191 80.9305L70.6412 77.4043Z" fill="#263238"/>
<path d="M60.7822 110.811L53.8444 110.87L53.0156 88.7403C52.7964 87.1111 52.9198 85.4527 53.3774 83.8764C53.8349 82.3002 54.6161 80.8426 55.6684 79.6017C55.7371 79.512 55.8147 79.4299 55.9 79.3567L70.6407 77.4043L63.6449 91.8359L62.0453 92.6451L60.7822 110.811Z" fill="#263238"/>
<path d="M51.3242 89.0183C51.3521 88.946 51.3886 88.8774 51.4328 88.8142L51.7658 88.25L52.9818 86.1565C53.4957 85.2731 54.0965 84.2115 54.842 83.0794C55.0302 82.7973 55.2329 82.5115 55.4572 82.2331C55.5684 82.0908 55.6893 81.9568 55.8191 81.8322C55.9567 81.7098 56.1159 81.6132 56.2643 81.5019C56.9157 81.1143 57.6093 80.8066 58.3308 80.5851C59.7106 80.152 61.1166 79.8122 62.5398 79.568C63.85 79.3268 65.0334 79.1523 66.0287 79.0224C67.0239 78.8925 67.8382 78.8034 68.3919 78.7477L69.0325 78.6846C69.1084 78.678 69.1847 78.678 69.2605 78.6846C69.1889 78.7088 69.1148 78.725 69.0398 78.7329L68.3992 78.8294L66.0468 79.1672C65.0551 79.3119 63.8753 79.5012 62.5724 79.7499C61.1587 80.0046 59.7615 80.348 58.3887 80.7781C57.6821 80.9945 57.0021 81.2934 56.362 81.6689C56.2209 81.7766 56.0689 81.8656 55.9386 81.9807C55.8091 82.095 55.6881 82.2191 55.5767 82.3519C55.3559 82.6191 55.1569 82.9012 54.9687 83.1759C54.2159 84.2895 53.6079 85.3473 53.0795 86.2233C52.5511 87.0993 52.1204 87.8046 51.8128 88.2834C51.6572 88.5247 51.5341 88.7103 51.4509 88.8327C51.4153 88.8991 51.3728 88.9613 51.3242 89.0183Z" fill="#455A64"/>
<path d="M61.4414 89.79C62.2581 90.3755 62.9988 91.0652 63.6455 91.8427C62.8288 91.2572 62.0881 90.5675 61.4414 89.79Z" fill="#455A64"/>
<path d="M53.0781 101.434C53.1552 101.261 53.2472 101.096 53.3532 100.94C53.5414 100.629 53.8237 100.198 54.182 99.6412C54.9058 98.5574 55.9191 97.0801 57.0772 95.4803C58.2354 93.8805 59.3211 92.444 60.1137 91.4195C60.5118 90.9073 60.8375 90.4953 61.0655 90.2132C61.1732 90.061 61.2944 89.9194 61.4274 89.79C61.3371 89.9561 61.233 90.1138 61.1162 90.2614C60.8809 90.5807 60.5769 91.0038 60.2114 91.5049L57.2184 95.5879C56.0567 97.1877 55.018 98.6502 54.2761 99.7117L53.4002 100.977C53.3066 101.139 53.1988 101.292 53.0781 101.434Z" fill="#455A64"/>
<path d="M57.3404 54.495C57.3404 54.495 55.2377 54.1906 54.3546 56.1987C53.4715 58.2068 49.8633 65.1554 49.8633 65.1554L51.3109 71.5472L55.1834 66.8666L57.3404 54.495Z" fill="#C4D0A1"/>
<path d="M67.4732 65.1034L69.9486 70.3816H74.9828L71.57 58.7116C71.2287 57.4991 70.432 56.4751 69.3551 55.8646C68.7181 55.512 66.3042 55.1668 65.4609 55.3227L67.4732 65.1034Z" fill="#C4D0A1"/>
<path d="M56.9192 53.5521C56.6985 53.6561 56.6587 53.9641 56.7021 54.2054C56.7829 54.4437 56.8173 54.6959 56.8034 54.9478C56.7202 55.3561 56.2678 55.5565 56.047 55.9054C55.5874 56.6255 56.2461 57.6017 56.0181 58.4258C55.8582 58.8133 55.6382 59.1718 55.3667 59.4873C55.1468 59.8266 54.9968 60.2084 54.9258 60.6092C54.8549 61.01 54.8645 61.4215 54.9541 61.8184L57.596 62.1339C57.5183 61.7902 57.516 61.4331 57.5893 61.0884C57.6625 60.7437 57.8094 60.42 58.0195 60.1406C58.305 59.8593 58.5489 59.5367 58.7433 59.183C59.0835 58.2587 58.1425 57.2974 58.2728 56.3174C58.3495 55.9908 58.4599 55.6735 58.6021 55.3709C58.9894 54.3093 58.7831 53.1438 58.5696 52.0303" fill="#263238"/>
<path d="M60.8412 65.3291L60.9968 67.0328C61.0076 67.3959 61.1125 67.7496 61.3008 68.0573L61.8943 69.0446C61.9338 69.1121 61.9562 69.1887 61.9595 69.2673L62.1223 74.5715C62.1228 74.5896 62.1198 74.6075 62.1135 74.6244C62.1072 74.6412 62.0978 74.6566 62.0857 74.6697C62.0736 74.6828 62.0591 74.6934 62.043 74.7007C62.0269 74.7081 62.0096 74.7121 61.992 74.7126L59.0968 74.8091C59.0615 74.8091 59.0276 74.7953 59.002 74.7704C58.9764 74.7456 58.9611 74.7116 58.9592 74.6755L58.7891 69.401C58.7877 69.3179 58.8077 69.236 58.847 69.1634L59.3827 68.113C59.5315 67.7916 59.6094 67.4406 59.6107 67.0848L59.7554 65.3662L60.8412 65.3291Z" fill="#455A64"/>
<path d="M58.8047 70.233L60.7663 70.1699L60.8749 73.7036L58.9133 73.7667" fill="#FAFAFA"/>
<path d="M59.7937 65.3742L60.7889 65.3445C60.8193 65.3435 60.8493 65.3364 60.877 65.3236C60.9048 65.3108 60.9298 65.2924 60.9506 65.2697C60.9714 65.2469 60.9877 65.2202 60.9985 65.191C61.0092 65.1618 61.0143 65.1307 61.0133 65.0995C61.0128 65.0682 61.0063 65.0372 60.9939 65.0085C60.9816 64.9799 60.9637 64.954 60.9414 64.9325C60.9191 64.9111 60.8929 64.8944 60.8642 64.8836C60.8355 64.8727 60.805 64.8679 60.7744 64.8694L59.7792 64.8991C59.7488 64.9001 59.7188 64.9072 59.6911 64.92C59.6633 64.9328 59.6383 64.9511 59.6175 64.9739C59.5967 64.9966 59.5804 65.0234 59.5696 65.0526C59.5589 65.0818 59.5538 65.1129 59.5548 65.1441C59.5557 65.1753 59.5627 65.206 59.5752 65.2344C59.5877 65.2629 59.6055 65.2885 59.6277 65.3099C59.6499 65.3313 59.676 65.3479 59.7045 65.359C59.7329 65.37 59.7632 65.3752 59.7937 65.3742Z" fill="#455A64"/>
<path d="M60.0836 67.0815L60.992 67.0518L60.9016 66.0088L60.0547 66.0348L60.0836 67.0815Z" fill="#FAFAFA"/>
<path d="M58.8584 72.0001C58.8439 72.1072 58.8525 72.2163 58.8835 72.3196C58.9144 72.423 58.967 72.5182 59.0376 72.5985C59.1081 72.6789 59.195 72.7424 59.292 72.7848C59.389 72.8271 59.4939 72.8472 59.5992 72.8436C59.7046 72.8401 59.808 72.8129 59.902 72.7641C59.9961 72.7153 60.0787 72.646 60.1439 72.5611C60.2092 72.4762 60.2555 72.3776 60.2798 72.2724C60.304 72.1671 60.3056 72.0578 60.2843 71.9518C60.2498 71.7804 60.1574 71.6269 60.0233 71.5186C59.8892 71.4103 59.7221 71.354 59.5515 71.3598C59.3809 71.3656 59.2178 71.433 59.0909 71.5501C58.9641 71.6673 58.8817 71.8267 58.8584 72.0001Z" fill="#C4D0A1"/>
<path d="M58.8125 70.3815C58.9791 70.4051 59.1476 70.4126 59.3156 70.4037C59.6377 70.4037 60.0937 70.4037 60.6402 70.3852L60.5787 70.3258C60.5787 70.8083 60.6076 71.3539 60.6221 71.9367C60.6366 72.5194 60.6619 73.0502 60.68 73.5476L60.7343 73.4845C60.1914 73.5068 59.7354 73.5327 59.4133 73.5513C59.2445 73.5548 59.0763 73.5721 58.9102 73.6033C59.0778 73.6293 59.2477 73.6368 59.4169 73.6255C59.7354 73.6255 60.195 73.6255 60.7379 73.607H60.7958V73.5476C60.7958 73.0651 60.7705 72.5157 60.756 71.9367C60.7415 71.3577 60.7126 70.8232 60.6981 70.3258V70.2627H60.6402C60.0937 70.285 59.6377 70.311 59.3192 70.3295C59.1492 70.3321 58.9797 70.3495 58.8125 70.3815Z" fill="#E0E0E0"/>
<path d="M60.2852 66.3018C60.2852 66.3389 60.4263 66.3649 60.6 66.3612C60.7738 66.3574 60.9077 66.3203 60.9077 66.2832C60.9077 66.2461 60.7665 66.2164 60.5928 66.2238C60.4191 66.2312 60.2852 66.2683 60.2852 66.3018Z" fill="#E0E0E0"/>
<path d="M60.2969 66.6807C60.2969 66.7178 60.438 66.7438 60.6117 66.7401C60.7855 66.7364 60.9194 66.6992 60.9194 66.6621C60.9194 66.625 60.7782 66.5953 60.6081 66.6027C60.438 66.6101 60.2969 66.6398 60.2969 66.6807Z" fill="#E0E0E0"/>
<path d="M63.3403 71.2873L63.0507 70.9161C62.9349 70.7602 62.8046 70.5857 62.6635 70.3853C62.5013 70.1493 62.379 69.8871 62.3016 69.6095C62.1905 69.2688 62.1247 68.9142 62.1062 68.5554C62.1243 68.2287 61.7442 68.0431 61.5705 68.2733C61.3968 68.5034 61.3244 69.4054 61.7008 70.3927C62.0772 71.38 59.4714 70.6191 58.9611 70.3259C58.288 69.9547 57.7017 70.6971 58.3314 71.2464C58.2666 71.2944 58.2124 71.3559 58.1725 71.4269C58.1325 71.4979 58.1078 71.5769 58.0998 71.6584C58.1022 71.7908 58.1303 71.9214 58.1825 72.0425C58.2347 72.1636 58.3099 72.2728 58.4038 72.3637C58.4904 72.7193 58.6334 73.0579 58.8272 73.3659C59.2145 73.9895 61.3244 74.5314 61.3244 74.5314L63.9555 74.665L64.531 71.5656L63.3403 71.2873Z" fill="#AA6550"/>
<path d="M59.4758 71.8624C59.4758 71.9144 59.1465 71.9293 58.7991 71.7437C58.4516 71.5581 58.2743 71.276 58.3141 71.2463C58.3539 71.2166 58.5747 71.4059 58.8859 71.5692C59.1972 71.7325 59.4794 71.8068 59.4758 71.8624Z" fill="#874638"/>
<path d="M59.5386 72.8907C59.5386 72.9427 59.2129 72.9575 58.8655 72.7719C58.518 72.5863 58.3407 72.3042 58.3805 72.2745C58.4203 72.2448 58.6375 72.4379 58.9523 72.6012C59.2672 72.7645 59.5459 72.8387 59.5386 72.8907Z" fill="#874638"/>
<path d="M68.2399 61.7324C68.2627 62.1039 68.2506 62.4768 68.2037 62.846C68.153 63.5252 68.0626 64.4606 67.9214 65.4925C67.7803 66.5244 67.621 67.4486 67.4871 68.1168C67.4313 68.4803 67.3441 68.8381 67.2266 69.1858C67.237 68.8113 67.2806 68.4386 67.3568 68.0722C67.4618 67.3299 67.5921 66.4427 67.7188 65.448C67.8454 64.4532 67.9649 63.5475 68.059 62.8126C68.0891 62.4479 68.1496 62.0865 68.2399 61.7324Z" fill="#263238"/>
<path d="M54.992 61.8998C55.021 61.8998 54.8292 62.2896 54.6808 62.9503C54.4979 63.8113 54.4685 64.6991 54.5939 65.5708C54.7264 66.444 54.9248 67.3053 55.1875 68.1468C55.3094 68.4951 55.405 68.8525 55.4734 69.2159C55.3024 68.8896 55.1641 68.5463 55.0608 68.1914C54.7574 67.3502 54.538 66.4797 54.4058 65.5931C54.2773 64.7002 54.3265 63.7898 54.5505 62.9169C54.6216 62.6532 54.7174 62.3971 54.8364 62.1523C54.9233 61.9815 54.9812 61.8924 54.992 61.8998Z" fill="#263238"/>
<path d="M64.825 55.3521C64.5684 55.4589 64.2975 55.5252 64.0216 55.5488C62.7002 55.7394 61.354 55.6265 60.0803 55.2185C59.8133 55.1485 59.5574 55.0397 59.3203 54.8955C61.105 55.4346 62.979 55.5901 64.825 55.3521Z" fill="#263238"/>
</svg>
