<svg width="159" height="159" viewBox="0 0 159 159" fill="none" xmlns="http://www.w3.org/2000/svg">
<rect width="159" height="159" rx="6" fill="#F7FBFD"/>
<path d="M88.8213 85.042L89.7313 90.489L95.8907 123.72H96.8828L92.4042 90.489L91.7404 85.042H88.8213Z" fill="#DBDBDB"/>
<path d="M91.7386 85.042H88.8194L89.7294 90.489H92.4023L91.7386 85.042Z" fill="#A6A6A6"/>
<path d="M69.4775 123.72H70.4696L76.6291 90.489L77.5391 85.042H74.6164L73.9562 90.489L69.4775 123.72Z" fill="#DBDBDB"/>
<path d="M74.6164 85.042L73.9562 90.489H76.6291L77.5391 85.042H74.6164Z" fill="#A6A6A6"/>
<path d="M51.0009 123.72H51.993L58.1525 90.489L59.0625 85.042H56.1433L55.4796 90.489L51.0009 123.72Z" fill="#DBDBDB"/>
<path d="M55.4796 90.489H58.1525L59.0625 85.042H56.1433L55.4796 90.489Z" fill="#A6A6A6"/>
<path d="M52.5751 87.6014H97.7148V82.8531H80.8173L75.1361 49.8467H54.2988L52.5751 87.6014Z" fill="#C4D0A1"/>
<path opacity="0.1" d="M52.5759 87.6014H55.0383L56.6406 49.8467H54.2996L52.5759 87.6014Z" fill="black"/>
<path d="M82.2484 55.5293C82.0485 55.5293 81.1171 55.6041 79.7503 55.7039C78.9504 54.3262 78.5987 52.7342 78.744 51.1481C78.7689 50.7916 78.0088 52.8984 78.4799 55.7824C75.8427 55.9642 72.2562 56.2137 69.1194 56.3991C69.0016 55.1799 68.8374 54.0534 68.8374 54.0534C68.7753 54.8598 68.6415 55.6591 68.4377 56.4418C68.0059 56.4739 67.5884 56.4918 67.1851 56.5167C67.1258 54.7795 66.9722 53.0469 66.7248 51.3264C66.5802 53.152 66.1365 54.9416 65.4115 56.6236C63.4167 56.7199 62.107 56.7484 62.1998 56.6522C65.0547 53.0624 62.76 51.1731 63.4773 48.0967C64.3374 44.4071 67.4564 43.6835 67.2387 40.9671C67.0638 38.7426 66.6035 34.7144 69.3799 33.7234C70.1079 32.9443 71.0494 32.3967 72.0871 32.1488C73.1247 31.9009 74.2125 31.9638 75.2146 32.3296C79.7432 33.8268 78.2979 40.7746 78.6655 42.1577C79.1865 44.1326 80.1714 44.7921 80.9851 47.0344C81.7987 49.2766 80.8352 50.8808 80.7852 52.4493C80.7353 54.0178 82.748 55.5007 82.2484 55.5293Z" fill="#263238"/>
<path d="M62.0643 56.1636C62.4497 55.5428 62.7453 54.8707 62.9422 54.1673C63.0894 53.4738 63.0537 52.7539 62.8387 52.0783C62.6441 51.3587 62.488 50.6293 62.3712 49.8931C62.2543 49.1256 62.2931 48.3424 62.4854 47.5902C62.6954 46.8383 63.0751 46.1445 63.5952 45.5619C64.0992 45.0064 64.6496 44.4948 65.2404 44.0326C65.8095 43.5872 66.3192 43.0709 66.7571 42.4961C67.1754 41.8975 67.4221 41.1962 67.4708 40.4678C67.5354 41.2231 67.3686 41.9802 66.9926 42.6387C66.5967 43.2805 66.1072 43.8596 65.5401 44.357C64.9984 44.8396 64.4894 45.3577 64.0163 45.9076C63.5679 46.4435 63.2404 47.0697 63.0564 47.7435C62.8912 48.4247 62.8525 49.1303 62.9422 49.8254C63.0171 50.5383 63.1813 51.2513 63.2991 51.9642C63.3688 52.3372 63.4094 52.715 63.4204 53.0943C63.4228 53.4846 63.3551 53.8722 63.2205 54.2386C62.952 54.9434 62.5605 55.5951 62.0643 56.1636Z" fill="#263238"/>
<path d="M77.8243 34.75C78.1688 35.5933 78.4085 36.4756 78.538 37.3773C78.6914 38.2756 78.8021 39.181 78.8949 40.0794L79.0554 41.4233C79.1005 41.8573 79.1878 42.2859 79.316 42.7031C79.6176 43.5247 80.0649 44.2855 80.6364 44.9489C80.9228 45.3157 81.184 45.7016 81.4179 46.1039C81.6529 46.5173 81.8396 46.9562 81.9746 47.4121C82.0964 47.8647 82.1835 48.3259 82.2351 48.7917C82.294 49.2592 82.294 49.7323 82.2351 50.1998C82.1744 50.6704 82.0638 51.1124 81.9746 51.5473C81.8834 51.9812 81.8344 52.4229 81.8283 52.8663C81.8344 53.309 81.9465 53.7438 82.1551 54.1345C82.3637 54.5252 82.6627 54.8604 83.0273 55.1121C82.6136 54.8923 82.2614 54.5727 82.0028 54.1824C81.7441 53.792 81.5872 53.3433 81.5464 52.877C81.5147 52.4131 81.5315 51.9471 81.5963 51.4867C81.657 51.0268 81.7498 50.5884 81.7783 50.1535C81.8294 49.2806 81.7194 48.4057 81.4536 47.5726C81.3213 47.1611 81.1467 46.7645 80.9326 46.389C80.706 46.016 80.4544 45.6587 80.1796 45.3196C79.9084 44.9631 79.6264 44.5853 79.3838 44.1824C79.1337 43.7751 78.9359 43.3379 78.7949 42.8813C78.6716 42.4287 78.5903 41.9657 78.5523 41.4982C78.5059 41.0419 78.4773 40.5891 78.4488 40.1364C78.3881 39.2309 78.3417 38.3291 78.2561 37.4307C78.2064 36.5245 78.0616 35.626 77.8243 34.75Z" fill="#263238"/>
<path d="M115.972 115.075C115.258 115.482 93.8465 119.955 92.9222 119.61C92.5653 119.481 91.7339 116.401 90.831 112.651C90.6383 111.842 90.442 111.004 90.2457 110.156C88.9753 104.627 87.7477 98.7485 87.7477 98.7485L102.072 95.7148L104.196 107.204L104.656 109.728C104.656 109.728 113.627 111.682 114.602 112.166C115.576 112.651 116.686 114.669 115.972 115.075Z" fill="#A26E3F"/>
<path d="M91.1944 114.085C91.9581 117.158 92.6218 119.5 92.9359 119.614C93.8566 119.97 115.29 115.482 115.986 115.076C116.682 114.67 115.568 112.659 114.601 112.167C113.998 111.868 110.354 111.009 107.649 110.385C110.012 110.948 114.43 112.549 105.305 113.208C97.7714 113.764 92.7753 114.014 91.1944 114.085Z" fill="#263238"/>
<path d="M96.6421 126.023C95.8677 126.241 74.0026 125.111 73.1961 124.54C72.8892 124.326 73.7314 115.561 73.9598 114.716C74.7342 111.864 78.4313 103.255 78.4313 103.255L93.0627 103.968L87.0639 117.967C87.0639 117.967 95.2432 122.141 96.0604 122.858C96.8776 123.574 97.4129 125.806 96.6421 126.023Z" fill="#A26E3F"/>
<path d="M73.1973 124.543C74.0038 125.114 95.8653 126.244 96.6468 126.026C97.4283 125.809 96.8609 123.581 96.0473 122.864C95.6654 122.526 93.6884 121.438 91.6864 120.387C94.1844 121.813 98.1778 124.95 73.4257 119.317C73.2009 121.827 73.0331 124.426 73.1973 124.543Z" fill="#263238"/>
<path d="M62.7268 82.8352C67.0841 87.6869 81.7263 83.8548 82.6006 85.7833C83.3714 87.4873 73.3792 114.815 73.3792 114.815L89.3667 116.537C89.3667 116.537 103.17 86.3537 98.2348 77.6342C95.5726 72.9251 83.8282 74.8037 76.7444 73.9411C74.6033 73.6808 73.604 69.2783 73.604 69.2783H60.9425C60.9425 69.2783 57.745 77.2884 62.7268 82.8352Z" fill="#37474F"/>
<path d="M93.793 74.9253L80.3677 85.1883C75.9069 85.0957 66.1503 86.6356 62.728 82.8284C57.7319 77.2852 60.9436 69.2822 60.9436 69.2822H73.6052C73.6052 69.2822 74.608 73.6847 76.7456 73.945C81.7131 74.5367 88.9789 73.7953 93.793 74.9253Z" fill="#263238"/>
<path d="M89.9825 112.969C89.54 112.83 85.3933 112.37 84.4797 112.256C82.649 112.06 76.8892 111.521 75.8436 111.521C75.837 111.521 75.8306 111.524 75.826 111.529C75.8213 111.533 75.8186 111.54 75.8186 111.546C75.8186 111.553 75.8213 111.559 75.826 111.564C75.8306 111.569 75.837 111.571 75.8436 111.571C76.7501 111.76 80.4258 112.192 81.3393 112.284C83.1736 112.473 89.4687 113.083 89.9754 113.033C89.981 113.03 89.9858 113.026 89.9894 113.02C89.9929 113.015 89.9952 113.009 89.9959 113.003C89.9966 112.996 89.9957 112.99 89.9934 112.984C89.9911 112.978 89.9873 112.973 89.9825 112.969Z" fill="#263238"/>
<path d="M84.539 84.1761C83.5113 83.6663 75.7209 83.9194 70.1289 83.3954C68.3053 83.2278 66.4782 82.8393 65.09 81.6451C63.873 80.5542 63.0043 79.1297 62.5919 77.5491C62.0566 75.642 62.1102 73.6528 62.2029 71.6957C62.2244 71.2181 62.26 70.7368 62.2886 70.2698C62.2886 70.2413 62.2422 70.2377 62.2386 70.2698C61.814 73.774 61.4857 77.6846 63.766 80.7182C64.779 82.0474 66.2174 82.9897 67.8414 83.3882C71.2138 84.2759 83.9003 84.0549 84.3428 84.3971C84.8745 84.8035 76.6773 109.732 76.5132 110.206C76.4846 110.295 76.6417 110.356 76.6773 110.267C77.4946 108.335 85.4348 84.6181 84.539 84.1761Z" fill="#263238"/>
<path d="M98.8106 78.472C98.0576 76.5613 96.3375 75.3706 93.8145 74.9072C93.7717 74.9072 93.7752 74.9607 93.8145 74.975C96.0199 75.6202 97.5972 76.5042 98.4537 78.3651C98.857 79.2349 99.0675 80.454 99.1674 82.0903C99.692 90.2537 92.5619 108.78 92.4191 109.104C92.4165 109.107 92.4145 109.111 92.4134 109.114C92.4123 109.118 92.4121 109.122 92.4128 109.126C92.4135 109.13 92.415 109.133 92.4174 109.136C92.4197 109.139 92.4227 109.142 92.4262 109.144C92.4297 109.145 92.4335 109.146 92.4374 109.146C92.4413 109.146 92.4451 109.145 92.4486 109.144C92.4521 109.142 92.4551 109.139 92.4574 109.136C92.4597 109.133 92.4613 109.13 92.462 109.126C93.4897 107.432 101.922 86.3609 98.8106 78.472Z" fill="#263238"/>
<path d="M104.59 106.47L92.4815 109.044C92.4815 109.044 102.035 80.5685 97.5489 76.8968C96.3035 75.8773 93.5949 75.5208 90.3724 76.8968C85.5619 78.9715 79.9948 83.2029 74.7453 84.7393C69.8313 86.1902 63.9966 84.857 61.9874 82.6468C57.7657 78.0126 60.9418 69.2432 60.9418 69.2432L78.3496 68.5908C78.3496 68.5908 78.0927 68.8011 78.9206 69.5355C78.9206 69.5355 89.1555 67.2184 93.602 69.9312C101.621 74.8542 104.59 106.47 104.59 106.47Z" fill="#37474F"/>
<path d="M68.4618 70.2842C68.4596 70.2779 68.4555 70.2725 68.4501 70.2686C68.4446 70.2648 68.4381 70.2627 68.4315 70.2627C68.4248 70.2627 68.4183 70.2648 68.4129 70.2686C68.4074 70.2725 68.4033 70.2779 68.4011 70.2842C68.4173 70.9376 68.3671 71.5909 68.2513 72.2342C68.1166 72.8445 67.8138 73.4051 67.3769 73.8526C66.4206 74.8186 65.0538 75.1466 63.8083 75.5423C63.7405 75.5601 63.7548 75.6778 63.8297 75.6671C65.2179 75.4532 66.6846 75.1003 67.691 74.0629C68.1573 73.5825 68.4702 72.9745 68.5903 72.3162C68.7158 71.6386 68.6717 70.9406 68.4618 70.2842Z" fill="#263238"/>
<path d="M97.2511 76.3513C95.3883 75.1856 92.4799 76.0697 91.0846 76.6044C91.056 76.6044 91.0846 76.6614 91.0846 76.6507C92.3657 76.1909 95.5561 75.4957 97.2619 76.7006C101.187 79.4883 95.9272 98.5528 92.4692 109.044C92.4157 109.208 92.5477 109.165 92.6191 109.005C93.19 107.761 97.6473 94.5032 98.8071 85.7338C98.9998 84.3863 99.9348 78.0339 97.2511 76.3513Z" fill="#263238"/>
<path d="M103.21 103.255C102.853 103.255 99.7056 103.939 99.0169 104.093C97.6322 104.403 94.4312 105.233 93.6639 105.519C93.6425 105.519 93.6639 105.565 93.6639 105.565C94.3776 105.497 96.0513 105.13 96.7401 104.97C98.1211 104.649 102.853 103.515 103.199 103.33C103.264 103.315 103.246 103.258 103.21 103.255Z" fill="#263238"/>
<path d="M96.6597 75.856C95.3791 75.2246 93.9337 75.0066 92.5236 75.2322C91.0571 75.4534 89.6333 75.8982 88.3019 76.5512C85.4684 77.8452 82.7848 79.4244 79.9299 80.697C77.075 81.9696 74.0987 82.9785 71.0083 83.0747C68.3496 83.1567 64.988 82.6897 63.2822 80.3013C60.6521 76.626 62.183 70.2843 62.2116 69.8743C62.2116 69.8422 62.1688 69.8458 62.1616 69.8743C60.1204 77.6705 62.7469 80.6935 64.5205 81.9661C65.9265 82.9785 67.9499 83.2316 69.2846 83.3457C72.3751 83.6059 75.4762 82.8502 78.3383 81.7094C81.2752 80.5437 84.0481 78.9681 86.8423 77.5315C89.5402 76.1555 92.5521 74.7331 95.6247 75.5209C95.9739 75.6161 96.3162 75.7352 96.6489 75.8774C96.6489 75.8774 96.6739 75.8667 96.6597 75.856Z" fill="#263238"/>
<path d="M72.5699 52.9414C74.0188 56.5418 79.7893 68.1809 83.5792 69.0044C86.0772 69.5426 96.1158 68.5695 97.8537 66.1953C98.6067 65.1615 97.3327 57.9464 95.9909 58.2315C94.6491 58.5167 86.5947 59.5826 85.6061 59.301C84.6176 59.0194 77.202 50.4852 74.4292 48.3678C69.6472 44.7103 71.7848 51.0021 72.5699 52.9414Z" fill="#A26E3F"/>
<path d="M92.9421 57.7142L93.1562 68.5548C93.1562 68.5548 85.1946 70.0057 81.7866 68.6902C77.6541 67.0932 71.9942 53.9213 71.2305 51.761C69.9779 48.2176 70.4383 46.1144 72.3689 46.7026C73.1219 46.9236 74.0961 47.5581 75.2809 48.6775C76.4657 49.7968 83.603 57.3756 85.8726 58.8336C87.1395 59.6642 92.9421 57.7142 92.9421 57.7142Z" fill="#A6A6A6"/>
<path d="M91.1425 68.0949C91.064 66.4943 90.9748 59.9315 91.0533 58.5091C91.0533 58.4129 91.1247 58.3915 91.1318 58.5091C91.4887 63.3002 91.2068 66.5299 91.2068 68.102C91.2068 68.1305 91.1425 68.1341 91.1425 68.0949Z" fill="#263238"/>
<path d="M89.7852 69.0188C87.1943 69.2897 83.7399 69.443 81.7879 68.6908C77.6554 67.0938 71.9955 53.9219 71.2318 51.7652C69.9792 48.2004 70.436 46.115 72.3702 46.7032L72.5522 46.7638L89.7852 69.0188Z" fill="#263238"/>
<path d="M60.588 70.4834L80.0156 68.726L77.8744 60.8478C78.4072 60.0828 78.7654 59.2104 78.9239 58.292C79.0824 57.3736 79.0372 56.4317 78.7916 55.5327C78.3063 53.7503 75.7654 50.3174 74.3451 48.6099C70.8799 44.4533 68.182 46.0432 67.2078 47.1127C63.5678 51.1979 60.588 70.4834 60.588 70.4834Z" fill="white"/>
<path d="M68.5094 46.1182C68.5094 46.1182 70.6934 52.2674 71.475 53.4795C72.2565 54.6915 74.5547 56.8589 74.5547 56.8589C74.5547 56.8589 74.8223 53.729 74.5547 51.943C74.2871 50.1571 73.0024 47.2446 73.0024 47.2446C73.4071 47.4598 73.7697 47.746 74.0729 48.0895C75.7966 49.8469 78.5659 53.6648 79.0191 56.0319C79.1879 56.8504 79.1929 57.6942 79.0336 58.5147C78.8744 59.3352 78.5541 60.116 78.0912 60.8122L80.707 69.1503L77.2669 69.9167L75.6003 67.9989L74.3691 70.4942L58.4566 73.371L60.3872 67.2681C60.3872 67.2681 64.1343 51.0946 65.6724 48.8916C67.4602 46.357 68.5094 46.1182 68.5094 46.1182Z" fill="#A6A6A6"/>
<path d="M72.4329 60.4911C73.3049 60.4115 74.1816 60.396 75.0558 60.4447C75.4912 60.4768 75.9195 60.5267 76.3513 60.5873C76.5654 60.6158 76.7795 60.6408 76.9972 60.6622C77.2224 60.6889 77.45 60.6889 77.6752 60.6622C77.6931 60.6622 77.7002 60.6871 77.6752 60.6943C77.467 60.7414 77.256 60.7759 77.0436 60.7976C76.8357 60.8119 76.627 60.8119 76.4191 60.7976C75.9801 60.7727 75.5412 60.7228 75.0987 60.6943C74.2101 60.6301 73.3144 60.5659 72.4329 60.5659C72.3936 60.5624 72.3901 60.4911 72.4329 60.4911Z" fill="#263238"/>
<path d="M70.4485 61.6319C71.1422 61.4313 71.8463 61.2683 72.5576 61.1435C72.9144 61.0829 73.2713 61.0472 73.6282 61.0151L74.1456 60.9795C74.3348 60.9795 74.5239 60.9795 74.713 60.9795C74.7345 60.9795 74.738 61.008 74.713 61.0116C74.5346 61.0294 74.3562 61.0757 74.1813 61.1043L73.646 61.1863L72.5754 61.3538C71.8617 61.4572 71.148 61.5677 70.4343 61.7103C70.42 61.6996 70.4128 61.6425 70.4485 61.6319Z" fill="#263238"/>
<path d="M68.628 47.084C68.421 48.5099 68.1891 49.9037 67.95 51.3083L67.8786 51.1942C68.7065 51.4116 69.5344 51.6469 70.3766 51.8751L70.5158 51.9143L70.4551 52.0462C70.2089 52.5916 69.9662 53.137 69.7093 53.6753L69.6772 53.5256C70.5515 54.2884 71.4401 55.037 72.3073 55.8142C73.1744 56.5913 74.0416 57.3577 74.8945 58.1491C73.9774 57.4361 73.0781 56.6982 72.1824 55.9568C71.2866 55.2153 70.398 54.4667 69.5094 53.7216L69.4381 53.6575L69.4773 53.5683C69.72 53.0229 69.9769 52.4989 70.2267 51.9428L70.3088 52.1139C69.4845 51.8715 68.6565 51.6398 67.8358 51.401L67.743 51.3724L67.7608 51.2833C68.0285 49.8752 68.314 48.4778 68.628 47.084Z" fill="#263238"/>
<path d="M73.2202 47.5088C73.6805 47.9865 75.786 50.7171 75.786 50.7171L75.8753 50.8205L75.7575 50.8918L74.8974 51.4265L74.9224 51.234C75.2793 51.5905 75.6361 51.947 75.993 52.3034L76.043 52.3533V52.4175C75.8645 53.3764 75.7039 54.3389 75.5077 55.2979C75.3114 56.2568 75.1258 57.2122 74.9081 58.1675C75.0259 57.1979 75.1687 56.2283 75.3185 55.2658C75.4684 54.3033 75.6362 53.3372 75.7896 52.3712L75.8253 52.4852C75.4684 52.1288 75.1116 51.7723 74.7725 51.4158L74.6619 51.3017L74.7975 51.2233L75.6469 50.6815L75.6219 50.8561C75.1758 50.3535 73.6306 48.0328 73.2202 47.5088Z" fill="#263238"/>
<path d="M74.8787 58.1494C75 58.6164 75.1285 59.0798 75.2356 59.5504C75.3426 60.0209 75.4568 60.4879 75.5603 60.9549C75.5924 61.9994 75.6031 63.0474 75.621 64.0955C75.6388 65.1435 75.621 66.1916 75.621 67.2396C75.5615 66.1916 75.5139 65.1447 75.4782 64.0991C75.4533 63.051 75.4176 62.003 75.4069 60.9585C75.3069 60.4879 75.2141 60.0138 75.1285 59.5326C75.0428 59.0513 74.9572 58.6235 74.8787 58.1494Z" fill="#263238"/>
<path d="M74.3302 59.0583C74.2824 59.0498 74.2334 59.0511 74.1862 59.0621C74.1389 59.0731 74.0944 59.0937 74.0554 59.1225C74.0145 59.1556 73.9814 59.1974 73.9586 59.2449C73.9357 59.2924 73.9237 59.3443 73.9234 59.3969C73.9237 59.4496 73.9357 59.5015 73.9586 59.549C73.9814 59.5964 74.0145 59.6383 74.0554 59.6714C74.0942 59.7008 74.1385 59.722 74.1858 59.7337C74.233 59.7453 74.2822 59.7472 74.3302 59.7392C74.4094 59.7196 74.4795 59.6736 74.5288 59.6088C74.5782 59.5439 74.6038 59.4641 74.6014 59.3827C74.5967 59.3068 74.5679 59.2344 74.5191 59.176C74.4703 59.1176 74.4041 59.0764 74.3302 59.0583ZM74.5086 59.5787C74.4827 59.596 74.4533 59.6075 74.4225 59.6124C74.3917 59.6173 74.3602 59.6156 74.3302 59.6073C74.2885 59.5906 74.2527 59.5618 74.2275 59.5247C74.2023 59.4875 74.1888 59.4436 74.1888 59.3987C74.1888 59.3538 74.2023 59.31 74.2275 59.2728C74.2527 59.2356 74.2885 59.2069 74.3302 59.1902C74.362 59.1814 74.3955 59.1801 74.4279 59.1863C74.4604 59.1926 74.4909 59.2063 74.5172 59.2263C74.5435 59.2463 74.5647 59.2722 74.5793 59.3018C74.594 59.3314 74.6015 59.3639 74.6014 59.3969C74.6017 59.4325 74.5934 59.4675 74.5773 59.4992C74.5611 59.5308 74.5376 59.5581 74.5086 59.5787Z" fill="#263238"/>
<path d="M74.7368 62.0889C74.6888 62.0808 74.6397 62.0827 74.5924 62.0944C74.5452 62.106 74.5008 62.1272 74.462 62.1566C74.4222 62.1901 74.3903 62.2318 74.3683 62.2789C74.3464 62.326 74.335 62.3774 74.335 62.4293C74.335 62.4813 74.3464 62.5326 74.3683 62.5797C74.3903 62.6268 74.4222 62.6686 74.462 62.702C74.5008 62.7314 74.5452 62.7526 74.5924 62.7643C74.6397 62.7759 74.6888 62.7778 74.7368 62.7698C74.8167 62.7509 74.8876 62.7052 74.9376 62.6403C74.9877 62.5754 75.0138 62.4952 75.0116 62.4133C75.0067 62.3369 74.9774 62.2641 74.9279 62.2057C74.8784 62.1473 74.8114 62.1063 74.7368 62.0889ZM74.9188 62.6093C74.8922 62.6267 74.8622 62.6382 74.8309 62.6431C74.7995 62.648 74.7675 62.6462 74.7368 62.6379C74.694 62.6225 74.6573 62.5937 74.6322 62.5558C74.6071 62.5179 74.595 62.4729 74.5976 62.4275C74.5963 62.3829 74.609 62.3389 74.634 62.3018C74.6589 62.2647 74.6949 62.2364 74.7368 62.2208C74.7675 62.2124 74.7995 62.2106 74.8309 62.2156C74.8622 62.2205 74.8922 62.232 74.9188 62.2493C74.9469 62.2698 74.9696 62.2967 74.9853 62.3276C75.0011 62.3586 75.0092 62.3928 75.0092 62.4275C75.0092 62.4622 75.0011 62.4965 74.9853 62.5274C74.9696 62.5584 74.9469 62.5852 74.9188 62.6058V62.6093Z" fill="#263238"/>
<path d="M74.8774 64.8623C74.8294 64.8543 74.7803 64.8562 74.733 64.8678C74.6858 64.8794 74.6414 64.9006 74.6027 64.93C74.5622 64.9635 74.5297 65.0054 74.5074 65.0529C74.4851 65.1003 74.4735 65.1521 74.4735 65.2045C74.4735 65.2569 74.4851 65.3087 74.5074 65.3562C74.5297 65.4036 74.5622 65.4456 74.6027 65.479C74.6417 65.5078 74.6862 65.5283 74.7334 65.5394C74.7807 65.5504 74.8297 65.5517 74.8774 65.5432C74.9573 65.5244 75.0282 65.4786 75.0782 65.4137C75.1283 65.3488 75.1544 65.2686 75.1522 65.1867C75.1473 65.1103 75.118 65.0376 75.0685 64.9791C75.019 64.9207 74.952 64.8798 74.8774 64.8623ZM75.0594 65.3828C75.0331 65.4008 75.0031 65.4126 74.9716 65.4176C74.9402 65.4225 74.908 65.4204 74.8774 65.4113C74.8354 65.3954 74.7992 65.3671 74.7736 65.3302C74.7481 65.2933 74.7344 65.2494 74.7344 65.2045C74.7344 65.1596 74.7481 65.1158 74.7736 65.0789C74.7992 65.0419 74.8354 65.0136 74.8774 64.9978C74.9078 64.9889 74.9397 64.9865 74.9711 64.9908C75.0025 64.9951 75.0326 65.006 75.0594 65.0227C75.087 65.0446 75.1096 65.0722 75.1256 65.1036C75.1416 65.1349 75.1507 65.1694 75.1522 65.2045C75.1498 65.237 75.1402 65.2685 75.1242 65.2969C75.1081 65.3252 75.086 65.3497 75.0594 65.3685V65.3828Z" fill="#263238"/>
<path d="M72.0603 53.6509C72.0603 53.6509 70.6329 52.0717 71.7962 51.1948C72.9596 50.3178 74.1016 52.1002 74.1016 52.1002L72.0603 53.6509Z" fill="#455A64"/>
<path d="M83.0999 63.9066L83.4568 65.9528L83.5781 66.6265L82.9536 66.3377L81.0694 65.4572L72.0193 53.5829L74.057 52.0322L83.0999 63.9066Z" fill="#455A64"/>
<path d="M83.4525 65.9561L83.5703 66.6334L82.9458 66.3411L83.4525 65.9561Z" fill="#37474F"/>
<path d="M74.5383 52.3159L72.1562 54.1279L71.7973 53.6571L74.1794 51.8451L74.5383 52.3159Z" fill="#263238"/>
<path d="M74.9406 52.8403L72.5586 54.6523L72.1997 54.1816L74.5817 52.3696L74.9406 52.8403Z" fill="#263238"/>
<path d="M72.5494 54.6452L73.3166 54.0605L76.168 58.677L75.8718 58.8766L72.5494 54.6452Z" fill="#263238"/>
<path d="M63.6645 50.5566C57.9547 57.704 51.7345 69.5462 54.8464 71.8027C57.7013 73.8596 67.433 71.1326 73.489 68.3235C74.6417 67.7888 69.2066 57.6291 68.0361 58.3421C66.8061 59.0905 65.5308 59.7619 64.2176 60.3526C63.8822 60.4667 65.2882 56.303 67.0547 51.2517C69.0068 45.6158 66.9334 46.4749 63.6645 50.5566Z" fill="#A26E3F"/>
<path d="M83.0765 56.6274C83.1586 57.843 80.1466 57.7895 80.1466 57.7895C80.6025 58.0489 80.9525 58.4604 81.1351 58.9517C81.4171 59.8322 80.1573 60.6592 80.1573 60.6592C80.5712 61.0293 80.8645 61.5148 80.9995 62.053C81.1851 62.9228 80.0324 63.9388 80.0324 63.9388C80.2273 64.4883 80.2172 65.0895 80.0039 65.6321C79.3794 67.058 76.9848 67.2362 75.5252 67.6355C73.893 68.1224 72.3023 68.7387 70.7683 69.4785L67.3459 58.7485C67.3459 58.7485 73.5232 54.5456 75.3218 54.5206C76.8421 54.4992 82.9516 54.7737 83.0765 56.6274Z" fill="#A26E3F"/>
<path d="M80.1181 57.7538C78.5015 57.3974 76.8028 57.4152 75.1612 57.458C75.1255 57.458 75.1291 57.515 75.1612 57.515C76.7921 57.4544 78.4765 57.8287 80.1074 57.8323C80.1178 57.8337 80.1283 57.8309 80.1367 57.8246C80.1451 57.8182 80.1506 57.8088 80.152 57.7984C80.1534 57.788 80.1506 57.7775 80.1443 57.7691C80.1379 57.7607 80.1285 57.7553 80.1181 57.7538Z" fill="#263238"/>
<path d="M80.1019 60.538C79.7275 60.4899 79.3486 60.4899 78.9742 60.538C78.5745 60.5701 78.1784 60.6058 77.7787 60.6485C76.9829 60.7341 76.1871 60.8411 75.3984 60.9694C75.3627 60.9694 75.3627 61.03 75.3984 61.0229C76.1942 60.9409 76.9865 60.866 77.7858 60.8161L78.9813 60.7484C79.3588 60.754 79.7358 60.7181 80.1055 60.6414C80.1152 60.6365 80.1233 60.6289 80.1288 60.6196C80.1343 60.6102 80.1371 60.5995 80.1367 60.5886C80.1363 60.5777 80.1329 60.5672 80.1267 60.5582C80.1205 60.5493 80.1119 60.5423 80.1019 60.538Z" fill="#263238"/>
<path d="M80.003 63.9425C79.663 63.9058 79.3192 63.9263 78.9859 64.0031C78.6291 64.053 78.2722 64.0958 77.8975 64.1386C77.1838 64.2242 76.4486 64.3097 75.7206 64.3703C75.6849 64.3703 75.6885 64.4309 75.7206 64.4273C76.4593 64.3703 77.198 64.324 77.9403 64.2598L79.0109 64.1564C79.3435 64.1564 79.6733 64.0973 79.9851 63.9817C79.9903 63.9841 79.9963 63.9843 80.0016 63.9823C80.007 63.9803 80.0113 63.9762 80.0137 63.971C80.0161 63.9658 80.0163 63.9599 80.0143 63.9546C80.0122 63.9492 80.0082 63.9449 80.003 63.9425Z" fill="#263238"/>
<path d="M66.5031 47.3872C62.2207 50.3317 51.6896 66.908 54.0128 71.2071C56.336 75.5063 70.293 69.9345 70.293 69.9345L68.4266 58.0423C68.4266 58.0423 64.7937 60.3345 64.6581 60.1527C64.5225 59.9709 66.4246 54.3991 67.2025 52.1319C67.9805 49.8647 68.7763 45.8222 66.5031 47.3872Z" fill="#A6A6A6"/>
<path d="M68.4629 69.3468C68.1061 67.7819 66.9498 61.3225 66.7892 59.9108C66.7892 59.8145 66.8392 59.7825 66.8642 59.8823C68.0062 64.5486 68.2667 67.7783 68.5272 69.3325C68.5308 69.3718 68.4737 69.3896 68.4629 69.3468Z" fill="#263238"/>
<path d="M68.3468 58.0568C67.9401 58.2305 67.5475 58.4355 67.1727 58.67C66.8158 58.866 66.4839 59.0585 66.1449 59.2581C65.4062 59.6895 64.6782 60.1387 63.9538 60.5949C63.2293 61.0512 62.5263 61.5075 61.8126 61.9817C61.0989 62.4558 60.4173 62.9655 59.7035 63.4397C59.6714 63.461 59.7035 63.5074 59.7428 63.486C60.4565 63.0261 61.2202 62.6126 61.9553 62.1706L64.1179 60.8659L66.2805 59.5683L67.3333 58.9231C67.7197 58.71 68.0916 58.4719 68.4467 58.2101C68.467 58.1969 68.4813 58.1761 68.4863 58.1524C68.4913 58.1286 68.4867 58.1039 68.4735 58.0835C68.4602 58.0632 68.4394 58.049 68.4156 58.044C68.3919 58.039 68.3671 58.0436 68.3468 58.0568Z" fill="#263238"/>
<path d="M66.9152 54.6737C66.7011 54.9767 66.4905 55.2833 66.2907 55.6006L66.1836 55.7788C66.2371 55.6184 66.2871 55.458 66.3371 55.3011C66.5373 54.7465 66.7065 54.1812 66.8438 53.6079C66.8438 53.5829 66.8117 53.5722 66.801 53.6079C66.5477 54.1678 66.3261 54.7414 66.1372 55.3261C65.9302 55.8893 65.7197 56.449 65.5234 57.0158C65.3272 57.5826 65.1273 58.1494 64.9417 58.7198C64.7378 59.2737 64.5755 59.8421 64.4564 60.4202C64.4569 60.4266 64.4592 60.4328 64.4633 60.4378C64.4673 60.4429 64.4727 60.4466 64.4789 60.4486C64.485 60.4505 64.4916 60.4505 64.4978 60.4486C64.504 60.4467 64.5095 60.443 64.5135 60.438C64.7852 59.8855 65.0154 59.3135 65.2022 58.7269C65.4021 58.1637 65.5912 57.5933 65.7839 57.0265C65.866 56.7877 65.941 56.5488 66.0195 56.3135L66.1265 56.1496C66.2264 55.9963 66.3192 55.843 66.4084 55.6826C66.594 55.3617 66.7653 55.0302 66.933 54.6987C66.9366 54.6737 66.9223 54.6737 66.9152 54.6737Z" fill="#263238"/>
<path d="M70.3134 69.6705C70.3134 69.5885 70.2598 69.5742 70.2491 69.6705C70.2384 69.7667 70.2491 69.8024 70.2491 69.8487C69.7709 70.0056 68.0259 70.6365 67.5976 70.7862C66.7055 71.0999 65.8133 71.3851 64.8855 71.6347C63.9576 71.8842 63.0476 72.1088 62.1162 72.3048C61.1848 72.5009 60.2534 72.697 59.3148 72.8075C59.3073 72.8075 59.3 72.8105 59.2946 72.8158C59.2893 72.8212 59.2863 72.8284 59.2863 72.836C59.2863 72.8436 59.2893 72.8508 59.2946 72.8562C59.3 72.8615 59.3073 72.8645 59.3148 72.8645C60.2712 72.7683 61.2276 72.6898 62.1697 72.533C63.1119 72.3761 64.0254 72.1765 64.939 71.9341C65.8526 71.6917 66.7911 71.3994 67.6976 71.075C68.1472 70.911 68.5969 70.7363 69.0429 70.551C69.4776 70.3977 69.8959 70.2019 70.292 69.9663C70.3061 69.9557 70.3172 69.9416 70.3241 69.9253C70.331 69.909 70.3335 69.8912 70.3312 69.8737C70.3312 69.8059 70.3241 69.7382 70.3134 69.6705Z" fill="#263238"/>
<path d="M90.8567 69.6599L78.2344 69.9308L83.7836 53.6326L96.4023 53.3652L90.8567 69.6599Z" fill="white"/>
<path d="M91.7199 69.642L79.0977 69.9129L84.6469 53.6147L97.2656 53.3438L91.7199 69.642Z" fill="#C4D0A1"/>
<path d="M85.9957 53.604C85.9573 53.7449 85.8911 53.8768 85.8011 53.9919C85.711 54.107 85.5988 54.2029 85.4712 54.2742C85.3498 54.3419 85.3141 54.185 85.4319 54.1209C85.5951 54.0251 85.721 53.8768 85.7888 53.7002C85.7888 53.6717 85.8066 53.6396 85.8137 53.6075C85.8402 53.5071 85.8402 53.4014 85.8137 53.301C85.8008 53.2573 85.7746 53.2187 85.7388 53.1905H85.7138C85.6847 53.1816 85.6537 53.1816 85.6246 53.1905C85.5699 53.2104 85.5209 53.2435 85.4819 53.2867C85.4329 53.3372 85.3919 53.3949 85.3605 53.4578C85.3406 53.4875 85.3227 53.5184 85.307 53.5505V53.5755C85.3057 53.5861 85.3057 53.5969 85.307 53.6075C85.307 53.6075 85.307 53.6075 85.307 53.6289H85.125C85.1662 53.5167 85.2213 53.4101 85.2892 53.3117C85.3425 53.2286 85.4126 53.1575 85.4949 53.1029C85.5772 53.0483 85.67 53.0113 85.7673 52.9944C85.8389 52.9914 85.9088 53.016 85.9626 53.0631C86.0165 53.1102 86.05 53.1763 86.0564 53.2475C86.0658 53.3695 86.045 53.4919 85.9957 53.604Z" fill="#455A64"/>
<path d="M86.9714 53.5649C86.9322 53.706 86.8653 53.8379 86.7746 53.953C86.684 54.068 86.5713 54.1639 86.4432 54.2351C86.3255 54.3028 86.2898 54.146 86.4075 54.0818C86.5712 53.9865 86.6971 53.838 86.7644 53.6612C86.7755 53.632 86.7851 53.6022 86.793 53.572C86.8194 53.4704 86.8194 53.3636 86.793 53.2619C86.7829 53.2178 86.7576 53.1787 86.7216 53.1514H86.6823C86.6532 53.1426 86.6222 53.1426 86.5931 53.1514C86.5387 53.172 86.4898 53.2049 86.4504 53.2476C86.4021 53.2987 86.3613 53.3563 86.329 53.4188C86.3084 53.4492 86.2904 53.4814 86.2755 53.515V53.5364C86.2742 53.547 86.2742 53.5578 86.2755 53.5685C86.2755 53.5685 86.2755 53.5685 86.2755 53.5899H86.0971C86.1368 53.4781 86.192 53.3725 86.2612 53.2762C86.313 53.1914 86.3826 53.1188 86.4651 53.0634C86.5477 53.008 86.6413 52.9712 86.7394 52.9553C86.811 52.9523 86.8809 52.9769 86.9347 53.024C86.9885 53.0712 87.0221 53.1372 87.0285 53.2084C87.039 53.3301 87.0194 53.4526 86.9714 53.5649Z" fill="#455A64"/>
<path d="M87.9617 53.5473C87.8794 53.8307 87.69 54.071 87.4336 54.2175C87.3158 54.2817 87.2801 54.1248 87.3979 54.0642C87.5608 53.9665 87.6864 53.8172 87.7547 53.64C87.7659 53.6108 87.7754 53.5811 87.7833 53.5509C87.8097 53.4492 87.8097 53.3424 87.7833 53.2407C87.774 53.1973 87.7484 53.1591 87.7119 53.1338H87.6869C87.659 53.125 87.6292 53.125 87.6013 53.1338C87.5469 53.1544 87.498 53.1873 87.4585 53.2301C87.4092 53.2811 87.3672 53.3387 87.3336 53.4012C87.3146 53.4297 87.2967 53.4618 87.2801 53.4974V53.5188C87.2787 53.5295 87.2787 53.5402 87.2801 53.5509C87.2785 53.5579 87.2785 53.5652 87.2801 53.5723H87.1017C87.1413 53.4605 87.1966 53.3549 87.2658 53.2586C87.3188 53.1748 87.3888 53.1031 87.4711 53.0478C87.5534 52.9926 87.6464 52.9551 87.744 52.9377C87.8152 52.9348 87.8847 52.9595 87.938 53.0067C87.9912 53.0539 88.024 53.1199 88.0295 53.1908C88.0381 53.3135 88.0147 53.4363 87.9617 53.5473Z" fill="#455A64"/>
<path d="M88.9483 53.5258C88.866 53.8092 88.6766 54.0495 88.4201 54.196C88.3024 54.2602 88.2667 54.1033 88.3844 54.0427C88.5474 53.945 88.673 53.7957 88.7413 53.6185C88.7529 53.5898 88.7613 53.5599 88.7663 53.5294C88.7944 53.4279 88.7944 53.3207 88.7663 53.2193C88.7557 53.1754 88.729 53.1372 88.6913 53.1123H88.6664C88.6372 53.1037 88.6063 53.1037 88.5771 53.1123C88.5232 53.1338 88.4745 53.1666 88.4344 53.2086C88.3873 53.2606 88.3466 53.318 88.3131 53.3797C88.2931 53.4105 88.2752 53.4427 88.2595 53.4759V53.4973C88.2582 53.508 88.2582 53.5187 88.2595 53.5294C88.258 53.5364 88.258 53.5437 88.2595 53.5508H88.0811C88.1208 53.439 88.1761 53.3334 88.2453 53.2371C88.2983 53.1534 88.3682 53.0816 88.4505 53.0263C88.5329 52.9711 88.6258 52.9336 88.7235 52.9163C88.7946 52.9133 88.8641 52.938 88.9174 52.9852C88.9706 53.0324 89.0035 53.0984 89.009 53.1694C89.0197 53.2914 88.9988 53.4142 88.9483 53.5258Z" fill="#455A64"/>
<path d="M89.9217 53.5047C89.842 53.7884 89.6535 54.0292 89.3972 54.1749C89.2758 54.2391 89.2437 54.0822 89.3579 54.0216C89.522 53.9252 89.6479 53.7754 89.7148 53.5974L89.7397 53.5083C89.7662 53.4066 89.7662 53.2998 89.7397 53.1981C89.728 53.1549 89.7015 53.117 89.6648 53.0912H89.6398C89.6107 53.0826 89.5797 53.0826 89.5506 53.0912C89.4967 53.1126 89.448 53.1455 89.4079 53.1874C89.3596 53.2385 89.3188 53.2961 89.2865 53.3586C89.2651 53.3906 89.2509 53.4227 89.233 53.4548V53.4762C89.2317 53.4868 89.2317 53.4976 89.233 53.5083C89.233 53.5083 89.233 53.5083 89.233 53.5297H89.051C89.0922 53.4186 89.1473 53.3131 89.2152 53.216C89.267 53.1315 89.3366 53.0594 89.4192 53.0046C89.5018 52.9498 89.5953 52.9137 89.6933 52.8987C89.7643 52.8956 89.8338 52.9197 89.8875 52.9661C89.9412 53.0125 89.9752 53.0777 89.9824 53.1482C89.9912 53.2702 89.9704 53.3925 89.9217 53.5047Z" fill="#455A64"/>
<path d="M90.9229 53.4829C90.8839 53.6236 90.8175 53.7552 90.7275 53.8702C90.6375 53.9852 90.5256 54.0814 90.3983 54.1531C90.2769 54.2208 90.2412 54.0639 90.359 53.9998C90.5234 53.9038 90.6495 53.7539 90.7159 53.5756C90.727 53.5464 90.7365 53.5167 90.7444 53.4865C90.7727 53.385 90.7727 53.2778 90.7444 53.1763C90.7342 53.1333 90.7088 53.0954 90.673 53.0694H90.6338C90.605 53.059 90.5734 53.059 90.5446 53.0694C90.4889 53.0874 90.4394 53.1207 90.4018 53.1656C90.3529 53.2148 90.312 53.2714 90.2805 53.3332C90.2591 53.3653 90.2448 53.3973 90.227 53.4294V53.4508C90.2183 53.4598 90.2122 53.4708 90.2091 53.4829C90.2091 53.4829 90.2091 53.4829 90.2091 53.5043H90.0307C90.0704 53.3925 90.1257 53.2869 90.1949 53.1906C90.2467 53.1061 90.3163 53.034 90.3989 52.9792C90.4815 52.9244 90.575 52.8883 90.673 52.8733C90.744 52.8702 90.8135 52.8943 90.8672 52.9407C90.9209 52.9871 90.9549 53.0523 90.9621 53.1228C90.9783 53.2443 90.9648 53.3678 90.9229 53.4829Z" fill="#455A64"/>
<path d="M91.9121 53.4614C91.8308 53.7453 91.6411 53.986 91.3839 54.1316C91.2662 54.1993 91.2305 54.0425 91.3482 53.9783C91.5127 53.8823 91.6388 53.7324 91.7051 53.5541C91.7162 53.5249 91.7258 53.4952 91.7337 53.465C91.7601 53.3645 91.7601 53.2589 91.7337 53.1584C91.7236 53.1143 91.6983 53.0752 91.6623 53.0479H91.6373C91.6097 53.0375 91.5793 53.0375 91.5517 53.0479C91.4959 53.0659 91.4465 53.0993 91.4089 53.1441C91.359 53.1946 91.3169 53.2523 91.284 53.3152L91.2305 53.4079V53.4293C91.2291 53.44 91.2291 53.4508 91.2305 53.4614C91.2289 53.4685 91.2289 53.4757 91.2305 53.4828H91.052C91.0925 53.3714 91.1477 53.2659 91.2162 53.1691C91.268 53.0846 91.3376 53.0125 91.4202 52.9577C91.5028 52.9029 91.5964 52.8668 91.6944 52.8518C91.7654 52.8487 91.8348 52.8728 91.8886 52.9192C91.9423 52.9656 91.9763 53.0308 91.9835 53.1014C91.9895 53.2254 91.965 53.349 91.9121 53.4614Z" fill="#455A64"/>
<path d="M92.9011 53.4399C92.8198 53.7238 92.6302 53.9645 92.373 54.1101C92.2552 54.1778 92.2196 54.021 92.3373 53.9568C92.501 53.8599 92.6268 53.7103 92.6942 53.5326C92.7058 53.5039 92.7142 53.474 92.7192 53.4435C92.7473 53.3432 92.7473 53.2372 92.7192 53.1369C92.7076 53.0926 92.6811 53.0536 92.6442 53.0264H92.6192C92.5901 53.0178 92.5591 53.0178 92.53 53.0264C92.4747 53.0452 92.4254 53.0784 92.3873 53.1226C92.3386 53.1734 92.2977 53.2311 92.2659 53.2938C92.246 53.3234 92.2281 53.3544 92.2124 53.3864V53.4078C92.2111 53.4185 92.2111 53.4293 92.2124 53.4399C92.2109 53.447 92.2109 53.4543 92.2124 53.4613H92.034C92.0744 53.3499 92.1296 53.2444 92.1981 53.1476C92.2499 53.0632 92.3196 52.991 92.4022 52.9362C92.4847 52.8814 92.5783 52.8453 92.6763 52.8303C92.7469 52.8273 92.8159 52.8515 92.8691 52.898C92.9223 52.9445 92.9555 53.0096 92.9618 53.0799C92.9732 53.2031 92.9523 53.3272 92.9011 53.4399Z" fill="#455A64"/>
<path d="M93.8863 53.4194C93.8474 53.5601 93.781 53.6917 93.691 53.8068C93.6009 53.9218 93.4891 54.0179 93.3618 54.0896C93.244 54.1573 93.2083 54.0005 93.3225 53.9363C93.4866 53.8399 93.6125 53.6901 93.6794 53.5121L93.7043 53.423C93.7325 53.3227 93.7325 53.2166 93.7043 53.1164C93.6928 53.0721 93.6663 53.033 93.6294 53.0059H93.6044C93.5753 52.9973 93.5443 52.9973 93.5152 53.0059C93.4599 53.0247 93.4106 53.0579 93.3725 53.1021C93.3238 53.1529 93.2829 53.2105 93.2511 53.2732C93.2312 53.3029 93.2133 53.3339 93.1976 53.3659V53.3873C93.1963 53.398 93.1963 53.4087 93.1976 53.4194C93.1976 53.4194 93.1976 53.4194 93.1976 53.4408H93.0156C93.0575 53.33 93.1126 53.2247 93.1798 53.1271C93.2319 53.043 93.3017 52.9711 93.3842 52.9163C93.4667 52.8616 93.5601 52.8252 93.6579 52.8098C93.7295 52.8068 93.7994 52.8314 93.8532 52.8785C93.9071 52.9257 93.9407 52.9917 93.947 53.0629C93.9564 53.1849 93.9356 53.3073 93.8863 53.4194Z" fill="#455A64"/>
<path d="M94.8737 53.3979C94.8348 53.5386 94.7684 53.6703 94.6784 53.7853C94.5883 53.9003 94.4765 53.9964 94.3492 54.0681C94.2278 54.1358 94.1921 53.979 94.3099 53.9148C94.4735 53.8195 94.5995 53.671 94.6668 53.4942C94.6668 53.4621 94.6882 53.43 94.6953 53.4015C94.7237 53.3013 94.7237 53.1951 94.6953 53.0949C94.6852 53.0508 94.66 53.0117 94.6239 52.9844H94.6061H94.5847C94.5554 52.9774 94.5248 52.9774 94.4955 52.9844C94.4407 53.0044 94.3917 53.0374 94.3527 53.0806C94.3037 53.1311 94.2628 53.1888 94.2314 53.2518C94.2115 53.2814 94.1936 53.3124 94.1779 53.3444V53.3658V53.3979C94.1779 53.3979 94.1779 53.3979 94.1779 53.4229H93.9994C94.0406 53.3107 94.0958 53.2041 94.1636 53.1056C94.2154 53.0212 94.285 52.949 94.3676 52.8942C94.4502 52.8394 94.5438 52.8033 94.6418 52.7883C94.7133 52.7853 94.7832 52.8099 94.8371 52.857C94.8909 52.9042 94.9245 52.9702 94.9308 53.0414C94.9413 53.1631 94.9217 53.2856 94.8737 53.3979Z" fill="#455A64"/>
<path d="M95.8613 53.3763C95.7811 53.6608 95.5911 53.9018 95.3332 54.0465C95.2154 54.1142 95.1798 53.9574 95.2975 53.8932C95.4611 53.7979 95.5871 53.6494 95.6544 53.4726C95.6655 53.4422 95.675 53.4113 95.6829 53.3799C95.7094 53.2794 95.7094 53.1738 95.6829 53.0733C95.6729 53.0292 95.6476 52.9901 95.6115 52.9628H95.5866C95.5584 52.956 95.5291 52.956 95.5009 52.9628C95.4462 52.9828 95.3972 53.0158 95.3582 53.059C95.3092 53.1103 95.2672 53.1679 95.2333 53.2302L95.1797 53.3228V53.3442C95.1777 53.356 95.1777 53.3681 95.1797 53.3799C95.1797 53.3799 95.1797 53.3799 95.1797 53.4013H95.0013C95.041 53.2884 95.0962 53.1816 95.1655 53.084C95.2173 52.9996 95.2869 52.9274 95.3695 52.8726C95.4521 52.8178 95.5456 52.7817 95.6436 52.7667C95.7149 52.7646 95.7844 52.7895 95.8381 52.8364C95.8917 52.8834 95.9255 52.9489 95.9327 53.0198C95.9387 53.1427 95.9142 53.2652 95.8613 53.3763Z" fill="#455A64"/>
<path d="M96.8515 53.3549C96.7702 53.6389 96.5805 53.8795 96.3234 54.0251C96.2056 54.0929 96.1699 53.936 96.2877 53.8718C96.4504 53.7754 96.576 53.6273 96.6446 53.4512C96.6566 53.4214 96.665 53.3903 96.6695 53.3585C96.6977 53.2583 96.6977 53.1522 96.6695 53.0519C96.6579 53.0085 96.633 52.9699 96.5982 52.9414H96.5732C96.5441 52.9328 96.5131 52.9328 96.484 52.9414C96.4292 52.9614 96.3802 52.9944 96.3412 53.0377C96.2748 53.12 96.2163 53.2083 96.1663 53.3015V53.3229C96.1655 53.3347 96.1655 53.3466 96.1663 53.3585C96.1648 53.3656 96.1648 53.3728 96.1663 53.3799H95.9879C96.0275 53.267 96.0828 53.1602 96.1521 53.0626C96.2039 52.9782 96.2735 52.9061 96.3561 52.8513C96.4387 52.7965 96.5322 52.7603 96.6303 52.7454C96.7014 52.7424 96.7709 52.7671 96.8242 52.8143C96.8774 52.8615 96.9103 52.9275 96.9158 52.9985C96.9254 53.1208 96.9033 53.2436 96.8515 53.3549Z" fill="#455A64"/>
<path d="M96.4535 57.0332C97.0495 58.427 98.6197 60.188 98.7089 61.311C98.7417 61.587 98.6844 61.8662 98.5455 62.1071C98.4066 62.348 98.1935 62.5376 97.9381 62.6478C97.9381 62.6478 99.0301 63.2466 98.9444 64.2804C98.9016 64.8116 98.013 65.2073 98.013 65.2073C98.2515 65.3567 98.4442 65.5688 98.5701 65.8203C98.6959 66.0718 98.7501 66.353 98.7267 66.6332C98.6197 67.364 97.7454 67.6492 97.7454 67.6492C97.7454 67.6492 98.3342 68.5297 97.988 69.2355C97.2743 70.6614 90.9721 70.419 90.0871 68.0591C89.6767 66.9576 91.2148 67.1038 91.2148 67.1038C91.2148 67.1038 89.0522 66.3623 89.0736 65.0576C89.095 63.7528 91.0827 64.0666 91.0827 64.0666C91.0827 64.0666 88.9915 63.3286 89.1449 61.9811C89.3091 60.5766 91.2433 61.2254 91.2433 61.2254C91.2433 61.2254 89.8765 60.2201 90.2334 59.2149C90.8186 57.5572 93.3952 59.7745 94.7941 59.5L95.6506 57.2435L96.4535 57.0332Z" fill="#A26E3F"/>
<path d="M97.642 59.0693C97.1923 57.7004 98.9302 56.0998 98.6876 54.7309C98.3628 52.8772 96.2217 54.5955 95.6543 57.2477L95.5757 59.3866L97.642 59.0693Z" fill="#A26E3F"/>
<path d="M97.6218 67.7209C97.6432 67.7209 97.6503 67.7494 97.6218 67.7529C95.4426 68.2011 93.1785 67.976 91.1304 67.1077C91.0662 67.0792 91.0876 66.9615 91.1661 66.9794C93.2706 67.538 95.4453 67.7878 97.6218 67.7209Z" fill="#263238"/>
<path d="M98.0424 65.2215C98.0674 65.2215 98.071 65.2607 98.0424 65.2642C95.6367 65.7357 93.1415 65.331 91.0086 64.1235C90.9372 64.0807 90.9158 63.9667 91.0086 64.0094C92.4896 64.7616 95.9869 65.3141 98.0424 65.2215Z" fill="#263238"/>
<path d="M91.1214 61.0906C93.2162 62.2527 95.4752 62.6235 97.8483 62.6734C97.8804 62.6734 97.8769 62.7162 97.8483 62.7233C96.6814 63.0156 95.1719 62.8267 94.0085 62.5807C92.9241 62.3686 91.9141 61.8771 91.0786 61.1548C91.0465 61.1334 91.075 61.0621 91.1214 61.0906Z" fill="#263238"/>
<path d="M68.9337 46.3462C68.9873 46.7027 70.4611 49.0483 72.0385 49.0947C72.5523 49.0947 72.7522 46.3106 72.7522 46.3106L72.8164 46.1074L73.6836 43.2555L70.4468 40.8172L69.9758 40.4893C69.9758 40.4893 69.7902 41.2842 69.569 42.2717C69.569 42.318 69.5476 42.3608 69.5368 42.4107C69.5261 42.4606 69.5083 42.5212 69.4976 42.5711C69.4655 42.7208 69.4298 42.8705 69.3977 43.0203C69.3655 43.17 69.3477 43.2484 69.3263 43.3767C69.3049 43.5051 69.2799 43.6156 69.2549 43.7332C69.0881 44.5958 68.9808 45.4689 68.9337 46.3462Z" fill="#A26E3F"/>
<path d="M69.5807 42.2859C69.8108 43.1207 70.2207 43.8951 70.7816 44.5552C71.3425 45.2152 72.0409 45.745 72.8281 46.1074L73.6953 43.2555L70.4586 40.8172L69.9875 40.4893C69.9875 40.4893 69.7912 41.2949 69.5807 42.2859Z" fill="#263238"/>
<path d="M78.3852 40.0152C77.4966 45.1556 74.3134 45.2055 73.2035 45.0059C72.1972 44.8312 68.7891 44.1076 69.1389 38.903C69.4886 33.6984 72.1651 32.4864 74.4918 32.7609C76.8186 33.0353 79.2702 34.8712 78.3852 40.0152Z" fill="#A26E3F"/>
<path d="M77.874 38.8855C77.7562 38.8498 77.6527 38.7999 77.5385 38.7536C77.4142 38.7222 77.303 38.6523 77.2209 38.5539C77.202 38.5173 77.1957 38.4756 77.2028 38.4351C77.2099 38.3945 77.23 38.3574 77.2602 38.3294C77.3285 38.2836 77.4079 38.2569 77.49 38.2518C77.5722 38.2468 77.6542 38.2637 77.7277 38.3008C77.8871 38.3533 78.0217 38.4624 78.1059 38.6074C78.1222 38.6418 78.1282 38.6801 78.1234 38.7178C78.1186 38.7555 78.103 38.7911 78.0787 38.8203C78.0543 38.8495 78.0221 38.8711 77.9858 38.8827C77.9496 38.8942 77.9108 38.8952 77.874 38.8855Z" fill="#263238"/>
<path d="M74.4869 37.9191C74.6058 37.9262 74.725 37.9262 74.8438 37.9191C74.9685 37.9309 75.0937 37.9021 75.2007 37.8371C75.2313 37.8094 75.2518 37.7723 75.259 37.7316C75.2661 37.6909 75.2594 37.649 75.2399 37.6126C75.1914 37.5467 75.1261 37.4951 75.0507 37.4631C74.9754 37.4311 74.8928 37.42 74.8117 37.4308C74.6431 37.426 74.4789 37.4845 74.3513 37.5947C74.3273 37.6223 74.3115 37.6561 74.3056 37.6922C74.2998 37.7283 74.3042 37.7653 74.3183 37.799C74.3324 37.8328 74.3556 37.8619 74.3854 37.8831C74.4152 37.9043 74.4504 37.9168 74.4869 37.9191Z" fill="#263238"/>
<path d="M74.932 39.3164C74.932 39.3164 74.8999 39.3164 74.8999 39.3449C74.8571 39.7014 74.7536 40.0935 74.4182 40.1648C74.8321 40.1862 74.9677 39.6586 74.932 39.3164Z" fill="#263238"/>
<path d="M74.6911 38.9032C74.1309 38.7784 73.9203 39.9049 74.4378 40.0225C74.9552 40.1402 75.1586 39.0101 74.6911 38.9032Z" fill="#263238"/>
<path d="M74.459 38.9212C74.3483 38.9675 74.2306 39.0602 74.1021 39.0495C73.9736 39.0388 73.8808 38.8998 73.813 38.7715C73.813 38.7715 73.7916 38.7715 73.7881 38.7715C73.7516 38.872 73.7545 38.9826 73.7962 39.0811C73.8379 39.1796 73.9153 39.2587 74.0129 39.3026C74.2199 39.3704 74.4054 39.2064 74.5018 38.9996C74.5268 38.9889 74.5018 38.9034 74.459 38.9212Z" fill="#263238"/>
<path d="M76.9742 39.627C76.9742 39.627 76.9956 39.6483 76.9742 39.6626C76.8957 40.0191 76.8636 40.4219 77.1562 40.5966C77.1562 40.5966 77.1562 40.6215 77.1562 40.618C76.7922 40.4861 76.8422 39.9442 76.9742 39.627Z" fill="#263238"/>
<path d="M77.3544 39.3234C77.9254 39.3911 77.7469 40.5247 77.2188 40.4605C76.6906 40.3964 76.8762 39.2663 77.3544 39.3234Z" fill="#263238"/>
<path d="M77.5791 39.4346C77.6576 39.5094 77.7326 39.6342 77.8361 39.6556C77.9396 39.677 78.0716 39.5772 78.168 39.4702C78.143 39.6877 78.0359 39.9015 77.8111 39.9122C77.5863 39.9229 77.5042 39.7126 77.4863 39.488C77.5078 39.4631 77.547 39.406 77.5791 39.4346Z" fill="#263238"/>
<path d="M76.0869 41.0849C76.0869 41.0849 76.0513 41.6945 76.0084 41.944C75.5513 41.9353 75.1036 41.8128 74.7059 41.5875C74.4454 41.4414 74.531 41.3843 74.7059 41.4414C75.0673 41.5772 75.4434 41.6705 75.8264 41.7194C75.855 41.6517 75.8621 40.8068 75.9014 40.8104C76.0902 40.861 76.2714 40.9365 76.4402 41.035C76.5152 39.9228 76.4081 38.807 76.4973 37.6983C76.4997 37.6912 76.5042 37.685 76.5103 37.6806C76.5164 37.6762 76.5237 37.6738 76.5312 37.6738C76.5387 37.6738 76.5461 37.6762 76.5522 37.6806C76.5582 37.685 76.5628 37.6912 76.5651 37.6983C76.7153 38.8925 76.7464 40.0985 76.6579 41.2988C76.6508 41.4164 76.1761 41.1277 76.0869 41.0849Z" fill="#263238"/>
<path d="M69.2205 38.7247C70.0341 39.0313 70.73 37.338 70.73 37.338C70.73 37.338 72.4251 37.8335 73.6848 35.5556C73.4226 36.2656 72.9603 36.8847 72.3538 37.338C72.3538 37.338 75.4192 37.9191 77.3998 35.7802C77.3998 35.7802 76.529 36.9067 75.9295 37.224C76.7548 37.2102 77.5511 36.9174 78.1885 36.3934C78.1885 36.3934 78.2919 37.9868 78.581 38.5002C78.581 38.5002 79.9692 33.2457 74.966 32.4008C74.966 32.4008 71.8755 31.7271 70.0912 33.8267C68.3069 35.9264 69.2205 38.7247 69.2205 38.7247Z" fill="#263238"/>
<path d="M75.8666 39.9797L75.7595 39.7908C76.0272 39.6196 76.6196 39.4343 76.9336 39.9048L76.7587 40.0296C76.4768 39.5983 75.8916 39.9619 75.8666 39.9797Z" fill="#C4D0A1"/>
<path d="M68.4866 39.2734L68.3082 39.1415C68.3724 39.0596 68.9148 38.3288 69.4144 38.3252C69.914 38.3216 72.7618 39.0382 72.8867 39.0738L72.8296 39.2877C72.0053 39.0809 69.7784 38.5427 69.418 38.5462C69.0576 38.5498 68.6365 39.0703 68.4866 39.2734Z" fill="#C4D0A1"/>
<path d="M75.5026 40.7707C75.7666 40.596 76.1164 39.8902 75.8594 39.5087C75.4062 38.7958 72.8582 38.1719 72.7512 38.147L72.6084 38.1113V38.2753C72.6084 38.3395 72.5763 39.8367 72.9938 40.3429C73.2184 40.5614 73.4986 40.7142 73.8039 40.7849C74.4249 40.9525 75.1743 40.9881 75.5026 40.7707ZM75.6739 39.6371C75.8309 39.8795 75.5597 40.4534 75.3741 40.5746C74.9887 40.8241 73.547 40.6174 73.1865 40.1753C72.9153 39.8474 72.8547 38.8992 72.8547 38.393C73.6505 38.6318 75.3634 39.1523 75.6739 39.6406V39.6371Z" fill="#C4D0A1"/>
<path d="M77.7512 41.2308C77.8897 41.2557 78.0321 41.2481 78.1671 41.2085C78.3022 41.1689 78.4261 41.0984 78.5291 41.0027C78.8503 40.6284 79.2 39.3058 79.2143 39.2488L79.25 39.1133H79.1073C78.9253 39.1133 77.3229 38.9921 76.9233 39.5625C76.8147 39.7448 76.7524 39.9509 76.7419 40.1628C76.7313 40.3746 76.7727 40.5859 76.8626 40.7781C77.0004 40.9807 77.2092 41.1244 77.4478 41.1809C77.5472 41.2067 77.6488 41.2234 77.7512 41.2308ZM78.3507 40.8494C78.2716 40.9157 78.1785 40.9633 78.0784 40.9886C77.9783 41.0139 77.8738 41.0163 77.7726 40.9955C77.6349 40.9914 77.4997 40.9574 77.3764 40.8958C77.2531 40.8343 77.1448 40.7467 77.0589 40.6391C76.99 40.485 76.9587 40.3168 76.9673 40.1483C76.976 39.9797 77.0245 39.8157 77.1088 39.6694C77.3479 39.3129 78.4078 39.288 78.9431 39.3129C78.818 39.8501 78.6186 40.3672 78.3507 40.8494Z" fill="#C4D0A1"/>
<path d="M69.8906 39.4451C69.8906 39.4451 69.2055 37.5807 68.3847 37.7875C67.5639 37.9943 67.7923 40.4932 68.5524 41.0243C68.6444 41.0998 68.7509 41.1558 68.8653 41.1889C68.9796 41.222 69.0996 41.2315 69.2177 41.2168C69.3359 41.2021 69.4499 41.1636 69.5527 41.1035C69.6555 41.0435 69.7449 40.9632 69.8157 40.8675L69.8906 39.4451Z" fill="#A26E3F"/>
<path d="M68.4637 38.5C68.4637 38.5 68.4637 38.5 68.4637 38.5214C68.6982 38.727 68.8867 38.9795 69.0171 39.2626C69.1474 39.5458 69.2167 39.8531 69.2203 40.1648C69.2014 40.0967 69.1679 40.0335 69.1222 39.9796C69.0765 39.9256 69.0196 39.8823 68.9555 39.8524C68.8914 39.8226 68.8215 39.8071 68.7508 39.8068C68.6801 39.8066 68.6101 39.8217 68.5458 39.8511C68.528 39.8511 68.5458 39.8867 68.5458 39.8867C68.6578 39.8807 68.7689 39.9098 68.8636 39.9698C68.9582 40.0299 69.0318 40.118 69.074 40.2218C69.1428 40.3988 69.1919 40.5829 69.2203 40.7708C69.2203 40.8314 69.338 40.8278 69.3345 40.7708C69.5593 39.9901 69.2524 38.7887 68.4637 38.5Z" fill="#263238"/>
<path d="M72.7902 46.2358L71.9658 48.5565L69.0039 45.3838L68.2901 46.5138C68.2901 46.5138 71.2307 51.2194 71.2378 51.0126L72.0765 49.0056L73.5039 50.3175L73.247 46.8846L72.7902 46.2358Z" fill="white"/>
<path d="M73.4727 48.6135C73.4121 48.0467 73.3693 47.4763 73.28 46.9167C73.28 46.8953 73.2444 46.8881 73.2408 46.9167C73.1516 47.4656 73.3978 49.6295 73.4157 50.1464C73.3586 50.0893 72.106 48.9949 72.0952 49.0128C71.9025 49.3336 71.2745 50.7952 71.2316 50.927C70.7606 50.2141 68.8085 47.1876 68.259 46.521C68.259 46.5031 68.2126 46.521 68.2268 46.5424C68.6444 47.2945 71.1817 51.2194 71.2174 51.2087C71.5514 50.5171 71.8503 49.8092 72.1131 49.0876C72.5761 49.5861 73.0721 50.0529 73.5977 50.485C73.5902 49.8594 73.5485 49.2346 73.4727 48.6135Z" fill="#263238"/>
</svg>
